<?xml version="1.0" standalone="yes"?>
<svg xmlns="http://www.w3.org/2000/svg" width="259" height="194">
<path style="fill:#ffffff; stroke:none;" d="M0 0L0 194L259 194L259 0L0 0z"/>
<path style="fill:#b9bedd; stroke:none;" d="M132 48L133 49L132 48z"/>
<path style="fill:#8d97c8; stroke:none;" d="M133 48L134 49L133 48z"/>
<path style="fill:#6270b6; stroke:none;" d="M134 48L135 49L134 48z"/>
<path style="fill:#2f46a5; stroke:none;" d="M130 49L130 51C141.148 53.0178 149.398 64.3957 157 72C159.507 74.5075 164.291 81.5969 168.169 81.6543C183 81.8738 169.299 65.2944 166 62C154.672 50.6891 145.596 47.7692 130 49z"/>
<path style="fill:#6270b6; stroke:none;" d="M143.667 48.3333L144.333 48.6667L143.667 48.3333z"/>
<path style="fill:#8d97c8; stroke:none;" d="M145 48L146 49L145 48z"/>
<path style="fill:#b9bedd; stroke:none;" d="M146 48L147 49L146 48M128 49L129 50L128 49z"/>
<path style="fill:#8d97c8; stroke:none;" d="M129 49L130 50L129 49z"/>
<path style="fill:#6270b6; stroke:none;" d="M148 49L149 50L148 49z"/>
<path style="fill:#b9bedd; stroke:none;" d="M149 49L150 50L149 49M126 50L127 51L126 50z"/>
<path style="fill:#6270b6; stroke:none;" d="M127 50L127 51L130 51L127 50z"/>
<path style="fill:#8d97c8; stroke:none;" d="M151 50L152 51L151 50z"/>
<path style="fill:#b9bedd; stroke:none;" d="M132 51L133 52L132 51z"/>
<path style="fill:#8d97c8; stroke:none;" d="M133 51L134 52L133 51M153 51L154 52L153 51M135 52L136 53L135 52z"/>
<path style="fill:#b9bedd; stroke:none;" d="M155 52L156 53L155 52M118 53L119 54L118 53z"/>
<path style="fill:#8d97c8; stroke:none;" d="M119 53L120 54L119 53z"/>
<path style="fill:#6270b6; stroke:none;" d="M120 53L121 54L120 53z"/>
<path style="fill:#2f46a5; stroke:none;" d="M165 87C157.626 76.5314 141.603 57.4119 129 53.7894C106.551 47.3371 85.1253 74.4623 83.1705 94C77.7693 147.985 158.114 165.762 173.791 113C174.667 110.052 176.939 103.38 174.933 100.603C172.371 97.058 156.522 98.267 153 100.028C147.992 102.532 143.908 108.093 140 112C137.486 114.514 133.776 119.873 130 120.369C125.241 120.994 106.974 102.696 108.207 98C109.114 94.5452 113.582 91.4184 116 89C119.14 85.8601 124.344 78.2424 129 77.6312C138.345 76.4041 143.437 96.3642 153 96.3642C157.591 96.3642 162.056 89.9432 165 87z"/>
<path style="fill:#6270b6; stroke:none;" d="M128 53L129 54L128 53z"/>
<path style="fill:#b9bedd; stroke:none;" d="M129 53L130 54L129 53z"/>
<path style="fill:#8d97c8; stroke:none;" d="M137 53L138 54L137 53M156 53L157 54L156 53z"/>
<path style="fill:#b9bedd; stroke:none;" d="M115 54L116 55L115 54z"/>
<path style="fill:#6270b6; stroke:none;" d="M116 54L117 55L116 54M131 54L132 55L131 54z"/>
<path style="fill:#b9bedd; stroke:none;" d="M132 54L133 55L132 54M138 54L139 55L138 54M112 55L113 56L112 55z"/>
<path style="fill:#6270b6; stroke:none;" d="M113 55L114 56L113 55M133 55L134 56L133 55z"/>
<path style="fill:#b9bedd; stroke:none;" d="M159 55L160 56L159 55z"/>
<path style="fill:#8d97c8; stroke:none;" d="M110 56L111 57L110 56z"/>
<path style="fill:#b9bedd; stroke:none;" d="M135 56L136 57L135 56z"/>
<path style="fill:#6270b6; stroke:none;" d="M141 56L142 57L141 56z"/>
<path style="fill:#b9bedd; stroke:none;" d="M160 56L161 57L160 56z"/>
<path style="fill:#6270b6; stroke:none;" d="M108 57L109 58L108 57z"/>
<path style="fill:#8d97c8; stroke:none;" d="M136 57L137 58L136 57z"/>
<path style="fill:#6270b6; stroke:none;" d="M142 57L143 58L142 57z"/>
<path style="fill:#b9bedd; stroke:none;" d="M161 57L162 58L161 57z"/>
<path style="fill:#8d97c8; stroke:none;" d="M106 58L107 59L106 58M137 58L138 59L137 58z"/>
<path style="fill:#6270b6; stroke:none;" d="M143 58L144 59L143 58z"/>
<path style="fill:#b9bedd; stroke:none;" d="M162 58L163 59L162 58M104 59L105 60L104 59z"/>
<path style="fill:#8d97c8; stroke:none;" d="M138 59L139 60L138 59z"/>
<path style="fill:#6270b6; stroke:none;" d="M144 59L145 60L144 59z"/>
<path style="fill:#b9bedd; stroke:none;" d="M163 59L164 60L163 59z"/>
<path style="fill:#6270b6; stroke:none;" d="M103 60L104 61L103 60z"/>
<path style="fill:#8d97c8; stroke:none;" d="M139 60L140 61L139 60z"/>
<path style="fill:#6270b6; stroke:none;" d="M145 60L146 61L145 60z"/>
<path style="fill:#b9bedd; stroke:none;" d="M164 60L165 61L164 60M101 61L102 62L101 61z"/>
<path style="fill:#8d97c8; stroke:none;" d="M140 61L141 62L140 61z"/>
<path style="fill:#6270b6; stroke:none;" d="M146 61L147 62L146 61z"/>
<path style="fill:#b9bedd; stroke:none;" d="M165 61L166 62L165 61z"/>
<path style="fill:#8d97c8; stroke:none;" d="M100 62L101 63L100 62M141 62L142 63L141 62z"/>
<path style="fill:#6270b6; stroke:none;" d="M147 62L148 63L147 62z"/>
<path style="fill:#b9bedd; stroke:none;" d="M166 62L167 63L166 62z"/>
<path style="fill:#6270b6; stroke:none;" d="M99 63L100 64L99 63z"/>
<path style="fill:#8d97c8; stroke:none;" d="M142 63L143 64L142 63z"/>
<path style="fill:#6270b6; stroke:none;" d="M148 63L149 64L148 63z"/>
<path style="fill:#b9bedd; stroke:none;" d="M167 63L168 64L167 63z"/>
<path style="fill:#8d97c8; stroke:none;" d="M143 64L144 65L143 64z"/>
<path style="fill:#6270b6; stroke:none;" d="M149 64L150 65L149 64z"/>
<path style="fill:#b9bedd; stroke:none;" d="M168 64L169 65L168 64z"/>
<path style="fill:#8d97c8; stroke:none;" d="M144 65L145 66L144 65z"/>
<path style="fill:#6270b6; stroke:none;" d="M150 65L151 66L150 65z"/>
<path style="fill:#b9bedd; stroke:none;" d="M169 65L170 66L169 65z"/>
<path style="fill:#8d97c8; stroke:none;" d="M145 66L146 67L145 66z"/>
<path style="fill:#6270b6; stroke:none;" d="M151 66L152 67L151 66z"/>
<path style="fill:#b9bedd; stroke:none;" d="M170 66L171 67L170 66z"/>
<path style="fill:#8d97c8; stroke:none;" d="M146 67L147 68L146 67z"/>
<path style="fill:#6270b6; stroke:none;" d="M152 67L153 68L152 67z"/>
<path style="fill:#b9bedd; stroke:none;" d="M171 67L172 68L171 67z"/>
<path style="fill:#6270b6; stroke:none;" d="M94 68L95 69L94 68z"/>
<path style="fill:#8d97c8; stroke:none;" d="M147 68L148 69L147 68z"/>
<path style="fill:#6270b6; stroke:none;" d="M153 68L154 69L153 68z"/>
<path style="fill:#b9bedd; stroke:none;" d="M172 68L173 69L172 68z"/>
<path style="fill:#6270b6; stroke:none;" d="M93 69L94 70L93 69z"/>
<path style="fill:#8d97c8; stroke:none;" d="M148 69L149 70L148 69z"/>
<path style="fill:#6270b6; stroke:none;" d="M154 69L155 70L154 69z"/>
<path style="fill:#b9bedd; stroke:none;" d="M173 69L174 70L173 69z"/>
<path style="fill:#8d97c8; stroke:none;" d="M92 70L93 71L92 70M149 70L150 71L149 70z"/>
<path style="fill:#6270b6; stroke:none;" d="M155 70L156 71L155 70z"/>
<path style="fill:#b9bedd; stroke:none;" d="M174 70L175 71L174 70M91 71L92 72L91 71z"/>
<path style="fill:#8d97c8; stroke:none;" d="M150 71L151 72L150 71z"/>
<path style="fill:#6270b6; stroke:none;" d="M156 71L157 72L156 71z"/>
<path style="fill:#b9bedd; stroke:none;" d="M175 71L176 72L175 71z"/>
<path style="fill:#8d97c8; stroke:none;" d="M151 72L152 73L151 72z"/>
<path style="fill:#6270b6; stroke:none;" d="M157 72L158 73L157 72M90 73L91 74L90 73z"/>
<path style="fill:#8d97c8; stroke:none;" d="M152 73L153 74L152 73z"/>
<path style="fill:#6270b6; stroke:none;" d="M158 73L159 74L158 73z"/>
<path style="fill:#b9bedd; stroke:none;" d="M176.333 73.6667L176.667 74.3333L176.333 73.6667M89 74L90 75L89 74z"/>
<path style="fill:#8d97c8; stroke:none;" d="M153 74L154 75L153 74z"/>
<path style="fill:#6270b6; stroke:none;" d="M159 74L160 75L159 74z"/>
<path style="fill:#8d97c8; stroke:none;" d="M154 75L155 76L154 75z"/>
<path style="fill:#6270b6; stroke:none;" d="M160 75L161 76L160 75M175 75L176 76L175 75z"/>
<path style="fill:#b9bedd; stroke:none;" d="M88 76L89 77L88 76M128 76L129 77L128 76z"/>
<path style="fill:#8d97c8; stroke:none;" d="M130 76L131 77L130 76M155 76L156 77L155 76z"/>
<path style="fill:#6270b6; stroke:none;" d="M161 76L162 77L161 76z"/>
<path style="fill:#b9bedd; stroke:none;" d="M127 77L128 78L127 77z"/>
<path style="fill:#8d97c8; stroke:none;" d="M131 77L132 78L131 77M156 77L157 78L156 77z"/>
<path style="fill:#6270b6; stroke:none;" d="M162 77L163 78L162 77z"/>
<path style="fill:#8d97c8; stroke:none;" d="M87 78L88 79L87 78z"/>
<path style="fill:#b9bedd; stroke:none;" d="M126 78L127 79L126 78z"/>
<path style="fill:#8d97c8; stroke:none;" d="M132 78L133 79L132 78M157 78L158 79L157 78z"/>
<path style="fill:#6270b6; stroke:none;" d="M163 78L164 79L163 78z"/>
<path style="fill:#b9bedd; stroke:none;" d="M125 79L126 80L125 79z"/>
<path style="fill:#8d97c8; stroke:none;" d="M133 79L134 80L133 79M158 79L159 80L158 79z"/>
<path style="fill:#6270b6; stroke:none;" d="M164 79L165 80L164 79z"/>
<path style="fill:#b9bedd; stroke:none;" d="M86 80L87 81L86 80M124 80L125 81L124 80z"/>
<path style="fill:#8d97c8; stroke:none;" d="M134 80L135 81L134 80M159 80L160 81L159 80z"/>
<path style="fill:#6270b6; stroke:none;" d="M165 80L166 81L165 80z"/>
<path style="fill:#b9bedd; stroke:none;" d="M123 81L124 82L123 81z"/>
<path style="fill:#8d97c8; stroke:none;" d="M135 81L136 82L135 81M160 81L161 82L160 81z"/>
<path style="fill:#b9bedd; stroke:none;" d="M85 82L86 83L85 82M122 82L123 83L122 82z"/>
<path style="fill:#8d97c8; stroke:none;" d="M136 82L137 83L136 82M161 82L162 83L161 82z"/>
<path style="fill:#6270b6; stroke:none;" d="M167 82L168 83L167 82z"/>
<path style="fill:#8d97c8; stroke:none;" d="M85 83L86 84L85 83z"/>
<path style="fill:#b9bedd; stroke:none;" d="M121 83L122 84L121 83z"/>
<path style="fill:#8d97c8; stroke:none;" d="M137 83L138 84L137 83M162 83L163 84L162 83z"/>
<path style="fill:#b9bedd; stroke:none;" d="M120 84L121 85L120 84z"/>
<path style="fill:#8d97c8; stroke:none;" d="M138 84L139 85L138 84M163 84L164 85L163 84z"/>
<path style="fill:#b9bedd; stroke:none;" d="M84 85L85 86L84 85M119 85L120 86L119 85z"/>
<path style="fill:#8d97c8; stroke:none;" d="M139 85L140 86L139 85M164 85L165 86L164 85M84 86L85 87L84 86z"/>
<path style="fill:#b9bedd; stroke:none;" d="M118 86L119 87L118 86z"/>
<path style="fill:#8d97c8; stroke:none;" d="M140 86L141 87L140 86z"/>
<path style="fill:#b9bedd; stroke:none;" d="M117 87L118 88L117 87z"/>
<path style="fill:#8d97c8; stroke:none;" d="M141 87L142 88L141 87z"/>
<path style="fill:#b9bedd; stroke:none;" d="M116 88L117 89L116 88z"/>
<path style="fill:#8d97c8; stroke:none;" d="M142 88L143 89L142 88z"/>
<path style="fill:#b9bedd; stroke:none;" d="M83 89L84 90L83 89M115 89L116 90L115 89z"/>
<path style="fill:#8d97c8; stroke:none;" d="M143 89L144 90L143 89M83 90L84 91L83 90z"/>
<path style="fill:#b9bedd; stroke:none;" d="M114 90L115 91L114 90z"/>
<path style="fill:#8d97c8; stroke:none;" d="M144 90L145 91L144 90z"/>
<path style="fill:#6270b6; stroke:none;" d="M83 91L84 92L83 91z"/>
<path style="fill:#b9bedd; stroke:none;" d="M113 91L114 92L113 91z"/>
<path style="fill:#8d97c8; stroke:none;" d="M145 91L146 92L145 91z"/>
<path style="fill:#b9bedd; stroke:none;" d="M112 92L113 93L112 92z"/>
<path style="fill:#8d97c8; stroke:none;" d="M146 92L147 93L146 92z"/>
<path style="fill:#b9bedd; stroke:none;" d="M111 93L112 94L111 93z"/>
<path style="fill:#8d97c8; stroke:none;" d="M147 93L148 94L147 93z"/>
<path style="fill:#b9bedd; stroke:none;" d="M110 94L111 95L110 94z"/>
<path style="fill:#8d97c8; stroke:none;" d="M148 94L149 95L148 94z"/>
<path style="fill:#b9bedd; stroke:none;" d="M109 95L110 96L109 95z"/>
<path style="fill:#8d97c8; stroke:none;" d="M149 95L150 96L149 95z"/>
<path style="fill:#b9bedd; stroke:none;" d="M82 96L82 102L83 102L82 96M108 96L109 97L108 96z"/>
<path style="fill:#8d97c8; stroke:none;" d="M150 96L151 97L150 96z"/>
<path style="fill:#b9bedd; stroke:none;" d="M107 97L108 98L107 97M151 97L152 98L151 97z"/>
<path style="fill:#8d97c8; stroke:none;" d="M152.667 97.3333L153.333 97.6667L152.667 97.3333z"/>
<path style="fill:#b9bedd; stroke:none;" d="M106.333 98.6667L106.667 99.3333L106.333 98.6667z"/>
<path style="fill:#8d97c8; stroke:none;" d="M152 99L153 100L152 99M175 99L176 100L175 99z"/>
<path style="fill:#b9bedd; stroke:none;" d="M107 100L108 101L107 100z"/>
<path style="fill:#6270b6; stroke:none;" d="M151 100L152 101L151 100z"/>
<path style="fill:#b9bedd; stroke:none;" d="M108 101L109 102L108 101z"/>
<path style="fill:#6270b6; stroke:none;" d="M150 101L151 102L150 101z"/>
<path style="fill:#b9bedd; stroke:none;" d="M109 102L110 103L109 102z"/>
<path style="fill:#6270b6; stroke:none;" d="M149 102L150 103L149 102z"/>
<path style="fill:#b9bedd; stroke:none;" d="M110 103L111 104L110 103z"/>
<path style="fill:#6270b6; stroke:none;" d="M148 103L149 104L148 103z"/>
<path style="fill:#b9bedd; stroke:none;" d="M111 104L112 105L111 104z"/>
<path style="fill:#6270b6; stroke:none;" d="M147 104L148 105L147 104M175.333 104.667L175.667 105.333L175.333 104.667z"/>
<path style="fill:#b9bedd; stroke:none;" d="M112 105L113 106L112 105z"/>
<path style="fill:#6270b6; stroke:none;" d="M146 105L147 106L146 105M83 106L84 107L83 106z"/>
<path style="fill:#b9bedd; stroke:none;" d="M113 106L114 107L113 106z"/>
<path style="fill:#6270b6; stroke:none;" d="M145 106L146 107L145 106z"/>
<path style="fill:#8d97c8; stroke:none;" d="M175 106L176 107L175 106M83 107L84 108L83 107z"/>
<path style="fill:#b9bedd; stroke:none;" d="M114 107L115 108L114 107z"/>
<path style="fill:#6270b6; stroke:none;" d="M144 107L145 108L144 107z"/>
<path style="fill:#b9bedd; stroke:none;" d="M175 107L176 108L175 107M83 108L84 109L83 108M115 108L116 109L115 108z"/>
<path style="fill:#6270b6; stroke:none;" d="M143 108L144 109L143 108z"/>
<path style="fill:#b9bedd; stroke:none;" d="M116 109L117 110L116 109z"/>
<path style="fill:#6270b6; stroke:none;" d="M142 109L143 110L142 109z"/>
<path style="fill:#b9bedd; stroke:none;" d="M117 110L118 111L117 110z"/>
<path style="fill:#6270b6; stroke:none;" d="M141 110L142 111L141 110M174 110L175 111L174 110z"/>
<path style="fill:#8d97c8; stroke:none;" d="M84 111L85 112L84 111z"/>
<path style="fill:#b9bedd; stroke:none;" d="M118 111L119 112L118 111z"/>
<path style="fill:#6270b6; stroke:none;" d="M140 111L141 112L140 111z"/>
<path style="fill:#b9bedd; stroke:none;" d="M174 111L175 112L174 111M84 112L85 113L84 112M119 112L120 113L119 112z"/>
<path style="fill:#6270b6; stroke:none;" d="M139 112L140 113L139 112z"/>
<path style="fill:#b9bedd; stroke:none;" d="M120 113L121 114L120 113z"/>
<path style="fill:#6270b6; stroke:none;" d="M138 113L139 114L138 113M85 114L86 115L85 114z"/>
<path style="fill:#b9bedd; stroke:none;" d="M121 114L122 115L121 114z"/>
<path style="fill:#6270b6; stroke:none;" d="M137 114L138 115L137 114z"/>
<path style="fill:#8d97c8; stroke:none;" d="M173 114L174 115L173 114z"/>
<path style="fill:#b9bedd; stroke:none;" d="M85 115L86 116L85 115M122 115L123 116L122 115z"/>
<path style="fill:#6270b6; stroke:none;" d="M136 115L137 116L136 115z"/>
<path style="fill:#b9bedd; stroke:none;" d="M123 116L124 117L123 116z"/>
<path style="fill:#6270b6; stroke:none;" d="M135 116L136 117L135 116M172 116L173 117L172 116z"/>
<path style="fill:#8d97c8; stroke:none;" d="M86 117L87 118L86 117z"/>
<path style="fill:#b9bedd; stroke:none;" d="M124 117L125 118L124 117z"/>
<path style="fill:#6270b6; stroke:none;" d="M134 117L135 118L134 117z"/>
<path style="fill:#b9bedd; stroke:none;" d="M172 117L173 118L172 117M125 118L126 119L125 118z"/>
<path style="fill:#6270b6; stroke:none;" d="M133 118L134 119L133 118z"/>
<path style="fill:#8d97c8; stroke:none;" d="M87 119L88 120L87 119z"/>
<path style="fill:#b9bedd; stroke:none;" d="M126 119L127 120L126 119z"/>
<path style="fill:#6270b6; stroke:none;" d="M132 119L133 120L132 119z"/>
<path style="fill:#b9bedd; stroke:none;" d="M171 119L172 120L171 119M127 120L128 121L127 120z"/>
<path style="fill:#6270b6; stroke:none;" d="M131 120L132 121L131 120z"/>
<path style="fill:#8d97c8; stroke:none;" d="M88 121L89 122L88 121z"/>
<path style="fill:#b9bedd; stroke:none;" d="M128 121L129 122L128 121z"/>
<path style="fill:#6270b6; stroke:none;" d="M130 121L131 122L130 121z"/>
<path style="fill:#b9bedd; stroke:none;" d="M170 121L171 122L170 121z"/>
<path style="fill:#6270b6; stroke:none;" d="M169 122L170 123L169 122z"/>
<path style="fill:#b9bedd; stroke:none;" d="M89 123L90 124L89 123M169 123L170 124L169 123z"/>
<path style="fill:#6270b6; stroke:none;" d="M90 124L91 125L90 124z"/>
<path style="fill:#8d97c8; stroke:none;" d="M168 124L169 125L168 124z"/>
<path style="fill:#b9bedd; stroke:none;" d="M91 126L92 127L91 126M167 126L168 127L167 126z"/>
<path style="fill:#6270b6; stroke:none;" d="M92 127L93 128L92 127z"/>
<path style="fill:#b9bedd; stroke:none;" d="M166 127L167 128L166 127z"/>
<path style="fill:#6270b6; stroke:none;" d="M165 128L166 129L165 128M164 129L165 130L164 129z"/>
<path style="fill:#b9bedd; stroke:none;" d="M94 130L95 131L94 130M95 131L96 132L95 131M96 132L97 133L96 132M97 133L98 134L97 133z"/>
<path style="fill:#6270b6; stroke:none;" d="M159 134L160 135L159 134M100 135L101 136L100 135z"/>
<path style="fill:#8d97c8; stroke:none;" d="M158 135L159 136L158 135M101 136L102 137L101 136z"/>
<path style="fill:#b9bedd; stroke:none;" d="M157 136L158 137L157 136M102 137L103 138L102 137z"/>
<path style="fill:#6270b6; stroke:none;" d="M155 137L156 138L155 137z"/>
<path style="fill:#8d97c8; stroke:none;" d="M104 138L105 139L104 138M154 138L155 139L154 138z"/>
<path style="fill:#b9bedd; stroke:none;" d="M105 139L106 140L105 139z"/>
<path style="fill:#6270b6; stroke:none;" d="M152 139L153 140L152 139z"/>
<path style="fill:#b9bedd; stroke:none;" d="M107 140L108 141L107 140z"/>
<path style="fill:#6270b6; stroke:none;" d="M150 140L151 141L150 140z"/>
<path style="fill:#b9bedd; stroke:none;" d="M151 140L152 141L151 140M109 141L110 142L109 141z"/>
<path style="fill:#6270b6; stroke:none;" d="M148 141L149 142L148 141z"/>
<path style="fill:#b9bedd; stroke:none;" d="M149 141L150 142L149 141M111 142L112 143L111 142z"/>
<path style="fill:#6270b6; stroke:none;" d="M112 142L113 143L112 142z"/>
<path style="fill:#8d97c8; stroke:none;" d="M146 142L147 143L146 142z"/>
<path style="fill:#b9bedd; stroke:none;" d="M147 142L148 143L147 142M114 143L115 144L114 143z"/>
<path style="fill:#6270b6; stroke:none;" d="M115 143L116 144L115 143M143 143L144 144L143 143z"/>
<path style="fill:#b9bedd; stroke:none;" d="M144 143L145 144L144 143M117 144L118 145L117 144z"/>
<path style="fill:#8d97c8; stroke:none;" d="M118 144L119 145L118 144z"/>
<path style="fill:#6270b6; stroke:none;" d="M119 144L120 145L119 144M139 144L140 145L139 144z"/>
<path style="fill:#8d97c8; stroke:none;" d="M140 144L141 145L140 144z"/>
<path style="fill:#b9bedd; stroke:none;" d="M141 144L142 145L141 144M122.667 145.333L123.333 145.667L122.667 145.333z"/>
<path style="fill:#8d97c8; stroke:none;" d="M124 145L125 146L124 145z"/>
<path style="fill:#6270b6; stroke:none;" d="M125 145L125 146L129 146L125 145M130 145L130 146L134 146L130 145z"/>
<path style="fill:#8d97c8; stroke:none;" d="M134 145L135 146L134 145z"/>
<path style="fill:#b9bedd; stroke:none;" d="M135.667 145.333L136.333 145.667L135.667 145.333z"/>
</svg>
