<?xml version="1.0" standalone="yes"?>
<svg xmlns="http://www.w3.org/2000/svg" width="1330" height="1330">
<path style="fill:#3b3b3b; stroke:none;" d="M0 0L0 1330L1330 1330L1330 0L0 0z"/>
<path style="fill:#b4a69d; stroke:none;" d="M221 717L222 717L222 544L396 544C385.496 539.592 367.42 543 356 543L263 543L233 543C230.02 543 224.147 541.927 222.028 544.603C219.825 547.385 221 553.672 221 557L221 590L221 717z"/>
<path style="fill:#fe6701; stroke:none;" d="M396 543L396 717L1108 717L1108 543L396 543z"/>
<path style="fill:#f6f6f5; stroke:none;" d="M222 544L222 717L395 717L395 544L222 544z"/>
<path style="fill:#fc9b5b; stroke:none;" d="M395 544L395 717L396 717L396 596L396 561L395 544z"/>
<path style="fill:#b4a69d; stroke:none;" d="M228 710L229 710L229 551L388 551L388 710L389 710L389 550L269 550L240 550L229.028 551.603L228 563L228 593L228 710z"/>
<path style="fill:#3b3b3b; stroke:none;" d="M229 551L229 710L388 710L388 551L229 551z"/>
<path style="fill:#b4a69d; stroke:none;" d="M281 565L280 567L281 565z"/>
<path style="fill:#f6f6f5; stroke:none;" d="M282.314 566.137C278.296 568.29 281.481 575.303 285.686 572.914C289.652 570.659 286.491 563.898 282.314 566.137z"/>
<path style="fill:#b4a69d; stroke:none;" d="M285 565L286 566L285 565M287 566L288 567L287 566M279 568L279 572L280 572L279 568M288 568L288 571L289 571L288 568M280 572L281 573L280 572M287 572L288 573L287 572M281 573L282 574L281 573M286 573L287 574L286 573z"/>
<path style="fill:#f6f6f5; stroke:none;" d="M289 577L289 578C291.751 580.913 294.655 583.305 292 587L292 588L301 585C298.705 580.079 294.735 574.824 289 577z"/>
<path style="fill:#b4a69d; stroke:none;" d="M289 578L290 579L289 578M290 579L291 580L290 579M291 580L292 581L291 580M292 581L293 582L292 581M293 582L294 583L293 582M294.333 583.667L294.667 584.333L294.333 583.667M301 584L302 585L301 584M299 585L300 586L299 585M293 586L294 587L293 586M298 586L299 587L298 586M291 587L292 588L291 587M292 588L293 589L292 588M295 588L296 589L295 588z"/>
<path style="fill:#fc9b5b; stroke:none;" d="M939 591L940 592L939 591z"/>
<path style="fill:#f6f6f5; stroke:none;" d="M940.015 591.743C928.837 596.092 936.603 611.064 946.985 607.103C958.304 602.783 950.644 587.609 940.015 591.743z"/>
<path style="fill:#fc9b5b; stroke:none;" d="M947 591L948 592L947 591M937 592L938 593L937 592M949 592L950 593L949 592z"/>
<path style="fill:#b4a69d; stroke:none;" d="M258 593L259 594L258 593z"/>
<path style="fill:#f6f6f5; stroke:none;" d="M265 639C265 621.017 271.686 621 288 621C288 616.34 286.742 609.467 288.742 605.163C290.109 602.221 293.422 602.664 296.001 601.498C307.9 596.117 318.321 604.469 330 609C330 605.135 331.416 597.698 328.397 594.742C325.405 591.814 318.799 593 315 593L281 593C275.58 593 260.642 590.403 257.179 595.434C252.744 601.877 256 619.308 256 627C256 629.918 255.317 634.116 257.028 636.682C258.764 639.287 262.267 638.968 265 639z"/>
<path style="fill:#b4a69d; stroke:none;" d="M327 593L328 594L327 593z"/>
<path style="fill:#fc9b5b; stroke:none;" d="M936 593L937 594L936 593z"/>
<path style="fill:#b4a69d; stroke:none;" d="M329 594L330 595L329 594z"/>
<path style="fill:#fc9b5b; stroke:none;" d="M935 594L936 595L935 594M951 594L952 595L951 594z"/>
<path style="fill:#b4a69d; stroke:none;" d="M256 595L257 596L256 595z"/>
<path style="fill:#fc9b5b; stroke:none;" d="M786 595L787 596L786 595z"/>
<path style="fill:#f6f6f5; stroke:none;" d="M786 668L801 668L801 595L787.028 596.603L786 616L786 668z"/>
<path style="fill:#fc9b5b; stroke:none;" d="M801 595L801 668L786 668L786 669L802 669L802 618L801 595M952 595L953 596L952 595z"/>
<path style="fill:#b4a69d; stroke:none;" d="M330 596L329 610C332.259 607.152 331.58 599.766 330 596z"/>
<path style="fill:#fc9b5b; stroke:none;" d="M934 596L935 597L934 596z"/>
<path style="fill:#b4a69d; stroke:none;" d="M270 597L270 598L279 598L270 597M302.667 597.333L303.333 597.667L302.667 597.333M268 598L266 601L268 598z"/>
<path style="fill:#3b3b3b; stroke:none;" d="M269.109 599.028C258.541 604.976 269.246 620.964 279.891 614.972C290.573 608.959 279.787 593.017 269.109 599.028z"/>
<path style="fill:#b4a69d; stroke:none;" d="M280 598L281 599L280 598M300 598L301 599L300 598M305 598L306 599L305 598z"/>
<path style="fill:#fc9b5b; stroke:none;" d="M737 598L737 599L741 599L737 598z"/>
<path style="fill:#f6f6f5; stroke:none;" d="M772 633L758 633C758 638.218 759.943 648.362 756.397 652.581C743.572 667.836 721.785 645.116 723.104 631C724.352 617.641 738.552 609.652 751 612.529C755.114 613.48 758.931 617.741 763 617.898C766.543 618.035 772.7 612.942 771.654 609.093C769.228 600.163 749.404 597.492 742 598.289C720.683 600.585 706.042 614.988 707.039 637C708.061 659.535 728.622 670.478 749 669.082C755.733 668.62 765.81 667.304 770.397 661.61C774.958 655.946 772 640.049 772 633z"/>
<path style="fill:#fc9b5b; stroke:none;" d="M748 598L748 599L753 599L748 598z"/>
<path style="fill:#b4a69d; stroke:none;" d="M281 599L282 600L281 599M299 599L300 600L299 599M307 599L308 600L307 599z"/>
<path style="fill:#fc9b5b; stroke:none;" d="M436 599L436 669L474 669L474 668L437 668L437 600L475 600C464.726 595.689 447.172 599 436 599M732.667 599.333L733.333 599.667L732.667 599.333M755.667 599.333L756.333 599.667L755.667 599.333z"/>
<path style="fill:#b4a69d; stroke:none;" d="M282 600L283 601L282 600M297 600L298 601L297 600M309 600L310 601L309 600z"/>
<path style="fill:#f6f6f5; stroke:none;" d="M437 600L437 668C454.312 668 476.803 671.932 491.999 661.892C513.056 647.98 509.178 613.638 487 603.324C472.574 596.616 452.558 600 437 600z"/>
<path style="fill:#fc9b5b; stroke:none;" d="M478.667 600.333L479.333 600.667L478.667 600.333M729.667 600.333L730.333 600.667L729.667 600.333M759 600L760 601L759 600z"/>
<path style="fill:#b4a69d; stroke:none;" d="M296 601L297 602L296 601M312 601L313 602L312 601z"/>
<path style="fill:#fc9b5b; stroke:none;" d="M482 601L483 602L482 601M727 601L728 602L727 601M761.667 601.333L762.333 601.667L761.667 601.333z"/>
<path style="fill:#b4a69d; stroke:none;" d="M265 602L266 603L265 602M271 602L271 603L278 603L271 602M283 602L284 603L283 602M289 602L289 603L293 603L289 602M295 602L296 603L295 602M314 602L315 603L314 602z"/>
<path style="fill:#fc9b5b; stroke:none;" d="M485 602L486 603L485 602M725 602L726 603L725 602M764 602L765 603L764 602M934 602L935 603L934 602M952 602L953 603L952 602z"/>
<path style="fill:#f6f6f5; stroke:none;" d="M270 603C270.116 612.815 278.884 612.815 279 603L270 603z"/>
<path style="fill:#b4a69d; stroke:none;" d="M301 603L299 606L301 603z"/>
<path style="fill:#f6f6f5; stroke:none;" d="M300 606L329 617C325.796 610.837 305.65 600.642 300 606z"/>
<path style="fill:#b4a69d; stroke:none;" d="M304 603L305 604L304 603M316 603L317 604L316 603M360.667 603.333L361.333 603.667L360.667 603.333z"/>
<path style="fill:#f6f6f5; stroke:none;" d="M336 617L366 606C359.863 600.132 340.455 611.324 336 617z"/>
<path style="fill:#fc9b5b; stroke:none;" d="M487 603L488 604L487 603M580 603L580 604L595 604L595 617L608 617L608 628L595 628L595 653L596 653L596 629L609 629L609 616L596 616C596 602.719 592.419 603 580 603M723 603L724 604L723 603M765 603L766 604L765 603z"/>
<path style="fill:#b4a69d; stroke:none;" d="M288 604L288 621L289 621L288 604M306.667 604.333L307.333 604.667L306.667 604.333M318.667 604.333L319.333 604.667L318.667 604.333M358 604L359 605L358 604M365 604L366 605L365 604z"/>
<path style="fill:#fc9b5b; stroke:none;" d="M489 604L490 605L489 604z"/>
<path style="fill:#f6f6f5; stroke:none;" d="M580 604L580 617L572 617L572 628L580 628C580 646.328 576.494 670.198 602 668.96C605.712 668.78 608.744 667.707 612 666L608 656C590.828 659.175 595 639.587 595 628L608 628L608 617L595 617L595 604L580 604z"/>
<path style="fill:#fc9b5b; stroke:none;" d="M722 604L723 605L722 604M767 604L768 605L767 604M935 604L936 605L935 604M951 604L952 605L951 604z"/>
<path style="fill:#b4a69d; stroke:none;" d="M309 605L310 606L309 605M321 605L322 606L321 605M356 605L357 606L356 605M366 605L367 606L366 605z"/>
<path style="fill:#fc9b5b; stroke:none;" d="M491 605L492 606L491 605M720 605L721 606L720 605M768 605L769 606L768 605M936 605L937 606L936 605M950 605L951 606L950 605z"/>
<path style="fill:#b4a69d; stroke:none;" d="M301 606L302 607L301 606M311 606L312 607L311 606M323 606L324 607L323 606M353.667 606.333L354.333 606.667L353.667 606.333M364 606L365 607L364 606z"/>
<path style="fill:#fc9b5b; stroke:none;" d="M492 606L493 607L492 606M719 606L720 607L719 606M937 606L938 607L937 606M949 606L950 607L949 606z"/>
<path style="fill:#b4a69d; stroke:none;" d="M303 607L304 608L303 607M313.667 607.333L314.333 607.667L313.667 607.333M325.667 607.333L326.333 607.667L325.667 607.333M351 607L352 608L351 607M362 607L363 608L362 607z"/>
<path style="fill:#fc9b5b; stroke:none;" d="M939.667 607.333L940.333 607.667L939.667 607.333M946.667 607.333L947.333 607.667L946.667 607.333z"/>
<path style="fill:#b4a69d; stroke:none;" d="M293.667 608.333L294.333 608.667L293.667 608.333M305 608L306 609L305 608M316 608L317 609L316 608M328 608L329 609L328 608M349 608L350 609L349 608M359 608L360 609L359 608M371 608C374.253 617.759 372 632.281 372 643C372 647.211 373.279 654.82 370 654L373 657L373 621L371 608z"/>
<path style="fill:#fc9b5b; stroke:none;" d="M772 608L773 609L772 608z"/>
<path style="fill:#f6f6f5; stroke:none;" d="M293 609C295.55 619.712 294 632.024 294 643C294 647.066 292.686 654.039 295.028 657.582C299.24 663.952 316.013 668.095 323 671L323 636C323 632.097 324.354 624.984 321.972 621.649C317.899 615.947 299.757 610.205 293 609z"/>
<path style="fill:#b4a69d; stroke:none;" d="M296 609L297 610L296 609M308 609L309 610L308 609M318 609L319 610L318 609M346.667 609.333L347.333 609.667L346.667 609.333M357 609L358 610L357 609M369 609L370 610L369 609z"/>
<path style="fill:#f6f6f5; stroke:none;" d="M342 622L343 670L359 664C357.379 658.914 353.19 655.056 351.721 650C350.301 645.112 354.93 639.917 359.961 642.223C365.183 644.617 367.655 651.412 372 655L372 609L342 622z"/>
<path style="fill:#fc9b5b; stroke:none;" d="M496 609L497 610L496 609M773.333 609.667L773.667 610.333L773.333 609.667z"/>
<path style="fill:#b4a69d; stroke:none;" d="M249 610L250 611L249 610z"/>
<path style="fill:#f6f6f5; stroke:none;" d="M250 610C243.804 615.106 243.094 623.189 251 627L250 610z"/>
<path style="fill:#b4a69d; stroke:none;" d="M265.333 610.667L265.667 611.333L265.333 610.667M270 610L271 611L270 610M278 610L279 611L278 610M293 610L293 658L294 658C294 644.474 298.209 622.414 293 610M298 610L299 611L298 610M310 610L311 611L310 610M320.667 610.333L321.333 610.667L320.667 610.333M344 610L345 611L344 610M355 610L356 611L355 610M367 610L368 611L367 610z"/>
<path style="fill:#fc9b5b; stroke:none;" d="M497 610L498 611L497 610z"/>
<path style="fill:#b4a69d; stroke:none;" d="M247 611L248 612L247 611M271 611L271 612L278 612L271 611M283 611L284 612L283 611M300 611L301 612L300 611M312 611L313 612L312 611M323 611L324 612L323 611M342 611L343 612L342 611M352.667 611.333L353.333 611.667L352.667 611.333M364.667 611.333L365.333 611.667L364.667 611.333z"/>
<path style="fill:#fc9b5b; stroke:none;" d="M714 611L715 612L714 611M772 611L773 612L772 611z"/>
<path style="fill:#b4a69d; stroke:none;" d="M246 612L247 613L246 612M302.667 612.333L303.333 612.667L302.667 612.333M314.667 612.333L315.333 612.667L314.667 612.333M325 612L326 613L325 612M340 612L341 613L340 612M350 612L351 613L350 612M362 612L363 613L362 612z"/>
<path style="fill:#fc9b5b; stroke:none;" d="M469 656L469 655L453 655L453 613L470 613C449.91 604.57 452 623.54 452 637C452 641.32 450.221 650.852 453.028 654.397C455.664 657.725 465.169 656 469 656M713 612L714 613L713 612M739.667 612.333L740.333 612.667L739.667 612.333M749 612L749 613L752 613L749 612M771 612L772 613L771 612z"/>
<path style="fill:#b4a69d; stroke:none;" d="M266 613L267 614L266 613M282 613L283 614L282 613M305 613L306 614L305 613M317 613L318 614L317 613M338 613L339 614L338 613M348 613L349 614L348 613M360 613L361 614L360 613z"/>
<path style="fill:#fe6701; stroke:none;" d="M453 613L453 655C461.958 655 473.225 656.796 480.996 651.348C492.834 643.049 491.963 622.252 479 615.442C471.407 611.453 461.279 613 453 613z"/>
<path style="fill:#fc9b5b; stroke:none;" d="M473 613L473 614L476 614L473 613M499 613L500 614L499 613M736 613L737 614L736 613M753.667 613.333L754.333 613.667L753.667 613.333z"/>
<path style="fill:#b4a69d; stroke:none;" d="M267 614L268 615L267 614M281 614L282 615L281 614M307 614L308 615L307 614M319 614L320 615L319 614M337 614L338 615L337 614M345.667 614.333L346.333 614.667L345.667 614.333M357.667 614.333L358.333 614.667L357.667 614.333z"/>
<path style="fill:#fc9b5b; stroke:none;" d="M477 614L478 615L477 614M500 614L501 615L500 614M534 614L534 615L543 615L534 614M638 614L638 615L647 615L638 614M734 614L735 615L734 614M756 614L757 615L756 614M832 614L832 615L842 615L832 614M899 614L899 615L907 615L899 614M986 614L986 615L994 615L986 614M1057 614L1057 615L1061 615L1057 614z"/>
<path style="fill:#b4a69d; stroke:none;" d="M268 615L269 616L268 615M280 615L281 616L280 615M309.667 615.333L310.333 615.667L309.667 615.333M321.667 615.333L322.333 615.667L321.667 615.333M343 615L344 616L343 615M355 615L356 616L355 615z"/>
<path style="fill:#fc9b5b; stroke:none;" d="M479 615L480 616L479 615M528.667 615.333L529.333 615.667L528.667 615.333z"/>
<path style="fill:#f6f6f5; stroke:none;" d="M521 631C527.449 628.85 534.011 625.433 540.996 627.653C543.851 628.56 550.819 633.709 546.577 636.972C537.537 643.927 521.289 631.908 515.009 647.015C505.77 669.24 537.962 673.387 550 662L550 668L564 668C564 653.859 568.8 629.319 555.985 619.558C545.359 611.465 509.221 611.73 521 631z"/>
<path style="fill:#fc9b5b; stroke:none;" d="M546 615L546 616L549 616L546 615M632.667 615.333L633.333 615.667L632.667 615.333z"/>
<path style="fill:#f6f6f5; stroke:none;" d="M625 631C635.882 627.373 648.091 622.991 653 637C643.102 639.357 630.496 635.075 622.214 642.533C614.165 649.782 618.028 662.825 627 667.08C636.469 671.571 646.765 668.844 654 662L654 668L668 668C668 653.859 672.8 629.319 659.985 619.558C649.641 611.68 612.421 611.904 625 631z"/>
<path style="fill:#fc9b5b; stroke:none;" d="M650.667 615.333L651.333 615.667L650.667 615.333M711 615L712 616L711 615M732 615L733 616L732 615M758 615L759 616L758 615M827.667 615.333L828.333 615.667L827.667 615.333z"/>
<path style="fill:#f6f6f5; stroke:none;" d="M815 620L819 631C830.306 627.774 842.626 622.586 848 637C838.195 639.334 825.34 634.916 817.214 642.394C809.274 649.7 812.755 663.024 822 667.196C831.622 671.538 840.822 668.318 849 663L849 668L863 668C863 649.576 868.759 617.974 843 615.174C839.13 614.753 834.871 614.758 831 615.174C825.43 615.772 820.177 618.003 815 620z"/>
<path style="fill:#fc9b5b; stroke:none;" d="M845.667 615.333L846.333 615.667L845.667 615.333M894.667 615.333L895.333 615.667L894.667 615.333z"/>
<path style="fill:#f6f6f5; stroke:none;" d="M927 656L914 650C901.871 666.287 880.162 645.86 893.133 632.055C902.601 621.979 906.554 632.103 916 632.902C919.577 633.205 924.042 629.728 927 628C911.829 601.771 871.711 616.963 874.093 646C876.233 672.071 914.948 676.836 927 656z"/>
<path style="fill:#fc9b5b; stroke:none;" d="M910.667 615.333L911.333 615.667L910.667 615.333M936.603 616.028C933.522 618.468 935 626.524 935 630C935 640.69 932.278 655.614 935.318 665.852C936.581 670.106 947.354 670.382 950.397 667.972C953.478 665.532 952 657.476 952 654C952 643.31 954.722 628.386 951.682 618.148C950.419 613.894 939.646 613.618 936.603 616.028M981.667 615.333L982.333 615.667L981.667 615.333z"/>
<path style="fill:#f6f6f5; stroke:none;" d="M1006 652L1005 652C995.177 659.922 982.285 657.983 977 646L1017 646C1017 640.094 1017.28 634.475 1014.67 629C997.105 592.055 938.666 633.449 970.093 661.671C977.648 668.456 989.234 670.297 999 668.535C1010.8 666.407 1014.87 660.977 1006 652z"/>
<path style="fill:#fc9b5b; stroke:none;" d="M997.667 615.333L998.333 615.667L997.667 615.333M1028 615L1028 616L1043 616L1028 615M1052.67 615.333L1053.33 615.667L1052.67 615.333z"/>
<path style="fill:#f6f6f5; stroke:none;" d="M1042 622L1043 616L1028 616L1028 668L1043 668C1043 653.375 1038.61 626.624 1061 629L1061 615C1053.24 615.065 1048.28 617.722 1042 622z"/>
<path style="fill:#b4a69d; stroke:none;" d="M244 616L244 622L245 622L244 616M271 616L271 617L278 617L271 616M312 616L313 617L312 616M324 616L325 617L324 616M329 616L330 617L329 616M341 616L342 617L341 616M353 616L354 617L353 616z"/>
<path style="fill:#fc9b5b; stroke:none;" d="M481 616L482 617L481 616M501 616L502 617L501 616M524.667 616.333L525.333 616.667L524.667 616.333M550 616L551 617L550 616M572 616L572 617L580 617L572 616M628.667 616.333L629.333 616.667L628.667 616.333M654 616L655 617L654 616M759 616L760 617L759 616M823.667 616.333L824.333 616.667L823.667 616.333M849 616L850 617L849 616M891 616L892 617L891 616M914 616L915 617L914 616z"/>
<path style="fill:#f6f6f5; stroke:none;" d="M936 616L936 668L951 668L951 616L936 616z"/>
<path style="fill:#fc9b5b; stroke:none;" d="M978.667 616.333L979.333 616.667L978.667 616.333M1000.67 616.333L1001.33 616.667L1000.67 616.333M1050 616L1051 617L1050 616z"/>
<path style="fill:#b4a69d; stroke:none;" d="M314 617L315 618L314 617M351 617L352 618L351 617z"/>
<path style="fill:#fc9b5b; stroke:none;" d="M482 617L483 618L482 617M502 617L503 618L502 617M521.667 617.333L522.333 617.667L521.667 617.333M553 617L554 618L553 617M571 617L571 628L572 628L571 617M625.667 617.333L626.333 617.667L625.667 617.333M657 617L658 618L657 617M710 617L711 618L710 617M729 617L730 618L729 617M765 617L766 618L765 617M820.667 617.333L821.333 617.667L820.667 617.333M851 617L852 618L851 617M888 617L889 618L888 617M916 617L917 618L916 617M976 617L977 618L976 617M1003 617L1004 618L1003 617M1042.33 617.667L1042.67 618.333L1042.33 617.667M1048 617L1049 618L1048 617z"/>
<path style="fill:#b4a69d; stroke:none;" d="M316.667 618.333L317.333 618.667L316.667 618.333M348 618L349 619L348 618z"/>
<path style="fill:#fc9b5b; stroke:none;" d="M483 618L484 619L483 618M519 618L520 619L519 618M554 618L555 619L554 618M623 618L624 619L623 618M658 618L659 619L658 618M728 618L729 619L728 618M764 618L765 619L764 618M818 618L819 619L818 618M853 618L854 619L853 618M918 618L919 619L918 618M974 618L975 619L974 618M1005 618L1006 619L1005 618M1046 618L1047 619L1046 618z"/>
<path style="fill:#b4a69d; stroke:none;" d="M319 619L320 620L319 619M346 619L347 620L346 619z"/>
<path style="fill:#fc9b5b; stroke:none;" d="M484 619L485 620L484 619M503.333 619.667L503.667 620.333L503.333 619.667M517 619L518 620L517 619M556 619L557 620L556 619M621 619L622 620L621 619M660 619L661 620L660 619M709 619L710 620L709 619M763 619L764 620L763 619M816 619L817 620L816 619M885 619L886 620L885 619M1006 619L1007 620L1006 619M1045 619L1046 620L1045 619z"/>
<path style="fill:#b4a69d; stroke:none;" d="M321 620L322 621L321 620M344 620L345 621L344 620z"/>
<path style="fill:#fc9b5b; stroke:none;" d="M485 620L486 621L485 620M516 620L517 621L516 620M557 620L558 621L557 620M620 620L621 621L620 620M661 620L662 621L661 620M856 620L857 621L856 620M921 620L922 621L921 620M971 620L972 621L971 620M1042 620L1042 622L1044 622L1042 620z"/>
<path style="fill:#b4a69d; stroke:none;" d="M269 621L270 622L269 621M323 621L323 671L324 671C324 656.951 328.409 633.89 323 621M342 621L343 622L342 621z"/>
<path style="fill:#fc9b5b; stroke:none;" d="M486 621L487 622L486 621M515 621L516 622L515 621M558 621L559 622L558 621M619 621L620 622L619 621M662 621L663 622L662 621M708.333 621.667L708.667 622.333L708.333 621.667M726 621L727 622L726 621M814 621L815 622L814 621M857 621L858 622L857 621M882 621L883 622L882 621M922 621L923 622L922 621M970 621L971 622L970 621M1009 621L1010 622L1009 621z"/>
<path style="fill:#b4a69d; stroke:none;" d="M267 622L268 623L267 622M328 622L328 672L329 672C329 657.951 333.409 634.89 328 622z"/>
<path style="fill:#f6f6f5; stroke:none;" d="M329 622L329 672L337 672L337 622L329 622z"/>
<path style="fill:#b4a69d; stroke:none;" d="M337 622L337 672L338 672C338 657.951 342.409 634.89 337 622z"/>
<path style="fill:#fc9b5b; stroke:none;" d="M504.333 622.667L504.667 623.333L504.333 622.667M559 622L560 623L559 622M663 622L664 623L663 622M725 622L726 623L725 622M858 622L859 623L858 622M881 622L882 623L881 622M923 622L924 623L923 622M969 622L970 623L969 622M1010 622L1011 623L1010 622z"/>
<path style="fill:#b4a69d; stroke:none;" d="M245 623L246 624L245 623M266 623L267 624L266 623M342 623L342 658L344 671L342 623z"/>
<path style="fill:#fc9b5b; stroke:none;" d="M487 623L488 624L487 623M516 623L517 624L516 623M620 623L621 624L620 623M815 623L816 624L815 623M880 623L881 624L880 623M924 623L925 624L924 623M968 623L969 624L968 623z"/>
<path style="fill:#b4a69d; stroke:none;" d="M246 624L247 625L246 624z"/>
<path style="fill:#fc9b5b; stroke:none;" d="M707 624L707 627L708 627L707 624M859 624L860 625L859 624M879 624L880 625L879 624M967 624L968 625L967 624z"/>
<path style="fill:#b4a69d; stroke:none;" d="M247 625L248 626L247 625M265.333 625.667L265.667 626.333L265.333 625.667M272 625L272 626L288 626L288 630C290.376 622.751 276.212 625 272 625z"/>
<path style="fill:#fc9b5b; stroke:none;" d="M488.333 625.667L488.667 626.333L488.333 625.667M517 625L518 626L517 625M561 625L562 626L561 625M621 625L622 626L621 625M665 625L666 626L665 625M724 625L725 626L724 625M816 625L817 626L816 625M860.333 625.667L860.667 626.333L860.333 625.667M925 625L926 626L925 625z"/>
<path style="fill:#b4a69d; stroke:none;" d="M248 626L249 627L248 626M270 626L271 627L270 626z"/>
<path style="fill:#f6f6f5; stroke:none;" d="M270 630L288 630L288 626C282.487 626 272.097 623.683 270 630z"/>
<path style="fill:#fc9b5b; stroke:none;" d="M505 626L505 629L506 629L505 626M518.333 626.667L518.667 627.333L518.333 626.667M986 626L986 627L994 627L986 626M1013 626L1014 627L1013 626z"/>
<path style="fill:#b4a69d; stroke:none;" d="M250 627L251 628L250 627z"/>
<path style="fill:#fc9b5b; stroke:none;" d="M530.667 627.333L531.333 627.667L530.667 627.333M540.667 627.333L541.333 627.667L540.667 627.333M562.333 627.667L562.667 628.333L562.333 627.667M622 627L623 628L622 627M634.667 627.333L635.333 627.667L634.667 627.333M644.667 627.333L645.333 627.667L644.667 627.333M666.333 627.667L666.667 628.333L666.333 627.667M723 627L723 630L724 630L723 627M817 627L818 628L817 627M829.667 627.333L830.333 627.667L829.667 627.333M839.667 627.333L840.333 627.667L839.667 627.333M877 627L878 628L877 627M899 627L899 628L907 628L899 627M965 627L966 628L965 627M984 627L985 628L984 627z"/>
<path style="fill:#fe6701; stroke:none;" d="M977 637L1003 637C998.081 623.805 981.919 623.805 977 637z"/>
<path style="fill:#fc9b5b; stroke:none;" d="M995 627L996 628L995 627M519 628L520 629L519 628M527 628L528 629L527 628M543 628L544 629L543 628M572 628L572 629L580 629L572 628M623.333 628.667L623.667 629.333L623.333 628.667M631 628L632 629L631 628M647 628L648 629L647 628M825.667 628.333L826.333 628.667L825.667 628.333M842 628L843 629L842 628M861 628L862 629L861 628M896.667 628.333L897.333 628.667L896.667 628.333M908 628L909 629L908 628M926 628L927 629L926 628M982 628L983 629L982 628M997 628L998 629L997 628M1014 628L1015 629L1014 628M1056 628L1056 629L1059 629L1056 628M489 629L489 639L490 639L489 629M524 629L525 630L524 629M545 629L546 630L545 629M628 629L629 630L628 629M649 629L650 630L649 629M818 629L819 630L818 629M823 629L824 630L823 629M844 629L845 630L844 629M876 629L877 630L876 629M895 629L896 630L895 629M910 629L911 630L910 629M924 629L925 630L924 629M964 629L965 630L964 629M1051.67 629.333L1052.33 629.667L1051.67 629.333M520 630L521 631L520 630M546 630L547 631L546 630M563 630L563 633L564 633L563 630M624 630L625 631L624 630M650 630L651 631L650 630M706 630L706 638L707 638L706 630M821 630L822 631L821 630M911 630L912 631L911 630M922 630L923 631L922 630M1015 630L1016 631L1015 630M1049 630L1050 631L1049 630M521 631L522 632L521 631M625 631L626 632L625 631M667.333 631.667L667.667 632.333L667.333 631.667M819.667 631.333L820.333 631.667L819.667 631.333M862 631L862 634L863 634L862 631M875 631L876 632L875 631M912 631L913 632L912 631M920 631L921 632L920 631M963 631L964 632L963 631M979 631L980 632L979 631M1000 631L1001 632L1000 631M1048 631L1049 632L1048 631M547 632L548 633L547 632M651 632L652 633L651 632M771 632L772 633L771 632M846 632L847 633L846 632M913 632L914 633L913 632M918 632L919 633L918 632M978 632L979 633L978 632M1001 632L1002 633L1001 632M1016.33 632.667L1016.67 633.333L1016.33 632.667M757 633L757 653L758 653L757 633M772 633L772 661L773 661L772 633M874.333 633.667L874.667 634.333L874.333 633.667M891 633L892 634L891 633M914 633L915 634L914 633M917 633L918 634L917 633M548 634L548 637L549 637L548 634M890.333 634.667L890.667 635.333L890.333 634.667M915 634L916 635L915 634M962.333 634.667L962.667 635.333L962.333 634.667M977.333 634.667L977.667 635.333L977.333 634.667M1002.33 634.667L1002.67 635.333L1002.33 634.667M1045 634L1046 635L1045 634z"/>
<path style="fill:#f6f6f5; stroke:none;" d="M270 635L270 639L288 639L288 635L270 635z"/>
<path style="fill:#b4a69d; stroke:none;" d="M288 635L288 639L270 639L270 640L289 640L288 635z"/>
<path style="fill:#fc9b5b; stroke:none;" d="M652.333 635.667L652.667 636.333L652.333 635.667M847.333 635.667L847.667 636.333L847.333 635.667M1017 636L1017 646L1018 646L1017 636M1044 636L1045 637L1044 636z"/>
<path style="fill:#b4a69d; stroke:none;" d="M256 637L257 638L256 637z"/>
<path style="fill:#fc9b5b; stroke:none;" d="M529 637L529 638L548 638L529 637M633 637L633 638L652 638L633 637M828 637L828 638L847 638L828 637M873 637L873 647L874 647L873 637M889 637L889 640L890 640L889 637M978 637L978 638L1003 638L978 637z"/>
<path style="fill:#b4a69d; stroke:none;" d="M257 638L258 639L257 638z"/>
<path style="fill:#fc9b5b; stroke:none;" d="M525.667 638.333L526.333 638.667L525.667 638.333M629.667 638.333L630.333 638.667L629.667 638.333M723.333 638.667L723.667 639.333L723.333 638.667M824 638L825 639L824 638M961 638L961 645L962 645L961 638z"/>
<path style="fill:#b4a69d; stroke:none;" d="M259 639L259 640L265 640L259 639z"/>
<path style="fill:#fc9b5b; stroke:none;" d="M505 639L505 642L506 642L505 639M522 639L523 640L522 639M626 639L627 640L626 639M821 639L822 640L821 639M1043 639L1043 668L1028 668L1028 669L1044 669L1043 639M520 640L521 641L520 640M624 640L625 641L624 640M819 640L820 641L819 640z"/>
<path style="fill:#b4a69d; stroke:none;" d="M355.667 641.333L356.333 641.667L355.667 641.333M358.667 641.333L359.333 641.667L358.667 641.333z"/>
<path style="fill:#fc9b5b; stroke:none;" d="M488.333 641.667L488.667 642.333L488.333 641.667M519 641L520 642L519 641M623 641L624 642L623 641M707 641L707 644L708 644L707 641z"/>
<path style="fill:#b4a69d; stroke:none;" d="M353 642L354 643L353 642M361 642L362 643L361 642z"/>
<path style="fill:#fc9b5b; stroke:none;" d="M724 642L725 643L724 642z"/>
<path style="fill:#b4a69d; stroke:none;" d="M352 643L353 644L352 643M362 643L363 644L362 643M280 649L281 649L280 645L288 645L288 658L289 658L289 644C284.591 644.003 279.115 643.206 280 649M351 644L352 645L351 644M363 644L364 645L363 644z"/>
<path style="fill:#fc9b5b; stroke:none;" d="M487 644L488 645L487 644M504.333 644.667L504.667 645.333L504.333 644.667M725 644L726 645L725 644M889 644L889 647L890 647L889 644z"/>
<path style="fill:#f6f6f5; stroke:none;" d="M280 645C281.096 648.803 284.243 651.479 280 654L280 658L288 658L288 645L280 645z"/>
<path style="fill:#fc9b5b; stroke:none;" d="M515 645L516 646L515 645M619 645L620 646L619 645M708.333 645.667L708.667 646.333L708.333 645.667M814 645L815 646L814 645z"/>
<path style="fill:#f6f6f5; stroke:none;" d="M356 646C357.459 653.542 363.775 664.375 372 665C368.238 658.397 362.987 649.329 356 646z"/>
<path style="fill:#b4a69d; stroke:none;" d="M358 646L359 647L358 646z"/>
<path style="fill:#fc9b5b; stroke:none;" d="M534 646L534 647L548 647L548 652L549 652L549 646L534 646M638 646L638 647L652 647L652 652L653 652L653 646L638 646M726 646L727 647L726 646M833 646L833 647L847 647L847 652C850.019 644.053 837.651 646 833 646M977 648L1017 647L987 646L977 648z"/>
<path style="fill:#b4a69d; stroke:none;" d="M355.333 647.667L355.667 648.333L355.333 647.667M359 647L360 648L359 647M365 647L366 648L365 647z"/>
<path style="fill:#fc9b5b; stroke:none;" d="M485 647L486 648L485 647M503 647L504 648L503 647M514 647L515 648L514 647M531 647L529 650L531 647z"/>
<path style="fill:#fe6701; stroke:none;" d="M548 647L539 647.001C518.375 647.143 538.662 668.312 546.821 653.893C548.015 651.782 547.943 649.339 548 647z"/>
<path style="fill:#fc9b5b; stroke:none;" d="M618 647L619 648L618 647M635 647L633 650L635 647z"/>
<path style="fill:#fe6701; stroke:none;" d="M652 647L643 647.001C622.375 647.143 642.662 668.312 650.821 653.893C652.015 651.782 651.943 649.339 652 647z"/>
<path style="fill:#fc9b5b; stroke:none;" d="M813 647L814 648L813 647M830 647L831 648L830 647z"/>
<path style="fill:#fe6701; stroke:none;" d="M847 647L838 647.001C817.101 647.111 837.732 668.188 845.821 653.893C847.015 651.782 846.943 649.339 847 647z"/>
<path style="fill:#b4a69d; stroke:none;" d="M360 648L361 649L360 648M366 648L367 649L366 648z"/>
<path style="fill:#fc9b5b; stroke:none;" d="M484 648L485 649L484 648M709 648L710 649L709 648M890 648L891 649L890 648M962.333 648.667L962.667 649.333L962.333 648.667z"/>
<path style="fill:#b4a69d; stroke:none;" d="M356 649L357 650L356 649z"/>
<path style="fill:#fc9b5b; stroke:none;" d="M483 649L484 650L483 649M502.333 649.667L502.667 650.333L502.333 649.667M812 649L812 657L813 657L812 649M828 649L829 650L828 649M874.333 649.667L874.667 650.333L874.333 649.667M915 649L916 650L915 649M978 649L979 650L978 649z"/>
<path style="fill:#b4a69d; stroke:none;" d="M351 650L352 651L351 650M367 650L368 651L367 650z"/>
<path style="fill:#fc9b5b; stroke:none;" d="M482 650L483 651L482 650M513 650L513 656L514 656L513 650M617 650L617 657L618 657L617 650M710 650L711 651L710 650M891 650L892 651L891 650M917 650L918 651L917 650z"/>
<path style="fill:#b4a69d; stroke:none;" d="M357 651L358 652L357 651M362 651L363 652L362 651M368 651L369 652L368 651z"/>
<path style="fill:#fc9b5b; stroke:none;" d="M481 651L482 652L481 651M501 651L502 652L501 651M528 651L528 654L529 654L528 651M632 651L632 654L633 654L632 651M827 651L827 654L828 654L827 651M913 651L914 652L913 651M979 651L980 652L979 651z"/>
<path style="fill:#b4a69d; stroke:none;" d="M283 652L284 653L283 652M352 652L353 653L352 652M358 652L359 653L358 652M363 652L364 653L363 652z"/>
<path style="fill:#fc9b5b; stroke:none;" d="M479 652L480 653L479 652M711 652L712 653L711 652M732 652L733 653L732 652M875 652L876 653L875 652M912 652L913 653L912 652M920 652L921 653L920 652M963 652L964 653L963 652M980 652L981 653L980 652M1006 652L1007 653L1006 652z"/>
<path style="fill:#b4a69d; stroke:none;" d="M281.667 653.333L282.333 653.667L281.667 653.333M353 653L354 654L353 653z"/>
<path style="fill:#fc9b5b; stroke:none;" d="M477 653L478 654L477 653M500 653L501 654L500 653M547 653L548 654L547 653M651 653L652 654L651 653M734 653L735 654L734 653M756 653L757 654L756 653M846 653L847 654L846 653M911 653L912 654L911 653M922 653L923 654L922 653M981 653L982 654L981 653M1003 653L1004 654L1003 653M1007 653L1008 654L1007 653z"/>
<path style="fill:#b4a69d; stroke:none;" d="M359 654L360 655L359 654M364 654L365 655L364 654z"/>
<path style="fill:#fc9b5b; stroke:none;" d="M473.667 654.333L474.333 654.667L473.667 654.333M499 654L500 655L499 654M596 654L597 655L596 654M736 654L737 655L736 654M754 654L755 655L754 654M876 654L877 655L876 654M895 654L896 655L895 654M910 654L911 655L910 654M924 654L925 655L924 654M964 654L965 655L964 654M1002 654L1003 655L1002 654M1008 654L1009 655L1008 654z"/>
<path style="fill:#b4a69d; stroke:none;" d="M279.333 655.667L279.667 656.333L279.333 655.667M354 655L355 656L354 655M360 655L361 656L360 655M365 655L366 656L365 655z"/>
<path style="fill:#fc9b5b; stroke:none;" d="M529 655L530 656L529 655M580 655L580 658L581 658L580 655M597 655L598 656L597 655M607 655L609 657L609 655L607 655M633 655L634 656L633 655M713 655L714 656L713 655M739.667 655.333L740.333 655.667L739.667 655.333M749 655L749 656L752 656L749 655M828 655L829 656L828 655M897 655L898 656L897 655M908 655L909 656L908 655M926 655L927 656L926 655M984.667 655.333L985.333 655.667L984.667 655.333M999.667 655.333L1000.33 655.667L999.667 655.333z"/>
<path style="fill:#b4a69d; stroke:none;" d="M355 656L356 657L355 656z"/>
<path style="fill:#fc9b5b; stroke:none;" d="M598.667 656.333L599.333 656.667L598.667 656.333M604.667 656.333L605.333 656.667L604.667 656.333M714 656L715 657L714 656M877 656L878 657L877 656M900 656L900 657L906 657L900 656M965 656L966 657L965 656M987.667 656.333L988.333 656.667L987.667 656.333M995 656L995 657L998 657L995 656z"/>
<path style="fill:#b4a69d; stroke:none;" d="M361 657L362 658L361 657z"/>
<path style="fill:#fc9b5b; stroke:none;" d="M531 657L532 658L531 657M543 657L544 658L543 657M635 657L636 658L635 657M647 657L648 658L647 657M830 657L831 658L830 657M842 657L843 658L842 657M966 657L967 658L966 657z"/>
<path style="fill:#b4a69d; stroke:none;" d="M294 658L295 659L294 658M356 658L357 659L356 658M362 658L363 659L362 658M367 658L368 659L367 658z"/>
<path style="fill:#fc9b5b; stroke:none;" d="M514.333 658.667L514.667 659.333L514.333 658.667M533.667 658.333L534.333 658.667L533.667 658.333M539 658L539 659L542 659L539 658M609 658L610 659L609 658M618.333 658.667L618.667 659.333L618.333 658.667M637.667 658.333L638.333 658.667L637.667 658.333M643 658L643 659L646 659L643 658M832.667 658.333L833.333 658.667L832.667 658.333M838.667 658.333L839.333 658.667L838.667 658.333M925 658L926 659L925 658z"/>
<path style="fill:#b4a69d; stroke:none;" d="M296 659L297 660L296 659M357 659L358 660L357 659M368 659L369 660L368 659z"/>
<path style="fill:#fc9b5b; stroke:none;" d="M581 659L582 660L581 659M813 659L814 660L813 659M879 659L880 660L879 659z"/>
<path style="fill:#b4a69d; stroke:none;" d="M298.667 660.333L299.333 660.667L298.667 660.333M363 660L364 661L363 660z"/>
<path style="fill:#fc9b5b; stroke:none;" d="M610.333 660.667L610.667 661.333L610.333 660.667M718 660L719 661L718 660M880 660L881 661L880 660M968 660L969 661L968 660M1013.33 660.667L1013.67 661.333L1013.33 660.667z"/>
<path style="fill:#b4a69d; stroke:none;" d="M301 661L302 662L301 661M358 661L359 662L358 661M364 661L365 662L364 661z"/>
<path style="fill:#fc9b5b; stroke:none;" d="M492 661L493 662L492 661M582 661L583 662L582 661M719 661L720 662L719 661M771 661L772 662L771 661M814 661L815 662L814 661M881 661L882 662L881 661M923 661L924 662L923 661M969 661L970 662L969 661z"/>
<path style="fill:#b4a69d; stroke:none;" d="M303 662L304 663L303 662M359.333 662.667L359.667 663.333L359.333 662.667M370 662L371 663L370 662z"/>
<path style="fill:#fc9b5b; stroke:none;" d="M516 662L517 663L516 662M549 662L549 669L564 669L564 668L550 668L549 662M620 662L621 663L620 662M653 662L653 669L668 669L668 668L654 668L653 662M720 662L721 663L720 662M770 662L771 663L770 662M815 662L816 663L815 662M882 662L883 663L882 662M922 662L923 663L922 662M1012 662L1013 663L1012 662z"/>
<path style="fill:#b4a69d; stroke:none;" d="M258 663L259 664L258 663z"/>
<path style="fill:#f6f6f5; stroke:none;" d="M256 695L260 695C260 688.186 257.885 677.05 262.009 671.214C267.924 662.843 290.863 667 300 667C291.81 660.391 277.902 662.996 268 663C264.624 663.001 259.403 662.203 257.179 665.434C252.959 671.565 256 687.688 256 695z"/>
<path style="fill:#b4a69d; stroke:none;" d="M293.667 663.333L294.333 663.667L293.667 663.333M305 663L306 664L305 663M365 663L366 664L365 663M371 663L372 664L371 663z"/>
<path style="fill:#fc9b5b; stroke:none;" d="M489 663L490 664L489 663M517 663L518 664L517 663M611 663L612 664L611 663M621 663L622 664L621 663M722 663L723 664L722 663M768 663L769 664L768 663M816 663L817 664L816 663M847 663L848 669L863 669L863 668L849 668L847 663M921 663L922 664L921 663M972 663L973 664L972 663z"/>
<path style="fill:#b4a69d; stroke:none;" d="M296 664L297 665L296 664M308 664L309 665L308 664M357 664L358 665L357 664M366 664L367 665L366 664z"/>
<path style="fill:#fc9b5b; stroke:none;" d="M487 664L488 665L487 664M518 664L519 665L518 664M547 664L548 665L547 664M622 664L623 665L622 664M651 664L652 665L651 664M723 664L724 665L723 664M766 664L767 665L766 664M817 664L818 665L817 664M846 664L847 665L846 664M885 664L886 665L885 664M973 664L974 665L973 664M1009 664L1010 665L1009 664z"/>
<path style="fill:#b4a69d; stroke:none;" d="M256 665L257 666L256 665M298 665L299 666L298 665M310 665L311 666L310 665M355 665L356 666L355 665M367 665L368 666L367 665M371 665L372 666L371 665z"/>
<path style="fill:#fc9b5b; stroke:none;" d="M484.667 665.333L485.333 665.667L484.667 665.333M519 665L520 666L519 665M546 665L547 666L546 665M623 665L624 666L623 665M650 665L651 666L650 665M725 665L726 666L725 665M764 665L765 666L764 665M818 665L819 666L818 665M845 665L846 666L845 665M887 665L888 666L887 665M918 665L919 666L918 665M975 665L976 666L975 665M1008 665L1009 666L1008 665z"/>
<path style="fill:#b4a69d; stroke:none;" d="M266 667L266 668L303 668C295.569 663.203 275.133 667 266 667M312 666L313 667L312 666M352.667 666.333L353.333 666.667L352.667 666.333z"/>
<path style="fill:#fc9b5b; stroke:none;" d="M482 666L483 667L482 666M521 666L522 667L521 666M545 666L546 667L545 666M587 666L588 667L587 666M611 666L612 667L611 666M625 666L626 667L625 666M649 666L650 667L649 666M727 666L728 667L727 666M762 666L763 667L762 666M844 666L845 667L844 666M889 666L890 667L889 666M916 666L917 667L916 666M977 666L978 667L977 666M1006 666L1007 667L1006 666z"/>
<path style="fill:#b4a69d; stroke:none;" d="M314.667 667.333L315.333 667.667L314.667 667.333M350 667L351 668L350 667z"/>
<path style="fill:#fc9b5b; stroke:none;" d="M477 667L477 668L480 668L477 667M523 667L524 668L523 667M543 667L544 668L543 667M589 667L590 668L589 667M609 667L610 668L609 667M627 667L628 668L627 667M647 667L648 668L647 667M730 667L731 668L730 667M759 667L760 668L759 667M821.667 667.333L822.333 667.667L821.667 667.333M842 667L843 668L842 667M891 667L892 668L891 667M914 667L915 668L914 667M979.667 667.333L980.333 667.667L979.667 667.333M1003.67 667.333L1004.33 667.667L1003.67 667.333z"/>
<path style="fill:#b4a69d; stroke:none;" d="M317 668L318 669L317 668M348 668L349 669L348 668M360.667 668.333L361.333 668.667L360.667 668.333z"/>
<path style="fill:#fc9b5b; stroke:none;" d="M525.667 668.333L526.333 668.667L525.667 668.333M540.667 668.333L541.333 668.667L540.667 668.333M591.667 668.333L592.333 668.667L591.667 668.333M606.667 668.333L607.333 668.667L606.667 668.333M629.667 668.333L630.333 668.667L629.667 668.333M644.667 668.333L645.333 668.667L644.667 668.333M733.667 668.333L734.333 668.667L733.667 668.333M755.667 668.333L756.333 668.667L755.667 668.333M824.667 668.333L825.333 668.667L824.667 668.333M839.667 668.333L840.333 668.667L839.667 668.333M894.667 668.333L895.333 668.667L894.667 668.333M910.667 668.333L911.333 668.667L910.667 668.333M982 668L982 669L985 669L982 668M999 668L999 669L1002 669L999 668z"/>
<path style="fill:#b4a69d; stroke:none;" d="M262 669L263 670L262 669M319 669L320 670L319 669M345.667 669.333L346.333 669.667L345.667 669.333M357.667 669.333L358.333 669.667L357.667 669.333z"/>
<path style="fill:#f6f6f5; stroke:none;" d="M347 674L347 676C353.903 678.016 357.42 674.703 361 669L347 674z"/>
<path style="fill:#fc9b5b; stroke:none;" d="M530 669L530 670L537 670L530 669M596 669L596 670L603 670L596 669M634 669L634 670L641 670L634 669M737 669L737 670L743 670L737 669M745 669L745 670L752 670L745 669M829 669L829 670L836 670L829 669M899 669L899 670L907 670L899 669M988 669L988 670L996 670L988 669z"/>
<path style="fill:#b4a69d; stroke:none;" d="M321 670L322 671L321 670M355 670L356 671L355 670M366 670L364 673L366 670z"/>
<path style="fill:#f6f6f5; stroke:none;" d="M364 684L372 670C364.905 670.535 356.954 678.049 364 684z"/>
<path style="fill:#b4a69d; stroke:none;" d="M372 670L373 671L372 670M353 671L354 672L353 671M359 671L360 672L359 671M371 671L372 672L371 671M265 694L266 694L266 673L315 673C305.211 668.892 288.634 672 278 672C274.849 672 268.261 670.784 266.028 673.603C262.864 677.598 265 689.059 265 694M336 672L337 673L336 672M350.667 672.333L351.333 672.667L350.667 672.333M358 672L359 673L358 672M249 673L250 674L249 673z"/>
<path style="fill:#f6f6f5; stroke:none;" d="M250 673C242.888 678.861 245.933 686.879 244 695L251 695L250 673z"/>
<path style="fill:#b4a69d; stroke:none;" d="M260 673L260 695L261 695L260 673z"/>
<path style="fill:#f6f6f5; stroke:none;" d="M266 673L265 695L321 695L319.972 675.703L306 673L266 673z"/>
<path style="fill:#b4a69d; stroke:none;" d="M316.667 673.333L317.333 673.667L316.667 673.333M348 673L349 674L348 673M370 673L371 674L370 673M247 674L248 675L247 674M319 674L320 675L319 674M346 674L347 675L346 674M369 674L370 675L369 674M246 675L247 676L246 675M362 675L363 676L362 675M340 676L340 677L344 679L340 676M355 676L356 677L355 676M361 676L362 677L361 676M368 676L369 677L368 676z"/>
<path style="fill:#f6f6f5; stroke:none;" d="M326 677L326 695L330 695L330 677L326 677z"/>
<path style="fill:#b4a69d; stroke:none;" d="M330 677L330 695L326 695L326 696L331 696L330 677M337 677L339 679L337 677z"/>
<path style="fill:#f6f6f5; stroke:none;" d="M338 677L342 683C343.352 679.001 342.067 677.654 338 677z"/>
<path style="fill:#b4a69d; stroke:none;" d="M360 677L361 678L360 677M367 677L368 678L367 677M244 679L244 694L245 694L244 679M359 679L360 680L359 679M366 679L367 680L366 679M339 680L340 681L339 680M343 680L344 681L343 680M365 680L366 681L365 680M340 681L341 682L340 681M348 681L348 682L357 684L348 681M342 682L343 683L342 682z"/>
<path style="fill:#f6f6f5; stroke:none;" d="M347 686L358 686C354.664 681.995 349.317 680.237 347 686z"/>
<path style="fill:#b4a69d; stroke:none;" d="M361 682L362 683L361 682M364 682L365 683L364 682M341 683L342 684L341 683M347 683L348 684L347 683M362 683L363 684L362 683M346 685L347 686L346 685z"/>
<path style="fill:#f6f6f5; stroke:none;" d="M347 691L347 695L358 695L358 691L347 691z"/>
<path style="fill:#b4a69d; stroke:none;" d="M358 691L358 695L347 695L347 696L359 696L358 691M244 695L244 696L251 696L244 695M256 695L256 696L260 696L256 695M265 695L265 696L321 696L303 695L265 695M717 755L716 758L717 758L717 755z"/>
<path style="fill:#f6f6f5; stroke:none;" d="M718 755L717 759L720 759L718 755z"/>
<path style="fill:#b4a69d; stroke:none;" d="M719 755L720 756L719 755M720.333 756.667L720.667 757.333L720.333 756.667M410 757L412 759L410 757z"/>
<path style="fill:#f6f6f5; stroke:none;" d="M411 757L420 780L422 780L431 757L422 769L420 769C418.478 764.192 416.03 758.66 411 757z"/>
<path style="fill:#b4a69d; stroke:none;" d="M428 757L429 758L428 757M431 757L432 758L431 757M507 757L508 758L507 757z"/>
<path style="fill:#f6f6f5; stroke:none;" d="M508.603 758.028C506.082 760.025 507 765.197 507 768C506.999 778.633 514.204 785.345 524.786 777.272C537.452 767.611 519.138 749.684 508.603 758.028z"/>
<path style="fill:#b4a69d; stroke:none;" d="M520.667 757.333L521.333 757.667L520.667 757.333M614 757L614 780L615 780L614 757z"/>
<path style="fill:#f6f6f5; stroke:none;" d="M615 757L615 780L630 780L630 777L617 777L617 757L615 757z"/>
<path style="fill:#b4a69d; stroke:none;" d="M617 757L617 777L618 777L617 757M787 757L787 780L788 780L787 757z"/>
<path style="fill:#f6f6f5; stroke:none;" d="M788 757L788 780L790 780L790 773C796.317 772.996 814.024 767.521 802.606 759.089C798.653 756.171 792.614 757 788 757z"/>
<path style="fill:#b4a69d; stroke:none;" d="M799.667 757.333L800.333 757.667L799.667 757.333M414 758L415 759L414 758M427 758L428 759L427 758M523 758L524 759L523 758M802 758L803 759L802 758M850 758L846 765L847 765L850 763L850 759L852 759L852 763L857 765L858 765L853 762L852 758L850 758M415 759L416 760L415 759M430 759L431 760L430 759M510 777L511 777L511 760L517 760C507.437 756.128 510 771.561 510 777M790 770L791 770L791 760L797 760C789.611 757.008 790.001 764.881 790 770z"/>
<path style="fill:#f6f6f5; stroke:none;" d="M850 759L847 764L850 765C850 768.832 851.366 787.184 858 777C851.2 776.701 852.001 770.347 852 765L857 765L857 763L852 763L852 759L850 759z"/>
<path style="fill:#b4a69d; stroke:none;" d="M412 760L413 761L412 760M426 760L427 761L426 760M429 760L430 761L429 760z"/>
<path style="fill:#3b3b3b; stroke:none;" d="M511 760L511 777C529.241 776.988 529.241 760.012 511 760z"/>
<path style="fill:#b4a69d; stroke:none;" d="M520.667 760.333L521.333 760.667L520.667 760.333M526 760L527 761L526 760z"/>
<path style="fill:#3b3b3b; stroke:none;" d="M791 760L791 770C804.018 769.963 804.018 760.037 791 760z"/>
<path style="fill:#b4a69d; stroke:none;" d="M799.667 760.333L800.333 760.667L799.667 760.333M804 760L805 761L804 760M416 761L417 762L416 761M522 761L523 762L522 761M801 761L802 762L801 761M805.333 761.667L805.667 762.333L805.333 761.667M413 762L414 763L413 762M425 762L426 763L425 762M428 762L429 763L428 762M439 762L439 763L445 763L439 762M457 762L457 763L460 763L457 762M470 762L470 763L473 763L473 780L474 780C474 774.487 476.317 764.097 470 762M481 762L481 763L484 763L481 762M488 762L488 763L487 765L487 766L491 765L491 763L488 762M540 762L540 763L545 763L540 762M562 762L562 763L567 763L562 762M579 762L580 787L582 787L584 778L582 786L580 786L580 763L585 764L579 762M586 762L586 763L591 763L586 762M640 762L640 763L645 763L640 762M660 762L660 763L666 763L660 762M678 762L678 763L681 763L678 762M684 762L684 763L687 763L684 762M693 762L693 763L696 763L693 762M699 762L699 763L705 763L699 762M717 762L717 763L720 763L717 762M727 763L727 764L730 763L730 765L733 764L727 763M734 762L734 763L740 763L734 762M756 762L756 763L762 763L756 762M765 765L766 765L768 763L768 781L769 781L769 762L765 765M815 762L815 763L821 763L815 762M833 762L833 780L834 780L834 763L836 765L833 762M840 762L840 763L840 765L840 766L843 762L840 762M864 762L864 780L865 780L867 763L864 762M871 762L871 763L876 763L871 762M893 762L893 763L898 763L893 762M910 762L910 780L911 780L911 763L916 764L910 762M917 762L917 763L917 765L917 766L920 762L917 762M414 763L415 764L414 763M417 763L418 764L417 763M424 763L425 764L424 763M437 763L438 764L437 763z"/>
<path style="fill:#f6f6f5; stroke:none;" d="M438.055 763.742C428.226 767.784 435.327 782.949 444.981 779.254C455.815 775.107 448.827 759.312 438.055 763.742z"/>
<path style="fill:#b4a69d; stroke:none;" d="M446 763L447 764L446 763z"/>
<path style="fill:#f6f6f5; stroke:none;" d="M457 763C457 768.714 455.63 777.811 463.015 779.524C466.329 780.292 469.59 779.11 473 780L473 763L470 763C470 779.199 460 779.391 460 763L457 763M481 763L481 780L484 780C484 771.881 485.677 769.427 490 763L485 765L481 763z"/>
<path style="fill:#b4a69d; stroke:none;" d="M524 763L525 764L524 763M528.333 763.667L528.667 764.333L528.333 763.667M538 763L539 764L538 763z"/>
<path style="fill:#f6f6f5; stroke:none;" d="M550 777C544.103 776.555 540.322 777.97 537 772L551 772C550.088 763.816 538.876 758.499 535.024 768.044C531.15 777.643 543.438 782.707 550 777z"/>
<path style="fill:#b4a69d; stroke:none;" d="M547 763L548 764L547 763M560 763L561 764L560 763z"/>
<path style="fill:#f6f6f5; stroke:none;" d="M572 777C566.143 776.244 562.168 778.417 559 772L573 772C572.09 763.833 560.671 758.432 556.897 768.044C553.032 777.889 565.298 782.33 572 777M580 763L580 786L582 786L582 778C590.186 780.978 603.734 774.773 594.566 765.318C590.776 761.408 584.732 764.105 580 763z"/>
<path style="fill:#b4a69d; stroke:none;" d="M593 763L594 764L593 763M637 763L634 767L637 763z"/>
<path style="fill:#f6f6f5; stroke:none;" d="M649 776C642.881 777.564 640.089 777.069 636 772L651 772C648.157 762.32 633.235 759.047 634.128 771.999C634.665 779.789 645.05 782.761 649 776z"/>
<path style="fill:#b4a69d; stroke:none;" d="M646 763L647 764L646 763M657 763L658 764L657 763z"/>
<path style="fill:#f6f6f5; stroke:none;" d="M656 766C660.913 765.393 665.246 764.446 667 770C663.139 770.032 649.469 773.513 658.232 778.817C661.539 780.818 666.269 779.026 670 780C670 775.927 671.122 769.779 668.972 766.148C666.291 761.62 658.728 762.139 656 766z"/>
<path style="fill:#b4a69d; stroke:none;" d="M667 763L668 764L667 763z"/>
<path style="fill:#f6f6f5; stroke:none;" d="M678 763L678 780L681 780C681 771.881 682.677 769.427 687 763L680 765L680 763L678 763z"/>
<path style="fill:#b4a69d; stroke:none;" d="M682 763L683 764L682 763z"/>
<path style="fill:#f6f6f5; stroke:none;" d="M693 763L693 780L696 780C696 776.599 696.985 758.899 704.397 767.333C707.858 771.272 704.179 776.875 709 780C709 769.519 708.186 759.413 695 765L695 763L693 763z"/>
<path style="fill:#b4a69d; stroke:none;" d="M697 763L698 764L697 763M706 763L707 764L706 763z"/>
<path style="fill:#f6f6f5; stroke:none;" d="M717 763L717 780L720 780L720 763L717 763M728 763L728 780C729.859 778.795 735.147 756.137 740.397 769.059C742.087 773.219 739.732 777.233 744 780C744 775.053 745.664 765.962 739.891 763.604C736.235 762.111 731.876 763.905 728 763z"/>
<path style="fill:#b4a69d; stroke:none;" d="M741 763L742 764L741 763M754 763L753 765L754 763z"/>
<path style="fill:#f6f6f5; stroke:none;" d="M766 777C763.392 784.58 758.635 783.755 752 782C753.589 787.43 764.081 787.624 766.935 782.843C769.824 778.003 768 768.491 768 763L766 765C748.392 756.526 746.421 784.134 766 777z"/>
<path style="fill:#b4a69d; stroke:none;" d="M763 763L764 764L763 763M802 763L802 767L803 767L802 763M812 763L812 767L813 767L814 764L812 763z"/>
<path style="fill:#f6f6f5; stroke:none;" d="M812 766C817.085 765.074 820.484 765.011 823 770C818.673 770 803.189 775.444 814 779.667C817.794 781.149 821.333 778.821 825 780C825 775.941 826.092 769.989 824.397 766.228C822.229 761.42 814.534 762.414 812 766z"/>
<path style="fill:#b4a69d; stroke:none;" d="M822 763L823 764L822 763z"/>
<path style="fill:#f6f6f5; stroke:none;" d="M834 763L834 780L836 780C836.001 771.956 837.982 769.461 842 763L834 763z"/>
<path style="fill:#b4a69d; stroke:none;" d="M838 763L839 764L838 763z"/>
<path style="fill:#f6f6f5; stroke:none;" d="M865 763L865 780L867 780C867.002 763.18 878 762.974 878 780C882.486 778.549 882.301 767.529 878.833 764.333C875.244 761.025 868.943 764.267 865 763z"/>
<path style="fill:#b4a69d; stroke:none;" d="M869 763L870 764L869 763M877 763L878 764L877 763M891 763L892 764L891 763z"/>
<path style="fill:#f6f6f5; stroke:none;" d="M903 777C897.143 776.244 893.168 778.417 890 772L904 772C903.09 763.833 891.671 758.432 887.897 768.044C884.032 777.889 896.298 782.33 903 777M911 763L911 780L913 780C913.001 771.956 914.982 769.461 919 763L911 763z"/>
<path style="fill:#b4a69d; stroke:none;" d="M418 764L419 765L418 764M435 764L436 765L435 764M484 764L485 765L484 764M525.333 764.667L525.667 765.333L525.333 764.667M548 764L549 765L548 764M558 764L559 765L558 764M570 764L571 765L570 764M594 764L595 765L594 764M668 764L669 765L668 764M680.667 764.333L681.333 764.667L680.667 764.333M695.667 764.333L696.333 764.667L695.667 764.333M707 764L708 765L707 764M742 764L743 765L742 764M867 764L868 765L867 764M889 764L890 765L889 764M901 764L902 765L901 764M415 765L416 766L415 765M423 765L424 766L423 765M426 765L427 766L426 765M439 765L440 766L439 765z"/>
<path style="fill:#3b3b3b; stroke:none;" d="M440.108 765.851C433.301 767.935 437.154 778.912 443.867 776.377C450.217 773.98 446.397 763.925 440.108 765.851z"/>
<path style="fill:#b4a69d; stroke:none;" d="M443.667 765.333L444.333 765.667L443.667 765.333M540 765L541 766L540 765z"/>
<path style="fill:#3b3b3b; stroke:none;" d="M538 770L548 770C545.41 764.868 539.933 763.88 538 770z"/>
<path style="fill:#b4a69d; stroke:none;" d="M545 765L546 766L545 765M549 765L550 766L549 765M562 765L563 766L562 765z"/>
<path style="fill:#3b3b3b; stroke:none;" d="M559 770L570 770C567.049 764.38 562.096 764.701 559 770z"/>
<path style="fill:#b4a69d; stroke:none;" d="M566.667 765.333L567.333 765.667L566.667 765.333M571 765L572 766L571 765M586 765L587 766L586 765z"/>
<path style="fill:#3b3b3b; stroke:none;" d="M587.055 765.851C580.589 767.795 582.91 778.904 589.942 776.377C596.127 774.155 593.549 763.899 587.055 765.851z"/>
<path style="fill:#b4a69d; stroke:none;" d="M590 765L591 766L590 765M595 765L596 766L595 765M639 765L637 768L639 765z"/>
<path style="fill:#3b3b3b; stroke:none;" d="M637 770L647 770C645.067 763.88 639.59 764.868 637 770z"/>
<path style="fill:#b4a69d; stroke:none;" d="M644 765L645 766L644 765M659.667 765.333L660.333 765.667L659.667 765.333M664 765L665 766L664 765M669 765L670 766L669 765M684 765L684 766L687 766L684 765M699 765L700 766L699 765M702.667 765.333L703.333 765.667L702.667 765.333M708.333 765.667L708.667 766.333L708.333 765.667M734 765L735 766L734 765M737.667 765.333L738.333 765.667L737.667 765.333M743.333 765.667L743.667 766.333L743.333 765.667M757 765L758 766L757 765z"/>
<path style="fill:#3b3b3b; stroke:none;" d="M758.058 765.851C751.1 767.926 754.94 778.264 761.852 775.392C767.548 773.024 763.809 764.135 758.058 765.851z"/>
<path style="fill:#b4a69d; stroke:none;" d="M761.667 765.333L762.333 765.667L761.667 765.333M814.667 765.333L815.333 765.667L814.667 765.333M819.667 765.333L820.333 765.667L819.667 765.333M849 765L849 777L850 777L849 765M852 765L852 776L853 776L852 765M870.667 765.333L871.333 765.667L870.667 765.333M874.667 765.333L875.333 765.667L874.667 765.333M893 765L894 766L893 765z"/>
<path style="fill:#3b3b3b; stroke:none;" d="M890 770L901 770C898.049 764.38 893.095 764.701 890 770z"/>
<path style="fill:#b4a69d; stroke:none;" d="M897.667 765.333L898.333 765.667L897.667 765.333M902 765L903 766L902 765M419 766L420 767L419 766M445 766L446 767L445 766M449 766L450 767L449 766M535 766L536 767L535 766M546 766L547 767L546 766M560 766L561 767L560 766M568 766L569 767L568 766M584 766L585 767L584 766M592 766L593 767L592 766M649 766L650 767L649 766M656.667 766.333L657.333 766.667L656.667 766.333M666 766L667 767L666 766M697 766L698 767L697 766M732 766L733 767L732 766M751 766L752 767L751 766M755 766L756 767L755 766M763 766L764 767L763 766M821 766L822 767L821 766M825 766L825 780L826 780L825 766M838 766L839 767L838 766M876 766L877 767L876 766M880 766L880 769L881 769L880 766M891 766L892 767L891 766M899 766L900 767L899 766M915 766L916 767L915 766M425 767L426 768L425 767M433.333 767.667L433.667 768.333L433.333 767.667M446 767L447 768L446 767M529 767L529 770L530 770L529 767M547 767L548 768L547 767M550 767L551 768L550 767M556.333 767.667L556.667 768.333L556.333 767.667M569 767L570 768L569 767M572 767L573 768L572 767M583 767L584 768L583 767M596 767L597 768L596 767M696.333 767.667L696.667 768.333L696.333 767.667M705 767L706 768L705 767M731.333 767.667L731.667 768.333L731.333 767.667M740 767L741 768L740 767M754 767L755 768L754 767M764 767L765 768L764 767M805 767L806 768L805 767M822 767L822 770L823 770L822 767M837 767L838 768L837 767M868 767L869 768L868 767M887.333 767.667L887.667 768.333L887.333 767.667M900 767L901 768L900 767M903 767L904 768L903 767M914 767L915 768L914 767M417 768L418 769L417 768M420.667 768.333L421.333 768.667L420.667 768.333M436 768L437 769L436 768M447.333 768.667L447.667 769.333L447.333 768.667M450.333 768.667L450.667 769.333L450.333 768.667M484.333 768.667L484.667 769.333L484.333 768.667M534 768L535 769L534 768M537.333 768.667L537.667 769.333L537.333 768.667M559 768L560 769L559 768M593 768L594 769L593 768M647.333 768.667L647.667 769.333L647.333 768.667M650 768L650 771L651 771L650 768M681 768L682 769L681 768M750 768L750 773L751 773L750 768M801 768L802 769L801 768M877 768L877 779L878 779L877 768M890 768L891 769L890 768M548 769L549 770L548 769M551 769L551 772L552 772L551 769M582 769L582 773L583 773L582 769M597 769L597 773L598 773L597 769M633 769L633 774L634 774L633 769M636 769L637 770L636 769M709 769L709 780L710 780L709 769M744 769L744 780L745 780L744 769M753 769L753 773L754 773L753 769M765 769L765 773L766 773L765 769M799 769L800 770L799 769M804 769L805 770L804 769M836 769L836 780L837 780L836 769M867 769L867 780L868 780L867 769M913 769L913 780L914 780L913 769M418 770L419 771L418 770M423 770L424 771L423 770M594.333 770.667L594.667 771.333L594.333 770.667M658.667 770.333L659.333 770.667L658.667 770.333M803 770L804 771L803 770M813.667 770.333L814.333 770.667L813.667 770.333M525.333 771.667L525.667 772.333L525.333 771.667M573 771L574 772L573 771M656 771L657 772L656 771M802 771L803 772L802 771M812 771L813 772L812 771M904 771L905 772L904 771M419 772L419 780L420 780L419 772M422 772L422 780L423 780L422 772M447.333 772.667L447.667 773.333L447.333 772.667M528.333 772.667L528.667 773.333L528.333 772.667M537 774L551 773C547.234 771.42 539.848 770.741 537 774M559 772L559 773L573 773L559 772M636 772L636 773L650 773L636 772M658 774L661 773L658 774z"/>
<path style="fill:#3b3b3b; stroke:none;" d="M658 774L658 776C662.578 777.954 665.548 776.887 667 772L658 774z"/>
<path style="fill:#b4a69d; stroke:none;" d="M799.667 772.333L800.333 772.667L799.667 772.333M811 772L812 773L811 772M815 772L816 773L815 772z"/>
<path style="fill:#3b3b3b; stroke:none;" d="M814 773C815.832 778.745 821.085 777.529 822 772L814 773z"/>
<path style="fill:#b4a69d; stroke:none;" d="M822 772L822 775L823 775L822 772M890 772L890 773L904 773L890 772M436.333 773.667L436.667 774.333L436.333 773.667M450.333 773.667L450.667 774.333L450.333 773.667M524 773L525 774L524 773M534.333 773.667L534.667 774.333L534.333 773.667M655 773L656 774L655 773M790 773L790 780L791 780L790 773M433 774L434 775L433 774M460 774L461 775L460 774M469 774L470 775L469 774M527 774L528 775L527 774M556 774L557 775L556 774M559 774L560 775L559 774M593 774L594 775L593 774M637 774L638 775L637 774M764 774L765 775L764 774M810.333 774.667L810.667 775.333L810.333 774.667M813.333 774.667L813.667 775.333L813.333 774.667M887 774L888 775L887 774M890 774L891 775L890 774M437 775L438 776L437 775M446 775L447 776L446 775M457.333 775.667L457.667 776.333L457.333 775.667M522 775L523 776L522 775M538 775L539 776L538 775M548 775L549 776L548 775M560 775L561 776L560 775M570 775L571 776L570 775M592 775L593 776L592 775M596 775L597 776L596 775M634 775L635 776L634 775M647 775L648 776L647 775M666 775L667 776L666 775M751 775L752 776L751 775M763 775L764 776L763 775M891 775L892 776L891 775M901 775L902 776L901 775M434 776L435 777L434 776M438 776L439 777L438 776M445 776L446 777L445 776M449 776L450 777L449 776M461 776L462 777L461 776M467 776L468 777L467 776M520 776L521 777L520 776M535 776L536 777L535 776M539 776L540 777L539 776M547 776L548 777L547 776M549 776L550 777L549 776M557 776L558 777L557 776M561 776L562 777L561 776M571 776L572 777L571 776M591 776L592 777L591 776M639 776L640 777L639 776M646 776L647 777L646 776M655 776L656 777L655 776M658 776L659 777L658 776M665 776L666 777L665 776M752 776L753 777L752 776M757 776L757 777L762 777L757 776M814 776L815 777L814 776M821 776L822 777L821 776M888 776L889 777L888 776M892 776L893 777L892 776M902 776L903 777L902 776M435 777L436 778L435 777M440 777L440 778L444 778L440 777M448 777L449 778L448 777M458 777L459 778L458 777M463 777L463 778L466 778L463 777M536 777L537 778L536 777M542 777L542 778L545 778L542 777M558 777L559 778L558 777M563 777L563 778L567 778L563 777M587 777L587 778L590 778L587 777M641 777L641 778L645 778L641 777M649 777L650 778L649 777M660 777L661 778L660 777M663.667 777.333L664.333 777.667L663.667 777.333M753 777L754 778L753 777M764 777L765 780L766 780L766 777L764 777M811 777L812 778L811 777M815.667 777.333L816.333 777.667L815.667 777.333M818.667 777.333L819.333 777.667L818.667 777.333M854 777L854 778L857 778L854 777M889 777L890 778L889 777M894 777L894 778L898 778L894 777M436 778L437 779L436 778M447 778L448 779L447 778M459 778L460 779L459 778M470.333 778.667L470.667 779.333L470.333 778.667M523 778L524 779L523 778M537 778L538 779L537 778M559 778L560 779L559 778M570 778L571 779L570 778M630 778L631 779L630 778M648 778L649 779L648 778M656 778L657 779L656 778M666 778L668 780L668 778L666 778M755 778L756 779L755 778M762 778L763 779L762 778M822 778L823 779L822 778M850 778L851 779L850 778M858 778L859 779L858 778M890 778L891 779L890 778M901 778L902 779L901 778M438 779L439 780L438 779M445 779L446 780L445 779M460.667 779.333L461.333 779.667L460.667 779.333M467 779L468 780L467 779M507 779L508 780L507 779M519 779L519 780L522 780L519 779M539 779L540 780L539 779M546.667 779.333L547.333 779.667L546.667 779.333M561 779L562 780L561 779M568.667 779.333L569.333 779.667L568.667 779.333M585 779L586 780L585 779M591.667 779.333L592.333 779.667L591.667 779.333M638.667 779.333L639.333 779.667L638.667 779.333M646 779L647 780L646 779M658 779L659 780L658 779M664.667 779.333L665.333 779.667L664.667 779.333M706 779L707 780L706 779M730 779L731 780L730 779M741 779L742 780L741 779M813 779L814 780L813 779M820 779L821 780L820 779M857 779L858 780L857 779M880 779L881 780L880 779M892 779L893 780L892 779M899.667 779.333L900.333 779.667L899.667 779.333M764 781L765 782L764 781M754 782L755 783L754 782M767 782L768 783L767 782M751 783L752 784L751 783M756.667 783.333L757.333 783.667L756.667 783.333M761.667 783.333L762.333 783.667L761.667 783.333M766 784L767 785L766 784M753.667 785.333L754.333 785.667L753.667 785.333M764 785L765 786L764 785M756 786L756 787L763 787L756 786z"/>
</svg>
