<?xml version="1.0" standalone="yes"?>
<svg xmlns="http://www.w3.org/2000/svg" width="1500" height="1304">
<path style="fill:#010101; stroke:none;" d="M0 0L0 23L1 23C4.11943 12.1716 12.1716 4.11926 23 1L0 0z"/>
<path style="fill:#932377; stroke:none;" d="M23 0.529297C-7.86199 7.61194 0 47.6453 0 71L0 289L0 1034L0 1222C0 1242.22 -6.96071 1277.76 7.21296 1293.98C27.3644 1317.06 73.9878 1294.53 98 1287.71C179.971 1264.44 265.732 1250.85 350 1239.13C601.861 1204.12 859.716 1203.95 1112 1234.16C1196.45 1244.27 1281.37 1257.98 1364 1278.37C1389.41 1284.64 1414.7 1291.2 1440 1297.88C1452.12 1301.08 1465.28 1306.82 1478 1303.21C1507.98 1294.7 1500 1255.66 1500 1232L1500 1016L1500 267L1500 79C1500 59.027 1506.82 24.6395 1491.9 9.04321C1478.25 -5.21545 1459.38 0.637329 1443 5.29004C1428.72 9.34644 1414.32 12.9736 1400 16.8488C1315.93 39.5924 1229.17 53.891 1143 65.8696C893.689 100.528 637.667 99.7377 388 69.8448C304.084 59.7976 220.259 45.6169 138 26.1157C112.532 20.0779 87.3234 13.2223 62 6.62891C49.4622 3.3645 36.2046 -2.5011 23 0.529297z"/>
<path style="fill:#010101; stroke:none;" d="M40 0L40 1C72.5651 7.7395 104.593 18.433 137 26.1157C199.349 40.8969 262.616 52.3909 326 61.7284C561.764 96.4608 804.015 100.764 1041 77.8302C1141.03 68.1504 1240.81 53.2639 1339 31.5756C1379.58 22.6132 1419.39 9.4043 1460 1L1424 0L1340 0L1049 0L40 0M1477 0L1477 1C1487.83 4.11926 1495.88 12.1718 1499 23L1500 23L1500 0L1477 0z"/>
<path style="fill:#cd99c0; stroke:none;" d="M280.667 302.333L281.333 302.667L280.667 302.333z"/>
<path style="fill:#ffffff; stroke:none;" d="M282 302.544C266.982 305.648 270 322.456 270 334L270 433L270 856L270 969C270 981.75 267.41 1003.85 287 1001.56C298.458 1000.22 324.445 998.788 332.2 989.671C339.168 981.479 336 965.024 336 955L336 865L336 445L336 355C336 344.049 339.207 326.943 334 317.04C328.222 306.05 306.872 306.14 296 304.001C291.582 303.131 286.494 301.615 282 302.544z"/>
<path style="fill:#cd99c0; stroke:none;" d="M287.667 302.333L288.333 302.667L287.667 302.333z"/>
<path style="fill:#b56aa3; stroke:none;" d="M289.667 302.333L290.333 302.667L289.667 302.333M277 303L278 304L277 303z"/>
<path style="fill:#cd99c0; stroke:none;" d="M278 303L279 304L278 303M293 303L294 304L293 303z"/>
<path style="fill:#b56aa3; stroke:none;" d="M294.667 303.333L295.333 303.667L294.667 303.333z"/>
<path style="fill:#cd99c0; stroke:none;" d="M276 304L277 305L276 304M298 304L299 305L298 304z"/>
<path style="fill:#b56aa3; stroke:none;" d="M299.667 304.333L300.333 304.667L299.667 304.333M274 305L275 306L274 305z"/>
<path style="fill:#cd99c0; stroke:none;" d="M303 305L304 306L303 305z"/>
<path style="fill:#b56aa3; stroke:none;" d="M304.667 305.333L305.333 305.667L304.667 305.333M273 306L274 307L273 306z"/>
<path style="fill:#cd99c0; stroke:none;" d="M308.667 306.333L309.333 306.667L308.667 306.333z"/>
<path style="fill:#b56aa3; stroke:none;" d="M310 306L311 307L310 306z"/>
<path style="fill:#cd99c0; stroke:none;" d="M313.667 307.333L314.333 307.667L313.667 307.333z"/>
<path style="fill:#b56aa3; stroke:none;" d="M315 307L316 308L315 307z"/>
<path style="fill:#cd99c0; stroke:none;" d="M319 308L320 309L319 308z"/>
<path style="fill:#b56aa3; stroke:none;" d="M320.667 308.333L321.333 308.667L320.667 308.333z"/>
<path style="fill:#cd99c0; stroke:none;" d="M271 309L272 310L271 309M324 309L325 310L324 309z"/>
<path style="fill:#b56aa3; stroke:none;" d="M325 309L326 310L325 309z"/>
<path style="fill:#cd99c0; stroke:none;" d="M327 310L328 311L327 310z"/>
<path style="fill:#b56aa3; stroke:none;" d="M270 311L271 312L270 311z"/>
<path style="fill:#cd99c0; stroke:none;" d="M329 311L330 312L329 311M270 312L271 313L270 312M330 312L331 313L330 312z"/>
<path style="fill:#b56aa3; stroke:none;" d="M269.333 314.667L269.667 315.333L269.333 314.667z"/>
<path style="fill:#cd99c0; stroke:none;" d="M332 314L333 315L332 314z"/>
<path style="fill:#b56aa3; stroke:none;" d="M1149 314L1149 315L1156 315L1149 314z"/>
<path style="fill:#cd99c0; stroke:none;" d="M333 315L334 316L333 315z"/>
<path style="fill:#b56aa3; stroke:none;" d="M1139.67 315.333L1140.33 315.667L1139.67 315.333z"/>
<path style="fill:#cd99c0; stroke:none;" d="M1141 315L1141 316L1144 316L1141 315z"/>
<path style="fill:#ffffff; stroke:none;" d="M1144 315.425C1122.64 318.333 1101.36 321.894 1080 324.87C1054.78 328.384 1030.94 330.289 1011 348.174C982.111 374.084 985 409.785 985 445L985 648L985 768C985 779.433 980.511 803.062 989.225 811.775C993.227 815.778 998.74 815.875 1004 816.576C1016.39 818.227 1041.62 825.426 1049.08 811.96C1052.52 805.756 1051 796.854 1051 790L1051 741C1051 733.135 1048.47 720.285 1055.21 714.573C1060.67 709.951 1071.32 712 1078 712L1138 712C1145.62 712 1157.14 709.649 1161.99 717.094C1168.22 726.645 1164 748.833 1164 760L1164 871L1164 902C1164 906.777 1164.95 912.761 1162.26 916.985C1154.67 928.883 1127.56 918.975 1116 917.272C1070.6 910.584 1024.74 904.442 979 901.089C837.029 890.682 693.011 885.307 551 898.83C517.008 902.067 482.905 904.015 449 908.576C438.154 910.035 420.051 908.505 411.188 915.649C405.48 920.25 406 927.409 406 934C406 947 400.106 977.039 419 978.895C437.918 980.754 460.078 974.192 479 972.166C517.296 968.066 555.619 964.718 594 962.089C716.076 953.73 841.173 954.529 963 966.17C1020.13 971.628 1077.31 977.69 1134 987.08C1147.99 989.398 1162.09 991.434 1176 994.2C1186.92 996.37 1199.25 999.303 1210 994.906C1230.17 986.65 1230 967.45 1230 949L1230 831L1230 534C1230 484.728 1233.35 434.138 1229.91 385C1226.97 343.097 1185.52 309.773 1144 315.425z"/>
<path style="fill:#cd99c0; stroke:none;" d="M1161 315L1161 316L1164 316L1161 315z"/>
<path style="fill:#b56aa3; stroke:none;" d="M1164 315L1165 316L1164 315z"/>
<path style="fill:#cd99c0; stroke:none;" d="M269 316L269 988L270 988L270 511L270 374L270 335L269 316z"/>
<path style="fill:#b56aa3; stroke:none;" d="M334 316L335 317L334 316M1133.67 316.333L1134.33 316.667L1133.67 316.333z"/>
<path style="fill:#cd99c0; stroke:none;" d="M1135.67 316.333L1136.33 316.667L1135.67 316.333M1167.67 316.333L1168.33 316.667L1167.67 316.333z"/>
<path style="fill:#b56aa3; stroke:none;" d="M1169 316L1170 317L1169 316z"/>
<path style="fill:#cd99c0; stroke:none;" d="M334 317L335 318L334 317z"/>
<path style="fill:#b56aa3; stroke:none;" d="M1127 317L1128 318L1127 317z"/>
<path style="fill:#cd99c0; stroke:none;" d="M1128 317L1128 318L1131 318L1128 317M1172 317L1173 318L1172 317z"/>
<path style="fill:#b56aa3; stroke:none;" d="M1173 317L1174 318L1173 317M1120.67 318.333L1121.33 318.667L1120.67 318.333z"/>
<path style="fill:#cd99c0; stroke:none;" d="M1122.67 318.333L1123.33 318.667L1122.67 318.333M1175 318L1176 319L1175 318z"/>
<path style="fill:#b56aa3; stroke:none;" d="M1176 318L1177 319L1176 318z"/>
<path style="fill:#cd99c0; stroke:none;" d="M335.333 319.667L335.667 320.333L335.333 319.667z"/>
<path style="fill:#b56aa3; stroke:none;" d="M1114 319L1115 320L1114 319z"/>
<path style="fill:#cd99c0; stroke:none;" d="M1115 319L1115 320L1118 320L1115 319M1178 319L1179 320L1178 319z"/>
<path style="fill:#b56aa3; stroke:none;" d="M1179 319L1180 320L1179 319M1107.67 320.333L1108.33 320.667L1107.67 320.333z"/>
<path style="fill:#cd99c0; stroke:none;" d="M1109.67 320.333L1110.33 320.667L1109.67 320.333M1181 320L1182 321L1181 320z"/>
<path style="fill:#b56aa3; stroke:none;" d="M1182 320L1183 321L1182 320M1100.67 321.333L1101.33 321.667L1100.67 321.333z"/>
<path style="fill:#cd99c0; stroke:none;" d="M1102.67 321.333L1103.33 321.667L1102.67 321.333M1183 321L1184 322L1183 321z"/>
<path style="fill:#b56aa3; stroke:none;" d="M1184 321L1185 322L1184 321M1093.67 322.333L1094.33 322.667L1093.67 322.333z"/>
<path style="fill:#cd99c0; stroke:none;" d="M1095.67 322.333L1096.33 322.667L1095.67 322.333z"/>
<path style="fill:#b56aa3; stroke:none;" d="M1186 322L1187 323L1186 322M336 323L336 981L337 981L337 514L337 380L337 341L336 323M1086.67 323.333L1087.33 323.667L1086.67 323.333z"/>
<path style="fill:#cd99c0; stroke:none;" d="M1088.67 323.333L1089.33 323.667L1088.67 323.333z"/>
<path style="fill:#b56aa3; stroke:none;" d="M1188 323L1189 324L1188 323M419 324L419 325L422 325L419 324M1079.67 324.333L1080.33 324.667L1079.67 324.333z"/>
<path style="fill:#cd99c0; stroke:none;" d="M1081.67 324.333L1082.33 324.667L1081.67 324.333z"/>
<path style="fill:#b56aa3; stroke:none;" d="M1190 324L1191 325L1190 324M415 325L416 326L415 325z"/>
<path style="fill:#cd99c0; stroke:none;" d="M416 325L417 326L416 325z"/>
<path style="fill:#ffffff; stroke:none;" d="M417 325.533C412.178 326.704 408.155 330.216 406.653 335C405.297 339.318 406 344.529 406 349C406 360.639 401.28 383.889 414.015 390.08C423.442 394.664 437.661 394.059 448 395.166C472.341 397.772 496.642 400.503 521 402.83C530.685 403.756 552.369 400.969 556.013 413.001C558.229 420.319 550.277 432.313 547.6 439C538.486 461.768 528.914 484.386 519.424 507C488.308 581.152 459.042 656.122 427.281 730C416.945 754.042 392.456 791.455 417.004 813.895C428.767 824.648 443.66 821.701 458 820.166C486.322 817.134 514.674 814.867 543 812.17C562.932 810.272 583.031 809.457 603 808.089C612.457 807.442 623.935 809.228 632.999 806.146C647.902 801.079 644.881 766.572 642.671 754C641.773 748.887 638.972 744.123 633.996 742.148C625.741 738.872 615.523 741.777 607 741.985C583.168 742.569 558.687 743.491 535 746.286C525.011 747.464 503.679 753.212 498.029 741.995C494.276 734.546 502.703 721.846 505.576 715C515.902 690.391 525.691 665.554 536.15 641C565.536 572.006 593.407 502.323 622.011 433C630.996 411.225 654.104 377.179 635.671 355.004C624.688 341.792 609.484 342.971 594 341.911C565.318 339.946 536.694 336.935 508 334.975C486.634 333.516 465.268 330.391 444 327.845C435.649 326.845 425.301 323.518 417 325.533z"/>
<path style="fill:#cd99c0; stroke:none;" d="M426.667 325.333L427.333 325.667L426.667 325.333z"/>
<path style="fill:#b56aa3; stroke:none;" d="M428.667 325.333L429.333 325.667L428.667 325.333M1071.67 325.333L1072.33 325.667L1071.67 325.333z"/>
<path style="fill:#cd99c0; stroke:none;" d="M1073 325L1073 326L1076 326L1073 325M1191 325L1192 326L1191 325M413 326L414 327L413 326M433 326L433 327L436 327L433 326z"/>
<path style="fill:#b56aa3; stroke:none;" d="M436.667 326.333L437.333 326.667L436.667 326.333M1063.67 326.333L1064.33 326.667L1063.67 326.333z"/>
<path style="fill:#cd99c0; stroke:none;" d="M1065 326L1065 327L1068 327L1065 326M1193 326L1194 327L1193 326z"/>
<path style="fill:#b56aa3; stroke:none;" d="M411 327L412 328L411 327z"/>
<path style="fill:#cd99c0; stroke:none;" d="M441 327L441 328L444 328L441 327z"/>
<path style="fill:#b56aa3; stroke:none;" d="M444.667 327.333L445.333 327.667L444.667 327.333M1055.67 327.333L1056.33 327.667L1055.67 327.333z"/>
<path style="fill:#cd99c0; stroke:none;" d="M1057 327L1057 328L1060 328L1057 327z"/>
<path style="fill:#b56aa3; stroke:none;" d="M1195 327L1196 328L1195 327M410 328L411 329L410 328z"/>
<path style="fill:#cd99c0; stroke:none;" d="M449 328L449 329L452 329L449 328z"/>
<path style="fill:#b56aa3; stroke:none;" d="M452.667 328.333L453.333 328.667L452.667 328.333M1049.67 328.333L1050.33 328.667L1049.67 328.333z"/>
<path style="fill:#cd99c0; stroke:none;" d="M1051.67 328.333L1052.33 328.667L1051.67 328.333M1196 328L1197 329L1196 328z"/>
<path style="fill:#b56aa3; stroke:none;" d="M409 329L410 330L409 329z"/>
<path style="fill:#cd99c0; stroke:none;" d="M457 329L457 330L460 330L457 329z"/>
<path style="fill:#b56aa3; stroke:none;" d="M460 329L460 330L463 330L460 329M1045 329L1046 330L1045 329z"/>
<path style="fill:#cd99c0; stroke:none;" d="M1046 329L1047 330L1046 329z"/>
<path style="fill:#b56aa3; stroke:none;" d="M408 330L409 331L408 330z"/>
<path style="fill:#cd99c0; stroke:none;" d="M466 330L466 331L469 331L466 330z"/>
<path style="fill:#b56aa3; stroke:none;" d="M469.667 330.333L470.333 330.667L469.667 330.333z"/>
<path style="fill:#cd99c0; stroke:none;" d="M1042.67 330.333L1043.33 330.667L1042.67 330.333z"/>
<path style="fill:#b56aa3; stroke:none;" d="M1199 330L1200 331L1199 330z"/>
<path style="fill:#cd99c0; stroke:none;" d="M474 331L474 332L478 332L474 331z"/>
<path style="fill:#b56aa3; stroke:none;" d="M478.667 331.333L479.333 331.667L478.667 331.333z"/>
<path style="fill:#cd99c0; stroke:none;" d="M1039 331L1040 332L1039 331M1200 331L1201 332L1200 331M407 332L408 333L407 332M484 332L484 333L487 333L484 332z"/>
<path style="fill:#b56aa3; stroke:none;" d="M487.667 332.333L488.333 332.667L487.667 332.333M1036 332L1037 333L1036 332z"/>
<path style="fill:#cd99c0; stroke:none;" d="M493 333L493 334L496 334L493 333z"/>
<path style="fill:#b56aa3; stroke:none;" d="M496 333L496 334L499 334L496 333M1033 333L1034 334L1033 333z"/>
<path style="fill:#cd99c0; stroke:none;" d="M1034 333L1035 334L1034 333z"/>
<path style="fill:#b56aa3; stroke:none;" d="M1203 333L1204 334L1203 333z"/>
<path style="fill:#cd99c0; stroke:none;" d="M406 334L407 335L406 334M503 334L503 335L506 335L503 334z"/>
<path style="fill:#b56aa3; stroke:none;" d="M506 334L506 335L509 335L506 334M1031 334L1032 335L1031 334z"/>
<path style="fill:#cd99c0; stroke:none;" d="M1032 334L1033 335L1032 334z"/>
<path style="fill:#b56aa3; stroke:none;" d="M1204 334L1205 335L1204 334z"/>
<path style="fill:#cd99c0; stroke:none;" d="M513 335L513 336L517 336L513 335z"/>
<path style="fill:#b56aa3; stroke:none;" d="M517 335L517 336L520 336L517 335M1029 335L1030 336L1029 335M1205 335L1206 336L1205 335z"/>
<path style="fill:#cd99c0; stroke:none;" d="M524 336L524 337L528 337L524 336z"/>
<path style="fill:#b56aa3; stroke:none;" d="M528 336L528 337L531 337L528 336M1027 336L1028 337L1027 336M1206 336L1207 337L1206 336M405 337L405 340L406 340L405 337z"/>
<path style="fill:#cd99c0; stroke:none;" d="M536 337L536 338L539 338L536 337z"/>
<path style="fill:#b56aa3; stroke:none;" d="M539 337L539 338L543 338L539 337M1025 337L1026 338L1025 337z"/>
<path style="fill:#cd99c0; stroke:none;" d="M1026 337L1027 338L1026 337z"/>
<path style="fill:#b56aa3; stroke:none;" d="M1207 337L1208 338L1207 337z"/>
<path style="fill:#cd99c0; stroke:none;" d="M548 338L548 339L552 339L548 338z"/>
<path style="fill:#b56aa3; stroke:none;" d="M552 338L552 339L555 339L552 338z"/>
<path style="fill:#cd99c0; stroke:none;" d="M1024 338L1025 339L1024 338z"/>
<path style="fill:#b56aa3; stroke:none;" d="M1208 338L1209 339L1208 338z"/>
<path style="fill:#cd99c0; stroke:none;" d="M561 339L561 340L565 340L561 339z"/>
<path style="fill:#b56aa3; stroke:none;" d="M565 339L565 340L569 340L565 339M1022 339L1023 340L1022 339M1209 339L1210 340L1209 339z"/>
<path style="fill:#cd99c0; stroke:none;" d="M405 340L405 377L406 377C406 366.351 409.111 349.798 405 340M574 340L574 341L579 341L574 340z"/>
<path style="fill:#b56aa3; stroke:none;" d="M579 340L579 341L584 341L579 340z"/>
<path style="fill:#cd99c0; stroke:none;" d="M1021 340L1022 341L1021 340z"/>
<path style="fill:#b56aa3; stroke:none;" d="M1210 340L1211 341L1210 340z"/>
<path style="fill:#cd99c0; stroke:none;" d="M590 341L590 342L595 342L590 341z"/>
<path style="fill:#b56aa3; stroke:none;" d="M595 341L595 342L600 342L595 341M899.667 341.333L900.333 341.667L899.667 341.333M1019 341L1020 342L1019 341M1211 341L1212 342L1211 341z"/>
<path style="fill:#cd99c0; stroke:none;" d="M607 342L607 343L612 343L607 342z"/>
<path style="fill:#b56aa3; stroke:none;" d="M612 342L612 343L615 343L612 342M880 342L880 343L885 343L880 342z"/>
<path style="fill:#cd99c0; stroke:none;" d="M885 342L885 343L892 343L885 342z"/>
<path style="fill:#ffffff; stroke:none;" d="M892 342.424C852.526 347.607 810.818 346 771 346C753.259 346 731.825 343.216 719.529 359.004C709.014 372.506 713 393.953 713 410L713 531L713 725C713 746.011 705.907 781.196 724.09 796.319C734.776 805.207 748.023 804 761 804C783.366 804 806.748 803.052 829 805.17C845.271 806.718 861.695 805.973 878 807.089C886.406 807.665 897.929 810.275 905.999 806.991C910.305 805.238 913.377 801.483 914.467 797C917.266 785.487 916.579 766.715 914.787 755C914.128 750.692 911.778 746.622 907.957 744.417C899.249 739.394 883.823 741.047 874 740.999C855.678 740.911 837.367 739 819 739C809.321 739 795.033 740.753 786.015 736.991C774.741 732.286 779 710.79 779 701L779 621C779 609.89 776.279 594.617 779.653 584.004C783.373 572.299 801.589 576 811 576L890 576C900.344 576 912.803 575.974 914.787 563C915.868 555.93 915 548.146 915 541C915 532.649 917.21 520.746 910.775 514.214C904.331 507.671 892.354 510 884 510L813 510C804.884 510 792.172 512.388 785.015 507.991C777.699 503.495 779 495.429 779 488L779 435C779 427.833 777.474 419.464 784.044 414.653C791.34 409.31 805.391 412.003 814 412C836.224 411.991 858.833 410.607 881 409.089C890.543 408.436 904.642 411.213 911.581 402.895C916.776 396.669 915 386.526 915 379C915 360.685 917.261 339.107 892 342.424z"/>
<path style="fill:#cd99c0; stroke:none;" d="M904 342L905 343L904 342z"/>
<path style="fill:#b56aa3; stroke:none;" d="M905 342L906 343L905 342z"/>
<path style="fill:#cd99c0; stroke:none;" d="M1018 342L1019 343L1018 342M617 343L618 344L617 343z"/>
<path style="fill:#b56aa3; stroke:none;" d="M618 343L619 344L618 343M859 343L859 344L865 344L859 343z"/>
<path style="fill:#cd99c0; stroke:none;" d="M865 343L865 344L873 344L865 343M906 343L907 344L906 343z"/>
<path style="fill:#b56aa3; stroke:none;" d="M907 343L908 344L907 343M1016 343L1017 344L1016 343z"/>
<path style="fill:#cd99c0; stroke:none;" d="M620 344L621 345L620 344z"/>
<path style="fill:#b56aa3; stroke:none;" d="M621 344L622 345L621 344M833 344L833 345L840 345L833 344z"/>
<path style="fill:#cd99c0; stroke:none;" d="M840 344L840 345L850 345L840 344M908 344L909 345L908 344M1015 344L1016 345L1015 344M1213 344L1214 345L1213 344M623 345L624 346L623 345z"/>
<path style="fill:#b56aa3; stroke:none;" d="M791 345L791 346L805 346L791 345z"/>
<path style="fill:#cd99c0; stroke:none;" d="M805 345L805 346L820 346L805 345M1014 345L1015 346L1014 345z"/>
<path style="fill:#b56aa3; stroke:none;" d="M1214 345L1215 346L1214 345z"/>
<path style="fill:#cd99c0; stroke:none;" d="M625 346L626 347L625 346z"/>
<path style="fill:#b56aa3; stroke:none;" d="M739.667 346.333L740.333 346.667L739.667 346.333z"/>
<path style="fill:#cd99c0; stroke:none;" d="M741 346L741 347L745 347L741 346z"/>
<path style="fill:#b56aa3; stroke:none;" d="M1215 346L1216 347L1215 346M627 347L628 348L627 347M735 347L736 348L735 347z"/>
<path style="fill:#cd99c0; stroke:none;" d="M736 347L737 348L736 347z"/>
<path style="fill:#b56aa3; stroke:none;" d="M1011 347L1012 348L1011 347z"/>
<path style="fill:#cd99c0; stroke:none;" d="M628 348L629 349L628 348M733 348L734 349L733 348M912 348L913 349L912 348z"/>
<path style="fill:#b56aa3; stroke:none;" d="M1010 348L1011 349L1010 348z"/>
<path style="fill:#cd99c0; stroke:none;" d="M1216 348L1217 349L1216 348z"/>
<path style="fill:#b56aa3; stroke:none;" d="M630 349L631 350L630 349z"/>
<path style="fill:#cd99c0; stroke:none;" d="M731 349L732 350L731 349z"/>
<path style="fill:#b56aa3; stroke:none;" d="M913 349L914 350L913 349M1009 349L1010 350L1009 349M1217 349L1218 350L1217 349M631 350L632 351L631 350z"/>
<path style="fill:#cd99c0; stroke:none;" d="M729 350L730 351L729 350M913 350L914 351L913 350z"/>
<path style="fill:#b56aa3; stroke:none;" d="M1008 350L1009 351L1008 350z"/>
<path style="fill:#cd99c0; stroke:none;" d="M632 351L633 352L632 351z"/>
<path style="fill:#b56aa3; stroke:none;" d="M727 351L728 352L727 351M914 351L915 352L914 351M1007 351L1008 352L1007 351z"/>
<path style="fill:#cd99c0; stroke:none;" d="M1218 351L1219 352L1218 351M633 352L634 353L633 352M726 352L727 353L726 352M914 352L915 353L914 352z"/>
<path style="fill:#b56aa3; stroke:none;" d="M1006 352L1007 353L1006 352M1219 352L1220 353L1219 352z"/>
<path style="fill:#cd99c0; stroke:none;" d="M634 353L635 354L634 353z"/>
<path style="fill:#b56aa3; stroke:none;" d="M724 353L725 354L724 353M1005 353L1006 354L1005 353M635 354L636 355L635 354M723 354L724 355L723 354M1220 354L1221 355L1220 354M636 355L637 356L636 355M722 355L723 356L722 355M721 356L722 357L721 356M915 356L915 394L916 394C916 383.089 919.211 366.036 915 356z"/>
<path style="fill:#cd99c0; stroke:none;" d="M1003 356L1004 357L1003 356M1221 356L1222 357L1221 356M637 357L638 358L637 357z"/>
<path style="fill:#b56aa3; stroke:none;" d="M720 357L721 358L720 357z"/>
<path style="fill:#cd99c0; stroke:none;" d="M1002 357L1003 358L1002 357z"/>
<path style="fill:#b56aa3; stroke:none;" d="M638 358L639 359L638 358M1001 358L1002 359L1001 358z"/>
<path style="fill:#cd99c0; stroke:none;" d="M1222 358L1223 359L1222 358z"/>
<path style="fill:#b56aa3; stroke:none;" d="M1000 359L1001 360L1000 359M639 360L640 361L639 360z"/>
<path style="fill:#cd99c0; stroke:none;" d="M718 360L719 361L718 360M1223 360L1224 361L1223 360z"/>
<path style="fill:#b56aa3; stroke:none;" d="M717 361L718 362L717 361z"/>
<path style="fill:#cd99c0; stroke:none;" d="M999 361L1000 362L999 361z"/>
<path style="fill:#b56aa3; stroke:none;" d="M640 362L641 363L640 362M998 362L999 363L998 362M1224 362L1225 363L1224 362z"/>
<path style="fill:#cd99c0; stroke:none;" d="M640 363L641 364L640 363M716 363L717 364L716 363M1224 363L1225 364L1224 363M997 364L998 365L997 364z"/>
<path style="fill:#b56aa3; stroke:none;" d="M641 365L642 366L641 365M715 365L716 366L715 365M996 365L997 366L996 365z"/>
<path style="fill:#cd99c0; stroke:none;" d="M1225 365L1226 366L1225 365M641 366L642 367L641 366z"/>
<path style="fill:#b56aa3; stroke:none;" d="M714 367L715 368L714 367z"/>
<path style="fill:#cd99c0; stroke:none;" d="M995 367L996 368L995 367z"/>
<path style="fill:#b56aa3; stroke:none;" d="M1226 367L1227 368L1226 367M642 368L643 369L642 368z"/>
<path style="fill:#cd99c0; stroke:none;" d="M714 368L715 369L714 368M1226 368L1227 369L1226 368M642 369L642 372L643 372L642 369M994 369L995 370L994 369z"/>
<path style="fill:#b56aa3; stroke:none;" d="M713 370L714 371L713 370M1227 370L1228 371L1227 370z"/>
<path style="fill:#cd99c0; stroke:none;" d="M713 371L714 372L713 371M993 371L994 372L993 371M1227 371L1228 372L1227 371M992 373L993 374L992 373z"/>
<path style="fill:#b56aa3; stroke:none;" d="M1228 374L1229 375L1228 374M712.333 375.667L712.667 376.333L712.333 375.667z"/>
<path style="fill:#cd99c0; stroke:none;" d="M991 375L992 376L991 375M1228.33 375.667L1228.67 376.333L1228.33 375.667z"/>
<path style="fill:#b56aa3; stroke:none;" d="M405 377L405 380L406 380L405 377z"/>
<path style="fill:#cd99c0; stroke:none;" d="M712 377L712 774L713 774L713 493L713 412L712 377z"/>
<path style="fill:#b56aa3; stroke:none;" d="M990 377L991 378L990 377M989 379L990 380L989 379M1229 379L1230 380L1229 379z"/>
<path style="fill:#cd99c0; stroke:none;" d="M642.333 380.667L642.667 381.333L642.333 380.667M989 380L990 381L989 380M1229.33 380.667L1229.67 381.333L1229.33 380.667M406 381L407 382L406 381M1149 381L1149 382L1155 382L1149 381z"/>
<path style="fill:#b56aa3; stroke:none;" d="M406 382L407 383L406 382M642 382L643 383L642 382M988 382L989 383L988 382z"/>
<path style="fill:#cd99c0; stroke:none;" d="M1143.67 382.333L1144.33 382.667L1143.67 382.333z"/>
<path style="fill:#b56aa3; stroke:none;" d="M1145.67 382.333L1146.33 382.667L1145.67 382.333z"/>
<path style="fill:#932377; stroke:none;" d="M1147 382.425C1125.31 385.369 1103.76 389.506 1082 391.95C1073.66 392.887 1060.67 392.318 1054.8 399.329C1051.16 403.691 1052 409.706 1052 415L1052 450L1052 588L1052 626C1052 630.93 1050.81 637.763 1054.43 641.721C1059.75 647.522 1072.9 645 1080 645C1103.54 645 1131.98 649.402 1155 644.656C1162.68 643.072 1163 636.509 1163 630L1163 586L1163 429C1163 414.141 1170.25 379.269 1147 382.425z"/>
<path style="fill:#b56aa3; stroke:none;" d="M1156 382L1157 383L1156 382z"/>
<path style="fill:#cd99c0; stroke:none;" d="M988 383L989 384L988 383M1137.67 383.333L1138.33 383.667L1137.67 383.333z"/>
<path style="fill:#b56aa3; stroke:none;" d="M1139 383L1140 384L1139 383M1158 383L1159 384L1158 383M407 384L408 385L407 384z"/>
<path style="fill:#cd99c0; stroke:none;" d="M1130.67 384.333L1131.33 384.667L1130.67 384.333z"/>
<path style="fill:#b56aa3; stroke:none;" d="M1132.67 384.333L1133.33 384.667L1132.67 384.333M1159 384L1160 385L1159 384z"/>
<path style="fill:#cd99c0; stroke:none;" d="M408 385L409 386L408 385M641 385L642 386L641 385z"/>
<path style="fill:#b56aa3; stroke:none;" d="M987 385L988 386L987 385z"/>
<path style="fill:#cd99c0; stroke:none;" d="M1124.67 385.333L1125.33 385.667L1124.67 385.333z"/>
<path style="fill:#b56aa3; stroke:none;" d="M1126.67 385.333L1127.33 385.667L1126.67 385.333M1160 385L1161 386L1160 385M641 386L642 387L641 386z"/>
<path style="fill:#cd99c0; stroke:none;" d="M987.333 386.667L987.667 387.333L987.333 386.667M1117.67 386.333L1118.33 386.667L1117.67 386.333z"/>
<path style="fill:#b56aa3; stroke:none;" d="M1119.67 386.333L1120.33 386.667L1119.67 386.333M1161 386L1162 387L1161 386M1230 386L1230 390L1231 390L1230 386z"/>
<path style="fill:#cd99c0; stroke:none;" d="M1110.67 387.333L1111.33 387.667L1110.67 387.333z"/>
<path style="fill:#b56aa3; stroke:none;" d="M1112.67 387.333L1113.33 387.667L1112.67 387.333z"/>
<path style="fill:#cd99c0; stroke:none;" d="M1162 387L1163 388L1162 387M640 388L641 389L640 388M1103.67 388.333L1104.33 388.667L1103.67 388.333z"/>
<path style="fill:#b56aa3; stroke:none;" d="M1105.67 388.333L1106.33 388.667L1105.67 388.333z"/>
<path style="fill:#cd99c0; stroke:none;" d="M412 389L413 390L412 389z"/>
<path style="fill:#b56aa3; stroke:none;" d="M986 389L987 390L986 389z"/>
<path style="fill:#cd99c0; stroke:none;" d="M1096.67 389.333L1097.33 389.667L1096.67 389.333z"/>
<path style="fill:#b56aa3; stroke:none;" d="M1098.67 389.333L1099.33 389.667L1098.67 389.333z"/>
<path style="fill:#cd99c0; stroke:none;" d="M1163.33 389.667L1163.67 390.333L1163.33 389.667M414 390L415 391L414 390M639 390L640 391L639 390M986.333 390.667L986.667 391.333L986.333 390.667M1089.67 390.333L1090.33 390.667L1089.67 390.333z"/>
<path style="fill:#b56aa3; stroke:none;" d="M1091.67 390.333L1092.33 390.667L1091.67 390.333z"/>
<path style="fill:#cd99c0; stroke:none;" d="M1230 390L1230 965L1231 965L1231 558L1231 440C1231 425.962 1235.41 402.883 1230 390z"/>
<path style="fill:#b56aa3; stroke:none;" d="M416 391L417 392L416 391z"/>
<path style="fill:#cd99c0; stroke:none;" d="M417 391L418 392L417 391z"/>
<path style="fill:#b56aa3; stroke:none;" d="M639 391L640 392L639 391z"/>
<path style="fill:#cd99c0; stroke:none;" d="M1081 391L1081 392L1084 392L1081 391z"/>
<path style="fill:#b56aa3; stroke:none;" d="M1084.67 391.333L1085.33 391.667L1084.67 391.333M1163 391L1163 637L1164 637L1164 464L1164 414L1163 391M421 392L421 393L424 393L421 392z"/>
<path style="fill:#cd99c0; stroke:none;" d="M424.667 392.333L425.333 392.667L424.667 392.333M1073 392L1073 393L1076 393L1073 392z"/>
<path style="fill:#b56aa3; stroke:none;" d="M1076.67 392.333L1077.33 392.667L1076.67 392.333M429 393L429 394L432 394L429 393z"/>
<path style="fill:#cd99c0; stroke:none;" d="M432.667 393.333L433.333 393.667L432.667 393.333M638 393L639 394L638 393M1065 393L1065 394L1068 394L1065 393z"/>
<path style="fill:#b56aa3; stroke:none;" d="M1068.67 393.333L1069.33 393.667L1068.67 393.333M437 394L437 395L440 395L437 394z"/>
<path style="fill:#cd99c0; stroke:none;" d="M440.667 394.333L441.333 394.667L440.667 394.333z"/>
<path style="fill:#b56aa3; stroke:none;" d="M985.333 394.667L985.667 395.333L985.333 394.667z"/>
<path style="fill:#cd99c0; stroke:none;" d="M1061 394L1062 395L1061 394z"/>
<path style="fill:#b56aa3; stroke:none;" d="M1062 394L1063 395L1062 394M445 395L445 396L448 396L445 395z"/>
<path style="fill:#cd99c0; stroke:none;" d="M448 395L448 396L451 396L448 395M637 395L638 396L637 395M1058 395L1059 396L1058 395z"/>
<path style="fill:#b56aa3; stroke:none;" d="M1059 395L1060 396L1059 395M454 396L454 397L457 397L454 396z"/>
<path style="fill:#cd99c0; stroke:none;" d="M457 396L457 397L460 397L457 396z"/>
<path style="fill:#b56aa3; stroke:none;" d="M637 396L638 397L637 396z"/>
<path style="fill:#cd99c0; stroke:none;" d="M985.333 396.667L985.667 397.333L985.333 396.667z"/>
<path style="fill:#b56aa3; stroke:none;" d="M1057 396L1058 397L1057 396M463 397L463 398L466 398L463 397z"/>
<path style="fill:#cd99c0; stroke:none;" d="M466.667 397.333L467.333 397.667L466.667 397.333M914 397L915 398L914 397z"/>
<path style="fill:#b56aa3; stroke:none;" d="M1056 397L1057 398L1056 397M472 398L472 399L475 399L472 398z"/>
<path style="fill:#cd99c0; stroke:none;" d="M475 398L475 399L478 399L475 398z"/>
<path style="fill:#b56aa3; stroke:none;" d="M636 398L637 399L636 398M914 398L915 399L914 398M482.667 399.333L483.333 399.667L482.667 399.333z"/>
<path style="fill:#cd99c0; stroke:none;" d="M484 399L484 400L487 400L484 399z"/>
<path style="fill:#b56aa3; stroke:none;" d="M1054 399L1055 400L1054 399M491 400L491 401L494 401L491 400z"/>
<path style="fill:#cd99c0; stroke:none;" d="M494 400L494 401L498 401L494 400M635 400L636 401L635 400M913 400L914 401L913 400M1053 400L1054 401L1053 400z"/>
<path style="fill:#b56aa3; stroke:none;" d="M502.667 401.333L503.333 401.667L502.667 401.333z"/>
<path style="fill:#cd99c0; stroke:none;" d="M504 401L504 402L508 402L504 401z"/>
<path style="fill:#b56aa3; stroke:none;" d="M635 401L636 402L635 401M512 402L512 403L515 403L512 402z"/>
<path style="fill:#cd99c0; stroke:none;" d="M515 402L515 403L519 403L515 402M634 402L635 403L634 402z"/>
<path style="fill:#b56aa3; stroke:none;" d="M912 402L913 403L912 402M984 402L984 804L985 804L985 520L985 438L984 402z"/>
<path style="fill:#cd99c0; stroke:none;" d="M1052 402L1053 403L1052 402z"/>
<path style="fill:#b56aa3; stroke:none;" d="M523 403L523 404L527 404L523 403z"/>
<path style="fill:#cd99c0; stroke:none;" d="M527 403L527 404L531 404L527 403z"/>
<path style="fill:#b56aa3; stroke:none;" d="M634 403L635 404L634 403M911 403L912 404L911 403M535 404L535 405L539 405L535 404z"/>
<path style="fill:#cd99c0; stroke:none;" d="M539 404L539 405L543 405L539 404z"/>
<path style="fill:#b56aa3; stroke:none;" d="M910 404L911 405L910 404z"/>
<path style="fill:#cd99c0; stroke:none;" d="M1051.33 404.667L1051.67 405.333L1051.33 404.667z"/>
<path style="fill:#b56aa3; stroke:none;" d="M547.667 405.333L548.333 405.667L547.667 405.333z"/>
<path style="fill:#cd99c0; stroke:none;" d="M549 405L550 406L549 405M633 405L634 406L633 405z"/>
<path style="fill:#b56aa3; stroke:none;" d="M909 405L910 406L909 405z"/>
<path style="fill:#cd99c0; stroke:none;" d="M551 406L552 407L551 406M907 406L908 407L907 406z"/>
<path style="fill:#b56aa3; stroke:none;" d="M1051 406L1051 637L1052 637L1052 474L1052 427L1051 406M552 407L553 408L552 407z"/>
<path style="fill:#cd99c0; stroke:none;" d="M632 407L633 408L632 407M905 407L906 408L905 407z"/>
<path style="fill:#b56aa3; stroke:none;" d="M906 407L907 408L906 407M553 408L554 409L553 408M632 408L633 409L632 408z"/>
<path style="fill:#cd99c0; stroke:none;" d="M897 408L897 409L902 409L897 408z"/>
<path style="fill:#b56aa3; stroke:none;" d="M902.667 408.333L903.333 408.667L902.667 408.333M554 409L555 410L554 409z"/>
<path style="fill:#cd99c0; stroke:none;" d="M877 409L877 410L884 410L877 409z"/>
<path style="fill:#b56aa3; stroke:none;" d="M884 409L884 410L889 410L884 409z"/>
<path style="fill:#cd99c0; stroke:none;" d="M555 410L556 411L555 410M631 410L632 411L631 410M853 410L853 411L861 411L853 410z"/>
<path style="fill:#b56aa3; stroke:none;" d="M861 410L861 411L868 411L861 410M555 411L556 412L555 411z"/>
<path style="fill:#cd99c0; stroke:none;" d="M823 411L823 412L834 412L823 411z"/>
<path style="fill:#b56aa3; stroke:none;" d="M834 411L834 412L842 412L834 411z"/>
<path style="fill:#cd99c0; stroke:none;" d="M630 412L631 413L630 412M787 412L787 413L796 413L787 412z"/>
<path style="fill:#b56aa3; stroke:none;" d="M796 412L796 413L807 413L796 412z"/>
<path style="fill:#cd99c0; stroke:none;" d="M556 413L556 417L557 417L556 413z"/>
<path style="fill:#b56aa3; stroke:none;" d="M630 413L631 414L630 413M785 413L786 414L785 413M783 414L784 415L783 414M629 415L630 416L629 415M782 415L783 416L782 415M781 416L782 417L781 416z"/>
<path style="fill:#cd99c0; stroke:none;" d="M628 417L629 418L628 417M780 417L781 418L780 417M555 419L556 420L555 419M627 419L628 420L627 419M779 419L780 420L779 419z"/>
<path style="fill:#b56aa3; stroke:none;" d="M627 420L628 421L627 420M779.333 420.667L779.667 421.333L779.333 420.667M554 421L555 422L554 421z"/>
<path style="fill:#cd99c0; stroke:none;" d="M554 422L555 423L554 422M626 422L627 423L626 422M553 424L554 425L553 424M625 424L626 425L625 424z"/>
<path style="fill:#b56aa3; stroke:none;" d="M625 425L626 426L625 425M552 426L553 427L552 426z"/>
<path style="fill:#cd99c0; stroke:none;" d="M552 427L553 428L552 427z"/>
<path style="fill:#b56aa3; stroke:none;" d="M624 427L625 428L624 427z"/>
<path style="fill:#cd99c0; stroke:none;" d="M551 429L552 430L551 429M623 429L624 430L623 429z"/>
<path style="fill:#b56aa3; stroke:none;" d="M623 430L624 431L623 430M550 431L551 432L550 431z"/>
<path style="fill:#cd99c0; stroke:none;" d="M622 431L623 432L622 431z"/>
<path style="fill:#b56aa3; stroke:none;" d="M622 432L623 433L622 432M549 433L550 434L549 433z"/>
<path style="fill:#cd99c0; stroke:none;" d="M549 434L550 435L549 434M621 434L622 435L621 434M548 436L549 437L548 436M620 436L621 437L620 436z"/>
<path style="fill:#b56aa3; stroke:none;" d="M620 437L621 438L620 437M547 438L548 439L547 438z"/>
<path style="fill:#cd99c0; stroke:none;" d="M547 439L548 440L547 439M619 439L620 440L619 439M546 441L547 442L546 441M618 441L619 442L618 441z"/>
<path style="fill:#b56aa3; stroke:none;" d="M618 442L619 443L618 442M545 443L546 444L545 443z"/>
<path style="fill:#cd99c0; stroke:none;" d="M545 444L546 445L545 444z"/>
<path style="fill:#b56aa3; stroke:none;" d="M617 444L618 445L617 444M544 445L545 446L544 445z"/>
<path style="fill:#cd99c0; stroke:none;" d="M544 446L545 447L544 446M616 446L617 447L616 446z"/>
<path style="fill:#b56aa3; stroke:none;" d="M543 448L544 449L543 448z"/>
<path style="fill:#cd99c0; stroke:none;" d="M615 448L616 449L615 448z"/>
<path style="fill:#b56aa3; stroke:none;" d="M615 449L616 450L615 449M542 450L543 451L542 450z"/>
<path style="fill:#cd99c0; stroke:none;" d="M542 451L543 452L542 451M614 451L615 452L614 451M541 453L542 454L541 453M613 453L614 454L613 453z"/>
<path style="fill:#b56aa3; stroke:none;" d="M613 454L614 455L613 454M540 455L541 456L540 455z"/>
<path style="fill:#cd99c0; stroke:none;" d="M540 456L541 457L540 456z"/>
<path style="fill:#b56aa3; stroke:none;" d="M612 456L613 457L612 456z"/>
<path style="fill:#cd99c0; stroke:none;" d="M539 458L540 459L539 458M611 458L612 459L611 458z"/>
<path style="fill:#b56aa3; stroke:none;" d="M611 459L612 460L611 459M538 460L539 461L538 460M610 461L611 462L610 461M537 462L538 463L537 462z"/>
<path style="fill:#cd99c0; stroke:none;" d="M537 463L538 464L537 463M609 463L610 464L609 463M536 465L537 466L536 465M608 465L609 466L608 465z"/>
<path style="fill:#b56aa3; stroke:none;" d="M608 466L609 467L608 466M535 467L536 468L535 467z"/>
<path style="fill:#cd99c0; stroke:none;" d="M535 468L536 469L535 468M607 468L608 469L607 468M534 470L535 471L534 470M606 470L607 471L606 470z"/>
<path style="fill:#b56aa3; stroke:none;" d="M606 471L607 472L606 471M533 472L534 473L533 472z"/>
<path style="fill:#cd99c0; stroke:none;" d="M533 473L534 474L533 473z"/>
<path style="fill:#b56aa3; stroke:none;" d="M605 473L606 474L605 473M532 474L533 475L532 474z"/>
<path style="fill:#cd99c0; stroke:none;" d="M532 475L533 476L532 475M604 475L605 476L604 475z"/>
<path style="fill:#b56aa3; stroke:none;" d="M604 476L605 477L604 476M531 477L532 478L531 477z"/>
<path style="fill:#cd99c0; stroke:none;" d="M603 477L604 478L603 477z"/>
<path style="fill:#b56aa3; stroke:none;" d="M603 478L604 479L603 478M530 479L531 480L530 479z"/>
<path style="fill:#cd99c0; stroke:none;" d="M530 480L531 481L530 480M602 480L603 481L602 480M529 482L530 483L529 482M601 482L602 483L601 482z"/>
<path style="fill:#b56aa3; stroke:none;" d="M601 483L602 484L601 483M528 484L529 485L528 484z"/>
<path style="fill:#cd99c0; stroke:none;" d="M528 485L529 486L528 485M600 485L601 486L600 485M527 487L528 488L527 487M599 487L600 488L599 487z"/>
<path style="fill:#b56aa3; stroke:none;" d="M599 488L600 489L599 488M526 489L527 490L526 489M598 490L599 491L598 490M525 491L526 492L525 491z"/>
<path style="fill:#cd99c0; stroke:none;" d="M525 492L526 493L525 492M597 492L598 493L597 492M524 494L525 495L524 494M596 494L597 495L596 494z"/>
<path style="fill:#b56aa3; stroke:none;" d="M596 495L597 496L596 495M523 496L524 497L523 496z"/>
<path style="fill:#cd99c0; stroke:none;" d="M523 497L524 498L523 497M595 497L596 498L595 497M522 499L523 500L522 499M594 499L595 500L594 499z"/>
<path style="fill:#b56aa3; stroke:none;" d="M594 500L595 501L594 500M779.333 500.667L779.667 501.333L779.333 500.667M521 501L522 502L521 501z"/>
<path style="fill:#cd99c0; stroke:none;" d="M521 502L522 503L521 502z"/>
<path style="fill:#b56aa3; stroke:none;" d="M593 502L594 503L593 502z"/>
<path style="fill:#cd99c0; stroke:none;" d="M779 502L780 503L779 502M520 504L521 505L520 504M592 504L593 505L592 504M780 504L781 505L780 504z"/>
<path style="fill:#b56aa3; stroke:none;" d="M592 505L593 506L592 505M781 505L782 506L781 505M519 506L520 507L519 506z"/>
<path style="fill:#cd99c0; stroke:none;" d="M591 506L592 507L591 506z"/>
<path style="fill:#b56aa3; stroke:none;" d="M782 506L783 507L782 506M591 507L592 508L591 507M783 507L784 508L783 507M518 508L519 509L518 508M785 508L786 509L785 508z"/>
<path style="fill:#cd99c0; stroke:none;" d="M518 509L519 510L518 509M590 509L591 510L590 509M787 509L787 510L902 510L867 509L787 509z"/>
<path style="fill:#b56aa3; stroke:none;" d="M902.667 509.333L903.333 509.667L902.667 509.333z"/>
<path style="fill:#cd99c0; stroke:none;" d="M905 510L906 511L905 510M517 511L518 512L517 511M589 511L590 512L589 511M907 511L908 512L907 511z"/>
<path style="fill:#b56aa3; stroke:none;" d="M589 512L590 513L589 512M909 512L910 513L909 512M516 513L517 514L516 513M910 513L911 514L910 513z"/>
<path style="fill:#cd99c0; stroke:none;" d="M516 514L517 515L516 514M588 514L589 515L588 514z"/>
<path style="fill:#b56aa3; stroke:none;" d="M911 514L912 515L911 514M912 515L913 516L912 515z"/>
<path style="fill:#cd99c0; stroke:none;" d="M515 516L516 517L515 516M587 516L588 517L587 516z"/>
<path style="fill:#b56aa3; stroke:none;" d="M587 517L588 518L587 517z"/>
<path style="fill:#cd99c0; stroke:none;" d="M913 517L914 518L913 517z"/>
<path style="fill:#b56aa3; stroke:none;" d="M514 518L515 519L514 518z"/>
<path style="fill:#cd99c0; stroke:none;" d="M514 519L515 520L514 519z"/>
<path style="fill:#b56aa3; stroke:none;" d="M586 519L587 520L586 519M914 519L915 520L914 519M513 520L514 521L513 520z"/>
<path style="fill:#cd99c0; stroke:none;" d="M914 520L915 521L914 520M513 521L514 522L513 521M585 521L586 522L585 521z"/>
<path style="fill:#b56aa3; stroke:none;" d="M512 523L513 524L512 523z"/>
<path style="fill:#cd99c0; stroke:none;" d="M584 523L585 524L584 523z"/>
<path style="fill:#b56aa3; stroke:none;" d="M584 524L585 525L584 524M915 524L915 562L916 562C916 551.089 919.211 534.036 915 524M511 525L512 526L511 525z"/>
<path style="fill:#cd99c0; stroke:none;" d="M511 526L512 527L511 526M583 526L584 527L583 526M510 528L511 529L510 528M582 528L583 529L582 528z"/>
<path style="fill:#b56aa3; stroke:none;" d="M582 529L583 530L582 529M509 530L510 531L509 530z"/>
<path style="fill:#cd99c0; stroke:none;" d="M509 531L510 532L509 531z"/>
<path style="fill:#b56aa3; stroke:none;" d="M581 531L582 532L581 531z"/>
<path style="fill:#cd99c0; stroke:none;" d="M508 533L509 534L508 533M580 533L581 534L580 533z"/>
<path style="fill:#b56aa3; stroke:none;" d="M580 534L581 535L580 534M507 535L508 536L507 535M579 536L580 537L579 536M506 537L507 538L506 537z"/>
<path style="fill:#cd99c0; stroke:none;" d="M506 538L507 539L506 538M578 538L579 539L578 538M505 540L506 541L505 540M577 540L578 541L577 540z"/>
<path style="fill:#b56aa3; stroke:none;" d="M577 541L578 542L577 541M504 542L505 543L504 542z"/>
<path style="fill:#cd99c0; stroke:none;" d="M504 543L505 544L504 543M576 543L577 544L576 543M503 545L504 546L503 545M575 545L576 546L575 545z"/>
<path style="fill:#b56aa3; stroke:none;" d="M575 546L576 547L575 546M502 547L503 548L502 547z"/>
<path style="fill:#cd99c0; stroke:none;" d="M502 548L503 549L502 548z"/>
<path style="fill:#b56aa3; stroke:none;" d="M574 548L575 549L574 548M501 549L502 550L501 549z"/>
<path style="fill:#cd99c0; stroke:none;" d="M501 550L502 551L501 550M573 550L574 551L573 550z"/>
<path style="fill:#b56aa3; stroke:none;" d="M573 551L574 552L573 551M500 552L501 553L500 552z"/>
<path style="fill:#cd99c0; stroke:none;" d="M572 552L573 553L572 552z"/>
<path style="fill:#b56aa3; stroke:none;" d="M572 553L573 554L572 553M499 554L500 555L499 554z"/>
<path style="fill:#cd99c0; stroke:none;" d="M499 555L500 556L499 555M571 555L572 556L571 555M498 557L499 558L498 557M570 557L571 558L570 557z"/>
<path style="fill:#b56aa3; stroke:none;" d="M570 558L571 559L570 558M497 559L498 560L497 559z"/>
<path style="fill:#cd99c0; stroke:none;" d="M497 560L498 561L497 560M569 560L570 561L569 560M496 562L497 563L496 562M568 562L569 563L568 562z"/>
<path style="fill:#b56aa3; stroke:none;" d="M568 563L569 564L568 563M495 564L496 565L495 564M567 565L568 566L567 565z"/>
<path style="fill:#cd99c0; stroke:none;" d="M914 565L915 566L914 565z"/>
<path style="fill:#b56aa3; stroke:none;" d="M494 566L495 567L494 566z"/>
<path style="fill:#cd99c0; stroke:none;" d="M494 567L495 568L494 567M566 567L567 568L566 567M913 567L914 568L913 567z"/>
<path style="fill:#b56aa3; stroke:none;" d="M913 568L914 569L913 568z"/>
<path style="fill:#cd99c0; stroke:none;" d="M493 569L494 570L493 569M565 569L566 570L565 569M912 569L913 570L912 569z"/>
<path style="fill:#b56aa3; stroke:none;" d="M565 570L566 571L565 570M492 571L493 572L492 571z"/>
<path style="fill:#cd99c0; stroke:none;" d="M492 572L493 573L492 572M564 572L565 573L564 572M908 573L909 574L908 573M491 574L492 575L491 574M563 574L564 575L563 574M906 574L907 575L906 574z"/>
<path style="fill:#b56aa3; stroke:none;" d="M907 574L908 575L907 574M563 575L564 576L563 575z"/>
<path style="fill:#cd99c0; stroke:none;" d="M903.667 575.333L904.333 575.667L903.667 575.333z"/>
<path style="fill:#b56aa3; stroke:none;" d="M490 576L491 577L490 576z"/>
<path style="fill:#cd99c0; stroke:none;" d="M786 576L787 577L786 576z"/>
<path style="fill:#b56aa3; stroke:none;" d="M787 576L788 577L787 576z"/>
<path style="fill:#cd99c0; stroke:none;" d="M490 577L491 578L490 577z"/>
<path style="fill:#b56aa3; stroke:none;" d="M562 577L563 578L562 577M784 577L785 578L784 577z"/>
<path style="fill:#cd99c0; stroke:none;" d="M782 578L783 579L782 578M489 579L490 580L489 579M561 579L562 580L561 579M781 579L782 580L781 579z"/>
<path style="fill:#b56aa3; stroke:none;" d="M561 580L562 581L561 580M488 581L489 582L488 581z"/>
<path style="fill:#cd99c0; stroke:none;" d="M560 581L561 582L560 581z"/>
<path style="fill:#b56aa3; stroke:none;" d="M780 581L781 582L780 581M560 582L561 583L560 582M487 583L488 584L487 583z"/>
<path style="fill:#cd99c0; stroke:none;" d="M779 583L780 584L779 583M487 584L488 585L487 584M559 584L560 585L559 584z"/>
<path style="fill:#b56aa3; stroke:none;" d="M779 584L780 585L779 584z"/>
<path style="fill:#cd99c0; stroke:none;" d="M486 586L487 587L486 586M558 586L559 587L558 586z"/>
<path style="fill:#b56aa3; stroke:none;" d="M558 587L559 588L558 587M485 588L486 589L485 588z"/>
<path style="fill:#cd99c0; stroke:none;" d="M485 589L486 590L485 589M557 589L558 590L557 589M484 591L485 592L484 591M556 591L557 592L556 591z"/>
<path style="fill:#b56aa3; stroke:none;" d="M556 592L557 593L556 592M483 593L484 594L483 593z"/>
<path style="fill:#cd99c0; stroke:none;" d="M483 594L484 595L483 594z"/>
<path style="fill:#b56aa3; stroke:none;" d="M555 594L556 595L555 594M482 595L483 596L482 595z"/>
<path style="fill:#cd99c0; stroke:none;" d="M482 596L483 597L482 596M554 596L555 597L554 596z"/>
<path style="fill:#b56aa3; stroke:none;" d="M481 598L482 599L481 598z"/>
<path style="fill:#cd99c0; stroke:none;" d="M553 598L554 599L553 598z"/>
<path style="fill:#b56aa3; stroke:none;" d="M553 599L554 600L553 599M480 600L481 601L480 600z"/>
<path style="fill:#cd99c0; stroke:none;" d="M480 601L481 602L480 601M552 601L553 602L552 601M479 603L480 604L479 603M551 603L552 604L551 603z"/>
<path style="fill:#b56aa3; stroke:none;" d="M551 604L552 605L551 604M478 605L479 606L478 605z"/>
<path style="fill:#cd99c0; stroke:none;" d="M478 606L479 607L478 606z"/>
<path style="fill:#b56aa3; stroke:none;" d="M550 606L551 607L550 606z"/>
<path style="fill:#cd99c0; stroke:none;" d="M477 608L478 609L477 608M549 608L550 609L549 608z"/>
<path style="fill:#b56aa3; stroke:none;" d="M549 609L550 610L549 609M476 610L477 611L476 610M548 611L549 612L548 611M475 612L476 613L475 612z"/>
<path style="fill:#cd99c0; stroke:none;" d="M475 613L476 614L475 613M547 613L548 614L547 613M474 615L475 616L474 615M546 615L547 616L546 615z"/>
<path style="fill:#b56aa3; stroke:none;" d="M546 616L547 617L546 616M473 617L474 618L473 617z"/>
<path style="fill:#cd99c0; stroke:none;" d="M473 618L474 619L473 618M545 618L546 619L545 618M472 620L473 621L472 620M544 620L545 621L544 620z"/>
<path style="fill:#b56aa3; stroke:none;" d="M544 621L545 622L544 621M471 622L472 623L471 622z"/>
<path style="fill:#cd99c0; stroke:none;" d="M471 623L472 624L471 623z"/>
<path style="fill:#b56aa3; stroke:none;" d="M543 623L544 624L543 623M470 624L471 625L470 624z"/>
<path style="fill:#cd99c0; stroke:none;" d="M470 625L471 626L470 625M542 625L543 626L542 625z"/>
<path style="fill:#b56aa3; stroke:none;" d="M542 626L543 627L542 626M469 627L470 628L469 627z"/>
<path style="fill:#cd99c0; stroke:none;" d="M541 627L542 628L541 627z"/>
<path style="fill:#b56aa3; stroke:none;" d="M541 628L542 629L541 628M468 629L469 630L468 629z"/>
<path style="fill:#cd99c0; stroke:none;" d="M468 630L469 631L468 630M540 630L541 631L540 630M467 632L468 633L467 632M539 632L540 633L539 632z"/>
<path style="fill:#b56aa3; stroke:none;" d="M539 633L540 634L539 633M466 634L467 635L466 634z"/>
<path style="fill:#cd99c0; stroke:none;" d="M466 635L467 636L466 635M538 635L539 636L538 635M465 637L466 638L465 637M537 637L538 638L537 637M1051 637L1052 638L1051 637M1163 637L1164 638L1163 637z"/>
<path style="fill:#b56aa3; stroke:none;" d="M537 638L538 639L537 638M464 639L465 640L464 639M1052 639L1053 640L1052 639M1162 639L1163 640L1162 639M536 640L537 641L536 640M463 641L464 642L463 641z"/>
<path style="fill:#cd99c0; stroke:none;" d="M1053 641L1054 642L1053 641M1161 641L1162 642L1161 641M463 642L464 643L463 642M535 642L536 643L535 642M1054 642L1055 643L1054 642M1160 642L1161 643L1160 642M1055 643L1056 644L1055 643M1159 643L1160 644L1159 643z"/>
<path style="fill:#b56aa3; stroke:none;" d="M462 644L463 645L462 644z"/>
<path style="fill:#cd99c0; stroke:none;" d="M534 644L535 645L534 644M1057 644L1058 645L1057 644z"/>
<path style="fill:#b56aa3; stroke:none;" d="M1058 644L1059 645L1058 644M1156 644L1157 645L1156 644z"/>
<path style="fill:#cd99c0; stroke:none;" d="M1157 644L1158 645L1157 644z"/>
<path style="fill:#b56aa3; stroke:none;" d="M534 645L535 646L534 645z"/>
<path style="fill:#cd99c0; stroke:none;" d="M1061 645L1061 646L1154 646L1125 645L1061 645z"/>
<path style="fill:#b56aa3; stroke:none;" d="M461 646L462 647L461 646z"/>
<path style="fill:#cd99c0; stroke:none;" d="M461 647L462 648L461 647M533 647L534 648L533 647M460 649L461 650L460 649M532 649L533 650L532 649z"/>
<path style="fill:#b56aa3; stroke:none;" d="M532 650L533 651L532 650M459 651L460 652L459 651z"/>
<path style="fill:#cd99c0; stroke:none;" d="M459 652L460 653L459 652z"/>
<path style="fill:#b56aa3; stroke:none;" d="M531 652L532 653L531 652z"/>
<path style="fill:#cd99c0; stroke:none;" d="M458 654L459 655L458 654M530 654L531 655L530 654z"/>
<path style="fill:#b56aa3; stroke:none;" d="M530 655L531 656L530 655M457 656L458 657L457 656z"/>
<path style="fill:#cd99c0; stroke:none;" d="M529 656L530 657L529 656z"/>
<path style="fill:#b56aa3; stroke:none;" d="M529 657L530 658L529 657M456 658L457 659L456 658z"/>
<path style="fill:#cd99c0; stroke:none;" d="M456 659L457 660L456 659M528 659L529 660L528 659M455 661L456 662L455 661M527 661L528 662L527 661z"/>
<path style="fill:#b56aa3; stroke:none;" d="M527 662L528 663L527 662M454 663L455 664L454 663z"/>
<path style="fill:#cd99c0; stroke:none;" d="M454 664L455 665L454 664M526 664L527 665L526 664M453 666L454 667L453 666M525 666L526 667L525 666z"/>
<path style="fill:#b56aa3; stroke:none;" d="M525 667L526 668L525 667M452 668L453 669L452 668z"/>
<path style="fill:#cd99c0; stroke:none;" d="M452 669L453 670L452 669z"/>
<path style="fill:#b56aa3; stroke:none;" d="M524 669L525 670L524 669M451 670L452 671L451 670z"/>
<path style="fill:#cd99c0; stroke:none;" d="M451 671L452 672L451 671M523 671L524 672L523 671z"/>
<path style="fill:#b56aa3; stroke:none;" d="M450 673L451 674L450 673z"/>
<path style="fill:#cd99c0; stroke:none;" d="M522 673L523 674L522 673z"/>
<path style="fill:#b56aa3; stroke:none;" d="M522 674L523 675L522 674M449 675L450 676L449 675z"/>
<path style="fill:#cd99c0; stroke:none;" d="M449 676L450 677L449 676M521 676L522 677L521 676M448 678L449 679L448 678M520 678L521 679L520 678z"/>
<path style="fill:#b56aa3; stroke:none;" d="M520 679L521 680L520 679M447 680L448 681L447 680z"/>
<path style="fill:#cd99c0; stroke:none;" d="M447 681L448 682L447 681M519 681L520 682L519 681M446 683L447 684L446 683M518 683L519 684L518 683z"/>
<path style="fill:#b56aa3; stroke:none;" d="M518 684L519 685L518 684M445 685L446 686L445 685M517 686L518 687L517 686M444 687L445 688L444 687z"/>
<path style="fill:#cd99c0; stroke:none;" d="M444 688L445 689L444 688M516 688L517 689L516 688M443 690L444 691L443 690M515 690L516 691L515 690z"/>
<path style="fill:#b56aa3; stroke:none;" d="M515 691L516 692L515 691M442 692L443 693L442 692z"/>
<path style="fill:#cd99c0; stroke:none;" d="M442 693L443 694L442 693M514 693L515 694L514 693M441 695L442 696L441 695M513 695L514 696L513 695z"/>
<path style="fill:#b56aa3; stroke:none;" d="M513 696L514 697L513 696M440 697L441 698L440 697z"/>
<path style="fill:#cd99c0; stroke:none;" d="M440 698L441 699L440 698z"/>
<path style="fill:#b56aa3; stroke:none;" d="M512 698L513 699L512 698M439 699L440 700L439 699z"/>
<path style="fill:#cd99c0; stroke:none;" d="M439 700L440 701L439 700M511 700L512 701L511 700z"/>
<path style="fill:#b56aa3; stroke:none;" d="M511 701L512 702L511 701M438 702L439 703L438 702z"/>
<path style="fill:#cd99c0; stroke:none;" d="M510 702L511 703L510 702z"/>
<path style="fill:#b56aa3; stroke:none;" d="M510 703L511 704L510 703M437 704L438 705L437 704z"/>
<path style="fill:#cd99c0; stroke:none;" d="M437 705L438 706L437 705M509 705L510 706L509 705M436 707L437 708L436 707M508 707L509 708L508 707z"/>
<path style="fill:#b56aa3; stroke:none;" d="M508 708L509 709L508 708M435 709L436 710L435 709z"/>
<path style="fill:#cd99c0; stroke:none;" d="M435 710L436 711L435 710M507 710L508 711L507 710M434 712L435 713L434 712M506 712L507 713L506 712M1057 712L1058 713L1057 712z"/>
<path style="fill:#b56aa3; stroke:none;" d="M1058 712L1059 713L1058 712M1156 712L1157 713L1156 712z"/>
<path style="fill:#cd99c0; stroke:none;" d="M1157 712L1158 713L1157 712z"/>
<path style="fill:#b56aa3; stroke:none;" d="M506 713L507 714L506 713M1056 713L1057 714L1056 713M1158 713L1159 714L1158 713M433 714L434 715L433 714z"/>
<path style="fill:#cd99c0; stroke:none;" d="M1054 714L1055 715L1054 714M1160 714L1161 715L1160 714z"/>
<path style="fill:#b56aa3; stroke:none;" d="M505 715L506 716L505 715z"/>
<path style="fill:#cd99c0; stroke:none;" d="M1053 715L1054 716L1053 715M1161 715L1162 716L1161 715z"/>
<path style="fill:#b56aa3; stroke:none;" d="M432 716L433 717L432 716z"/>
<path style="fill:#cd99c0; stroke:none;" d="M432 717L433 718L432 717M504 717L505 718L504 717z"/>
<path style="fill:#b56aa3; stroke:none;" d="M1052 717L1053 718L1052 717M1162 717L1163 718L1162 717M431 719L432 720L431 719z"/>
<path style="fill:#cd99c0; stroke:none;" d="M503 719L504 720L503 719M1051 719L1052 720L1051 719M1163 719L1164 720L1163 719z"/>
<path style="fill:#b56aa3; stroke:none;" d="M503 720L504 721L503 720M1051 720L1051 806L1052 806L1052 747L1051 720M1163 720L1163 915L1164 915L1164 778L1164 739L1163 720M430 721L431 722L430 721z"/>
<path style="fill:#cd99c0; stroke:none;" d="M430 722L431 723L430 722M502 722L503 723L502 722M429 724L430 725L429 724M501 724L502 725L501 724z"/>
<path style="fill:#b56aa3; stroke:none;" d="M501 725L502 726L501 725M428 726L429 727L428 726z"/>
<path style="fill:#cd99c0; stroke:none;" d="M428 727L429 728L428 727z"/>
<path style="fill:#b56aa3; stroke:none;" d="M500 727L501 728L500 727z"/>
<path style="fill:#cd99c0; stroke:none;" d="M427 729L428 730L427 729M499 729L500 730L499 729z"/>
<path style="fill:#b56aa3; stroke:none;" d="M779 729L780 730L779 729M499 730L500 731L499 730z"/>
<path style="fill:#cd99c0; stroke:none;" d="M779 730L780 731L779 730z"/>
<path style="fill:#b56aa3; stroke:none;" d="M426 731L427 732L426 731z"/>
<path style="fill:#cd99c0; stroke:none;" d="M498 731L499 732L498 731z"/>
<path style="fill:#b56aa3; stroke:none;" d="M498 732L499 733L498 732M780 732L781 733L780 732M425 733L426 734L425 733z"/>
<path style="fill:#cd99c0; stroke:none;" d="M425 734L426 735L425 734M497 734L498 735L497 734M781 734L782 735L781 734z"/>
<path style="fill:#b56aa3; stroke:none;" d="M497 735L498 736L497 735z"/>
<path style="fill:#cd99c0; stroke:none;" d="M782 735L783 736L782 735M424 736L425 737L424 736z"/>
<path style="fill:#b56aa3; stroke:none;" d="M784 736L785 737L784 736M786.667 737.333L787.333 737.667L786.667 737.333M423 738L424 739L423 738z"/>
<path style="fill:#cd99c0; stroke:none;" d="M800 738L800 739L818 739L800 738z"/>
<path style="fill:#b56aa3; stroke:none;" d="M818 738L818 739L826 739L818 738z"/>
<path style="fill:#cd99c0; stroke:none;" d="M423 739L424 740L423 739M839 739L839 740L850 740L839 739z"/>
<path style="fill:#b56aa3; stroke:none;" d="M850 739L850 740L856 740L850 739M621 740L621 741L626 741L621 740z"/>
<path style="fill:#cd99c0; stroke:none;" d="M626 740L626 741L629 741L626 740z"/>
<path style="fill:#b56aa3; stroke:none;" d="M629.667 740.333L630.333 740.667L629.667 740.333z"/>
<path style="fill:#cd99c0; stroke:none;" d="M866 740L866 741L875 741L866 740z"/>
<path style="fill:#b56aa3; stroke:none;" d="M875 740L875 741L880 741L875 740z"/>
<path style="fill:#cd99c0; stroke:none;" d="M422 741L423 742L422 741z"/>
<path style="fill:#b56aa3; stroke:none;" d="M497 741L498 742L497 741M600 741L600 742L606 742L600 741z"/>
<path style="fill:#cd99c0; stroke:none;" d="M606 741L606 742L613 742L606 741M632 741L633 742L632 741z"/>
<path style="fill:#b56aa3; stroke:none;" d="M633 741L634 742L633 741z"/>
<path style="fill:#cd99c0; stroke:none;" d="M888 741L888 742L895 742L888 741z"/>
<path style="fill:#b56aa3; stroke:none;" d="M895 741L895 742L900 742L895 741z"/>
<path style="fill:#cd99c0; stroke:none;" d="M497 742L498 743L497 742z"/>
<path style="fill:#b56aa3; stroke:none;" d="M583 742L583 743L588 743L583 742z"/>
<path style="fill:#cd99c0; stroke:none;" d="M588 742L588 743L594 743L588 742M635 742L636 743L635 742M903.667 742.333L904.333 742.667L903.667 742.333z"/>
<path style="fill:#b56aa3; stroke:none;" d="M421 743L422 744L421 743M498 743L499 744L498 743M567 743L567 744L571 744L567 743z"/>
<path style="fill:#cd99c0; stroke:none;" d="M571 743L571 744L577 744L571 743M906 743L907 744L906 743z"/>
<path style="fill:#b56aa3; stroke:none;" d="M907 743L908 744L907 743z"/>
<path style="fill:#cd99c0; stroke:none;" d="M421 744L422 745L421 744z"/>
<path style="fill:#b56aa3; stroke:none;" d="M553 744L553 745L557 745L553 744z"/>
<path style="fill:#cd99c0; stroke:none;" d="M557 744L557 745L561 745L557 744z"/>
<path style="fill:#b56aa3; stroke:none;" d="M638 744L639 745L638 744z"/>
<path style="fill:#cd99c0; stroke:none;" d="M908 744L909 745L908 744z"/>
<path style="fill:#b56aa3; stroke:none;" d="M420 745L421 746L420 745M539 745L539 746L543 746L539 745z"/>
<path style="fill:#cd99c0; stroke:none;" d="M543 745L543 746L547 746L543 745z"/>
<path style="fill:#b56aa3; stroke:none;" d="M639 745L640 746L639 745z"/>
<path style="fill:#cd99c0; stroke:none;" d="M420 746L421 747L420 746z"/>
<path style="fill:#b56aa3; stroke:none;" d="M501 746L502 747L501 746M527 746L527 747L530 747L527 746z"/>
<path style="fill:#cd99c0; stroke:none;" d="M530 746L530 747L534 747L530 746M502 747L503 748L502 747z"/>
<path style="fill:#b56aa3; stroke:none;" d="M503 747L504 748L503 747M515 747L515 748L518 748L515 747z"/>
<path style="fill:#cd99c0; stroke:none;" d="M518 747L518 748L522 748L518 747M640 747L641 748L640 747z"/>
<path style="fill:#b56aa3; stroke:none;" d="M419 748L420 749L419 748z"/>
<path style="fill:#cd99c0; stroke:none;" d="M505 748L505 749L510 749L505 748z"/>
<path style="fill:#b56aa3; stroke:none;" d="M641 748L642 749L641 748z"/>
<path style="fill:#cd99c0; stroke:none;" d="M912 748L913 749L912 748M641 749L642 750L641 749z"/>
<path style="fill:#b56aa3; stroke:none;" d="M913 749L914 750L913 749M418 750L419 751L418 750z"/>
<path style="fill:#cd99c0; stroke:none;" d="M913 750L914 751L913 750M418 751L419 752L418 751M642.333 751.667L642.667 752.333L642.333 751.667z"/>
<path style="fill:#b56aa3; stroke:none;" d="M914 751L915 752L914 751z"/>
<path style="fill:#cd99c0; stroke:none;" d="M914 752L915 753L914 752M417 753L418 754L417 753z"/>
<path style="fill:#b56aa3; stroke:none;" d="M416 755L417 756L416 755z"/>
<path style="fill:#cd99c0; stroke:none;" d="M416 756L417 757L416 756z"/>
<path style="fill:#b56aa3; stroke:none;" d="M915 756L915 794L916 794C916 783.089 919.211 766.036 915 756z"/>
<path style="fill:#cd99c0; stroke:none;" d="M415 758L416 759L415 758z"/>
<path style="fill:#b56aa3; stroke:none;" d="M414 760L415 761L414 760M413 762L414 763L413 762z"/>
<path style="fill:#cd99c0; stroke:none;" d="M413 763L414 764L413 763M412 765L413 766L412 765z"/>
<path style="fill:#b56aa3; stroke:none;" d="M411 767L412 768L411 767z"/>
<path style="fill:#cd99c0; stroke:none;" d="M411 768L412 769L411 768M410 770L411 771L410 770z"/>
<path style="fill:#b56aa3; stroke:none;" d="M409 772L410 773L409 772z"/>
<path style="fill:#cd99c0; stroke:none;" d="M409 773L410 774L409 773z"/>
<path style="fill:#b56aa3; stroke:none;" d="M408 774L409 775L408 774M712.333 774.667L712.667 775.333L712.333 774.667z"/>
<path style="fill:#cd99c0; stroke:none;" d="M408 775L409 776L408 775z"/>
<path style="fill:#b56aa3; stroke:none;" d="M407 777L408 778L407 777z"/>
<path style="fill:#cd99c0; stroke:none;" d="M407 778L408 779L407 778M713 778L714 779L713 778z"/>
<path style="fill:#b56aa3; stroke:none;" d="M713.333 779.667L713.667 780.333L713.333 779.667M406 780L407 781L406 780z"/>
<path style="fill:#cd99c0; stroke:none;" d="M406 781L407 782L406 781M714 782L715 783L714 782M715 784L716 785L715 784z"/>
<path style="fill:#b56aa3; stroke:none;" d="M405 785L405 793L406 793L405 785M715 785L716 786L715 785z"/>
<path style="fill:#cd99c0; stroke:none;" d="M716 786L717 787L716 786z"/>
<path style="fill:#b56aa3; stroke:none;" d="M716 787L717 788L716 787z"/>
<path style="fill:#cd99c0; stroke:none;" d="M717 788L718 789L717 788z"/>
<path style="fill:#b56aa3; stroke:none;" d="M718 790L719 791L718 790z"/>
<path style="fill:#cd99c0; stroke:none;" d="M719 791L720 792L719 791M720 792L721 793L720 792M642 795L643 796L642 795M406 796L407 797L406 796z"/>
<path style="fill:#b56aa3; stroke:none;" d="M642 796L643 797L642 796z"/>
<path style="fill:#cd99c0; stroke:none;" d="M724 796L725 797L724 796z"/>
<path style="fill:#b56aa3; stroke:none;" d="M406 797L407 798L406 797z"/>
<path style="fill:#cd99c0; stroke:none;" d="M725 797L726 798L725 797M914 797L915 798L914 797M641 798L642 799L641 798z"/>
<path style="fill:#b56aa3; stroke:none;" d="M726 798L727 799L726 798M914 798L915 799L914 798z"/>
<path style="fill:#cd99c0; stroke:none;" d="M407 799L408 800L407 799z"/>
<path style="fill:#b56aa3; stroke:none;" d="M641 799L642 800L641 799z"/>
<path style="fill:#cd99c0; stroke:none;" d="M728 799L729 800L728 799z"/>
<path style="fill:#b56aa3; stroke:none;" d="M407 800L408 801L407 800z"/>
<path style="fill:#cd99c0; stroke:none;" d="M640 800L641 801L640 800M730 800L731 801L730 800M913 800L914 801L913 800M732 801L733 802L732 801M408 802L409 803L408 802z"/>
<path style="fill:#b56aa3; stroke:none;" d="M734 802L735 803L734 802z"/>
<path style="fill:#cd99c0; stroke:none;" d="M735 802L736 803L735 802z"/>
<path style="fill:#b56aa3; stroke:none;" d="M912 802L913 803L912 802M737 803L738 804L737 803z"/>
<path style="fill:#cd99c0; stroke:none;" d="M738.667 803.333L739.333 803.667L738.667 803.333z"/>
<path style="fill:#b56aa3; stroke:none;" d="M911 803L912 804L911 803z"/>
<path style="fill:#cd99c0; stroke:none;" d="M409 804L410 805L409 804M636 804L637 805L636 804z"/>
<path style="fill:#b56aa3; stroke:none;" d="M742 804L742 805L758 805L742 804z"/>
<path style="fill:#cd99c0; stroke:none;" d="M758 804L758 805L793 805L758 804M910 804L911 805L910 804z"/>
<path style="fill:#b56aa3; stroke:none;" d="M635 805L636 806L635 805M811 805L811 806L821 806L811 805z"/>
<path style="fill:#cd99c0; stroke:none;" d="M821 805L821 806L832 806L821 805z"/>
<path style="fill:#b56aa3; stroke:none;" d="M909 805L910 806L909 805z"/>
<path style="fill:#cd99c0; stroke:none;" d="M985 805L986 806L985 805M410 806L411 807L410 806M632 806L633 807L632 806z"/>
<path style="fill:#b56aa3; stroke:none;" d="M633 806L634 807L633 806M844 806L844 807L851 807L844 806z"/>
<path style="fill:#cd99c0; stroke:none;" d="M851 806L851 807L860 807L851 806M907 806L908 807L907 806z"/>
<path style="fill:#b56aa3; stroke:none;" d="M985 806L986 807L985 806z"/>
<path style="fill:#cd99c0; stroke:none;" d="M619 807L619 808L626 808L619 807z"/>
<path style="fill:#b56aa3; stroke:none;" d="M626 807L626 808L630 808L626 807M869 807L869 808L876 808L869 807z"/>
<path style="fill:#cd99c0; stroke:none;" d="M876 807L876 808L882 808L876 807M905 807L906 808L905 807z"/>
<path style="fill:#b56aa3; stroke:none;" d="M906 807L907 808L906 807M411 808L412 809L411 808z"/>
<path style="fill:#cd99c0; stroke:none;" d="M599 808L599 809L606 809L599 808z"/>
<path style="fill:#b56aa3; stroke:none;" d="M606 808L606 809L611 809L606 808M890 808L890 809L896 809L890 808z"/>
<path style="fill:#cd99c0; stroke:none;" d="M896 808L896 809L902 809L896 808z"/>
<path style="fill:#b56aa3; stroke:none;" d="M902.667 808.333L903.333 808.667L902.667 808.333z"/>
<path style="fill:#cd99c0; stroke:none;" d="M986 808L987 809L986 808z"/>
<path style="fill:#b56aa3; stroke:none;" d="M412 809L413 810L412 809z"/>
<path style="fill:#cd99c0; stroke:none;" d="M583 809L583 810L588 810L583 809z"/>
<path style="fill:#b56aa3; stroke:none;" d="M588 809L588 810L593 810L588 809z"/>
<path style="fill:#cd99c0; stroke:none;" d="M1050 809L1051 810L1050 809M413 810L414 811L413 810M567 810L567 811L572 811L567 810z"/>
<path style="fill:#b56aa3; stroke:none;" d="M572 810L572 811L576 811L572 810M987 810L988 811L987 810z"/>
<path style="fill:#cd99c0; stroke:none;" d="M414 811L415 812L414 811M553 811L553 812L557 812L553 811z"/>
<path style="fill:#b56aa3; stroke:none;" d="M557 811L557 812L561 812L557 811M988 811L989 812L988 811z"/>
<path style="fill:#cd99c0; stroke:none;" d="M1049 811L1050 812L1049 811M415 812L416 813L415 812M540 812L540 813L544 813L540 812z"/>
<path style="fill:#b56aa3; stroke:none;" d="M544 812L544 813L548 813L544 812M989 812L990 813L989 812M1049 812L1050 813L1049 812z"/>
<path style="fill:#cd99c0; stroke:none;" d="M416 813L417 814L416 813M527 813L527 814L531 814L527 813z"/>
<path style="fill:#b56aa3; stroke:none;" d="M531 813L531 814L535 814L531 813z"/>
<path style="fill:#cd99c0; stroke:none;" d="M1048 813L1049 814L1048 813M417 814L418 815L417 814M516 814L516 815L519 815L516 814z"/>
<path style="fill:#b56aa3; stroke:none;" d="M519 814L519 815L523 815L519 814M992 814L993 815L992 814z"/>
<path style="fill:#cd99c0; stroke:none;" d="M1047 814L1048 815L1047 814z"/>
<path style="fill:#b56aa3; stroke:none;" d="M418 815L419 816L418 815z"/>
<path style="fill:#cd99c0; stroke:none;" d="M504 815L504 816L508 816L504 815z"/>
<path style="fill:#b56aa3; stroke:none;" d="M508 815L508 816L511 816L508 815M994 815L995 816L994 815z"/>
<path style="fill:#cd99c0; stroke:none;" d="M995 815L996 816L995 815z"/>
<path style="fill:#b56aa3; stroke:none;" d="M419 816L420 817L419 816z"/>
<path style="fill:#cd99c0; stroke:none;" d="M493 816L493 817L497 817L493 816z"/>
<path style="fill:#b56aa3; stroke:none;" d="M497 816L497 817L500 817L497 816M998 816L998 817L1001 817L998 816z"/>
<path style="fill:#cd99c0; stroke:none;" d="M1001 816L1001 817L1004 817L1001 816M1045 816L1046 817L1045 816M421 817L422 818L421 817M483 817L483 818L487 818L483 817z"/>
<path style="fill:#b56aa3; stroke:none;" d="M487.667 817.333L488.333 817.667L487.667 817.333M1008 817L1008 818L1011 818L1008 817z"/>
<path style="fill:#cd99c0; stroke:none;" d="M1011 817L1011 818L1014 818L1011 817M1044 817L1045 818L1044 817M423 818L424 819L423 818M473 818L473 819L477 819L473 818z"/>
<path style="fill:#b56aa3; stroke:none;" d="M477.667 818.333L478.333 818.667L477.667 818.333M1018 818L1018 819L1021 819L1018 818z"/>
<path style="fill:#cd99c0; stroke:none;" d="M1021 818L1021 819L1024 819L1021 818M1042 818L1043 819L1042 818M425 819L426 820L425 819M464 819L464 820L467 820L464 819z"/>
<path style="fill:#b56aa3; stroke:none;" d="M467 819L467 820L470 820L467 819M1028.67 819.333L1029.33 819.667L1028.67 819.333z"/>
<path style="fill:#cd99c0; stroke:none;" d="M1030 819L1030 820L1033 820L1030 819M1039 819L1040 820L1039 819z"/>
<path style="fill:#b56aa3; stroke:none;" d="M1040 819L1041 820L1040 819M427 820L428 821L427 820z"/>
<path style="fill:#cd99c0; stroke:none;" d="M428 820L429 821L428 820M455 820L455 821L458 821L455 820z"/>
<path style="fill:#b56aa3; stroke:none;" d="M458.667 820.333L459.333 820.667L458.667 820.333M430 821L431 822L430 821z"/>
<path style="fill:#cd99c0; stroke:none;" d="M431.667 821.333L432.333 821.667L431.667 821.333M446 821L446 822L449 822L446 821z"/>
<path style="fill:#b56aa3; stroke:none;" d="M449 821L449 822L452 822L449 821M435 822L435 823L443 823L435 822M686 891L686 892L696 892L686 891z"/>
<path style="fill:#cd99c0; stroke:none;" d="M696 891L696 892L721 892L696 891M777 891L777 892L800 892L777 891z"/>
<path style="fill:#b56aa3; stroke:none;" d="M800 891L800 892L811 892L800 891M652 892L652 893L660 893L652 892z"/>
<path style="fill:#cd99c0; stroke:none;" d="M660 892L660 893L671 893L660 892M826 892L826 893L836 893L826 892z"/>
<path style="fill:#b56aa3; stroke:none;" d="M836 892L836 893L844 893L836 892M627 893L627 894L633 894L627 893z"/>
<path style="fill:#cd99c0; stroke:none;" d="M633 893L633 894L642 894L633 893M855 893L855 894L864 894L855 893z"/>
<path style="fill:#b56aa3; stroke:none;" d="M864 893L864 894L870 894L864 893M607 894L607 895L612 895L607 894z"/>
<path style="fill:#cd99c0; stroke:none;" d="M612 894L612 895L619 895L612 894M878 894L878 895L886 895L878 894z"/>
<path style="fill:#b56aa3; stroke:none;" d="M886 894L886 895L891 895L886 894M589 895L589 896L594 896L589 895z"/>
<path style="fill:#cd99c0; stroke:none;" d="M594 895L594 896L600 896L594 895M898 895L898 896L904 896L898 895z"/>
<path style="fill:#b56aa3; stroke:none;" d="M904 895L904 896L909 896L904 895M573 896L573 897L578 897L573 896z"/>
<path style="fill:#cd99c0; stroke:none;" d="M578 896L578 897L583 897L578 896M915 896L915 897L921 897L915 896z"/>
<path style="fill:#b56aa3; stroke:none;" d="M921 896L921 897L925 897L921 896M559 897L559 898L563 898L559 897z"/>
<path style="fill:#cd99c0; stroke:none;" d="M563 897L563 898L568 898L563 897M931 897L931 898L936 898L931 897z"/>
<path style="fill:#b56aa3; stroke:none;" d="M936 897L936 898L939 898L936 897M546 898L546 899L549 899L546 898z"/>
<path style="fill:#cd99c0; stroke:none;" d="M549 898L549 899L554 899L549 898M945 898L945 899L950 899L945 898z"/>
<path style="fill:#b56aa3; stroke:none;" d="M950 898L950 899L953 899L950 898M533 899L533 900L536 900L533 899z"/>
<path style="fill:#cd99c0; stroke:none;" d="M536 899L536 900L541 900L536 899M958 899L958 900L962 900L958 899z"/>
<path style="fill:#b56aa3; stroke:none;" d="M962 899L962 900L966 900L962 899M522 900L522 901L525 901L522 900z"/>
<path style="fill:#cd99c0; stroke:none;" d="M525 900L525 901L529 901L525 900M971 900L971 901L975 901L971 900z"/>
<path style="fill:#b56aa3; stroke:none;" d="M975 900L975 901L978 901L975 900M510 901L510 902L513 902L510 901z"/>
<path style="fill:#cd99c0; stroke:none;" d="M513 901L513 902L517 902L513 901M982 901L982 902L986 902L982 901z"/>
<path style="fill:#b56aa3; stroke:none;" d="M986 901L986 902L989 902L986 901M500 902L500 903L503 903L500 902z"/>
<path style="fill:#cd99c0; stroke:none;" d="M503 902L503 903L506 903L503 902M993 902L993 903L997 903L993 902z"/>
<path style="fill:#b56aa3; stroke:none;" d="M997.667 902.333L998.333 902.667L997.667 902.333M490.667 903.333L491.333 903.667L490.667 903.333z"/>
<path style="fill:#cd99c0; stroke:none;" d="M492 903L492 904L496 904L492 903M1003 903L1003 904L1007 904L1003 903z"/>
<path style="fill:#b56aa3; stroke:none;" d="M1007.67 903.333L1008.33 903.667L1007.67 903.333M480 904L480 905L483 905L480 904z"/>
<path style="fill:#cd99c0; stroke:none;" d="M483 904L483 905L486 905L483 904M1013 904L1013 905L1016 905L1013 904z"/>
<path style="fill:#b56aa3; stroke:none;" d="M1016 904L1016 905L1019 905L1016 904M471.667 905.333L472.333 905.667L471.667 905.333z"/>
<path style="fill:#cd99c0; stroke:none;" d="M473 905L473 906L476 906L473 905M1023 905L1023 906L1026 906L1023 905z"/>
<path style="fill:#b56aa3; stroke:none;" d="M1026.67 905.333L1027.33 905.667L1026.67 905.333M462.667 906.333L463.333 906.667L462.667 906.333z"/>
<path style="fill:#cd99c0; stroke:none;" d="M464 906L464 907L467 907L464 906M1032 906L1032 907L1035 907L1032 906z"/>
<path style="fill:#b56aa3; stroke:none;" d="M1035.67 906.333L1036.33 906.667L1035.67 906.333M453.667 907.333L454.333 907.667L453.667 907.333z"/>
<path style="fill:#cd99c0; stroke:none;" d="M455 907L455 908L458 908L455 907M1041.67 907.333L1042.33 907.667L1041.67 907.333z"/>
<path style="fill:#b56aa3; stroke:none;" d="M1043 907L1043 908L1046 908L1043 907M445.667 908.333L446.333 908.667L445.667 908.333z"/>
<path style="fill:#cd99c0; stroke:none;" d="M447 908L447 909L450 909L447 908M1049 908L1049 909L1052 909L1049 908z"/>
<path style="fill:#b56aa3; stroke:none;" d="M1052.67 908.333L1053.33 908.667L1052.67 908.333M436.667 909.333L437.333 909.667L436.667 909.333z"/>
<path style="fill:#cd99c0; stroke:none;" d="M438 909L438 910L441 910L438 909M1057 909L1057 910L1060 910L1057 909z"/>
<path style="fill:#b56aa3; stroke:none;" d="M1060.67 909.333L1061.33 909.667L1060.67 909.333M428.667 910.333L429.333 910.667L428.667 910.333z"/>
<path style="fill:#cd99c0; stroke:none;" d="M430 910L430 911L433 911L430 910M1065 910L1065 911L1068 911L1065 910z"/>
<path style="fill:#b56aa3; stroke:none;" d="M1068.67 910.333L1069.33 910.667L1068.67 910.333M420 911L420 912L423 912L420 911z"/>
<path style="fill:#cd99c0; stroke:none;" d="M423.667 911.333L424.333 911.667L423.667 911.333M1073 911L1073 912L1076 912L1073 911z"/>
<path style="fill:#b56aa3; stroke:none;" d="M1076.67 911.333L1077.33 911.667L1076.67 911.333z"/>
<path style="fill:#cd99c0; stroke:none;" d="M416.667 912.333L417.333 912.667L416.667 912.333M1081 912L1081 913L1084 913L1081 912z"/>
<path style="fill:#b56aa3; stroke:none;" d="M1084.67 912.333L1085.33 912.667L1084.67 912.333M413 913L414 914L413 913z"/>
<path style="fill:#cd99c0; stroke:none;" d="M414 913L415 914L414 913M1088 913L1088 914L1091 914L1088 913z"/>
<path style="fill:#b56aa3; stroke:none;" d="M1091.67 913.333L1092.33 913.667L1091.67 913.333z"/>
<path style="fill:#cd99c0; stroke:none;" d="M412 914L413 915L412 914M1096.67 914.333L1097.33 914.667L1096.67 914.333z"/>
<path style="fill:#b56aa3; stroke:none;" d="M1098.67 914.333L1099.33 914.667L1098.67 914.333M410 915L411 916L410 915z"/>
<path style="fill:#cd99c0; stroke:none;" d="M1103.67 915.333L1104.33 915.667L1103.67 915.333z"/>
<path style="fill:#b56aa3; stroke:none;" d="M1105.67 915.333L1106.33 915.667L1105.67 915.333z"/>
<path style="fill:#cd99c0; stroke:none;" d="M1163 915L1164 916L1163 915z"/>
<path style="fill:#b56aa3; stroke:none;" d="M409 916L410 917L409 916z"/>
<path style="fill:#cd99c0; stroke:none;" d="M1110.67 916.333L1111.33 916.667L1110.67 916.333z"/>
<path style="fill:#b56aa3; stroke:none;" d="M1112.67 916.333L1113.33 916.667L1112.67 916.333z"/>
<path style="fill:#cd99c0; stroke:none;" d="M1117.67 917.333L1118.33 917.667L1117.67 917.333z"/>
<path style="fill:#b56aa3; stroke:none;" d="M1119.67 917.333L1120.33 917.667L1119.67 917.333z"/>
<path style="fill:#cd99c0; stroke:none;" d="M1162 917L1163 918L1162 917M408 918L409 919L408 918M1123 918L1123 919L1126 919L1123 918z"/>
<path style="fill:#b56aa3; stroke:none;" d="M1126.67 918.333L1127.33 918.667L1126.67 918.333M407 919L408 920L407 919z"/>
<path style="fill:#cd99c0; stroke:none;" d="M1130.67 919.333L1131.33 919.667L1130.67 919.333z"/>
<path style="fill:#b56aa3; stroke:none;" d="M1132.67 919.333L1133.33 919.667L1132.67 919.333z"/>
<path style="fill:#cd99c0; stroke:none;" d="M1136 920L1136 921L1139 921L1136 920z"/>
<path style="fill:#b56aa3; stroke:none;" d="M1139 920L1140 921L1139 920M406 921L407 922L406 921z"/>
<path style="fill:#cd99c0; stroke:none;" d="M1143.67 921.333L1144.33 921.667L1143.67 921.333z"/>
<path style="fill:#b56aa3; stroke:none;" d="M1145.67 921.333L1146.33 921.667L1145.67 921.333z"/>
<path style="fill:#cd99c0; stroke:none;" d="M1158 921L1159 922L1158 921M406 922L407 923L406 922M1149.67 922.333L1150.33 922.667L1149.67 922.333z"/>
<path style="fill:#b56aa3; stroke:none;" d="M1151 922L1151 923L1156 923L1151 922z"/>
<path style="fill:#cd99c0; stroke:none;" d="M1156 922L1157 923L1156 922z"/>
<path style="fill:#b56aa3; stroke:none;" d="M405 924L405 927L406 927L405 924z"/>
<path style="fill:#cd99c0; stroke:none;" d="M405 927L405 964L406 964C406 953.351 409.111 936.798 405 927M736 957L736 958L764 958L736 957M678 958L678 959L691 959L678 958z"/>
<path style="fill:#b56aa3; stroke:none;" d="M691 958L691 959L704 959L691 958M795 958L795 959L807 959L795 958z"/>
<path style="fill:#cd99c0; stroke:none;" d="M807 958L807 959L821 959L807 958M648 959L648 960L658 960L648 959z"/>
<path style="fill:#b56aa3; stroke:none;" d="M658 959L658 960L665 960L658 959M833 959L833 960L841 960L833 959z"/>
<path style="fill:#cd99c0; stroke:none;" d="M841 959L841 960L851 960L841 959M625 960L625 961L633 961L625 960z"/>
<path style="fill:#b56aa3; stroke:none;" d="M633 960L633 961L639 961L633 960M861 960L861 961L867 961L861 960z"/>
<path style="fill:#cd99c0; stroke:none;" d="M867 960L867 961L875 961L867 960M607 961L607 962L613 962L607 961z"/>
<path style="fill:#b56aa3; stroke:none;" d="M613 961L613 962L618 962L613 961M883 961L883 962L888 962L883 961z"/>
<path style="fill:#cd99c0; stroke:none;" d="M888 961L888 962L895 962L888 961M590 962L590 963L595 963L590 962z"/>
<path style="fill:#b56aa3; stroke:none;" d="M595 962L595 963L600 963L595 962M902 962L902 963L906 963L902 962z"/>
<path style="fill:#cd99c0; stroke:none;" d="M906 962L906 963L912 963L906 962M575 963L575 964L580 964L575 963z"/>
<path style="fill:#b56aa3; stroke:none;" d="M580 963L580 964L584 964L580 963M918 963L918 964L922 964L918 963z"/>
<path style="fill:#cd99c0; stroke:none;" d="M922 963L922 964L927 964L922 963z"/>
<path style="fill:#b56aa3; stroke:none;" d="M405 964L405 967L406 967L405 964z"/>
<path style="fill:#cd99c0; stroke:none;" d="M561 964L561 965L566 965L561 964z"/>
<path style="fill:#b56aa3; stroke:none;" d="M566 964L566 965L569 965L566 964M933 964L933 965L936 965L933 964z"/>
<path style="fill:#cd99c0; stroke:none;" d="M936 964L936 965L941 965L936 964M548 965L548 966L553 966L548 965z"/>
<path style="fill:#b56aa3; stroke:none;" d="M553 965L553 966L556 966L553 965M946 965L946 966L950 966L946 965z"/>
<path style="fill:#cd99c0; stroke:none;" d="M950 965L950 966L954 966L950 965z"/>
<path style="fill:#b56aa3; stroke:none;" d="M1230 965L1230 968L1231 968L1230 965z"/>
<path style="fill:#cd99c0; stroke:none;" d="M536 966L536 967L540 967L536 966z"/>
<path style="fill:#b56aa3; stroke:none;" d="M540 966L540 967L544 967L540 966M958 966L958 967L962 967L958 966z"/>
<path style="fill:#cd99c0; stroke:none;" d="M962 966L962 967L966 967L962 966M525 967L525 968L529 968L525 967z"/>
<path style="fill:#b56aa3; stroke:none;" d="M529 967L529 968L532 968L529 967M970 967L970 968L973 968L970 967z"/>
<path style="fill:#cd99c0; stroke:none;" d="M973 967L973 968L977 968L973 967M514 968L514 969L518 969L514 968z"/>
<path style="fill:#b56aa3; stroke:none;" d="M518 968L518 969L521 969L518 968M982 968L982 969L985 969L982 968z"/>
<path style="fill:#cd99c0; stroke:none;" d="M985 968L985 969L988 969L985 968M406 969L407 970L406 969M504 969L504 970L508 970L504 969z"/>
<path style="fill:#b56aa3; stroke:none;" d="M508.667 969.333L509.333 969.667L508.667 969.333M992 969L992 970L995 970L992 969z"/>
<path style="fill:#cd99c0; stroke:none;" d="M995 969L995 970L998 970L995 969M494 970L494 971L497 971L494 970z"/>
<path style="fill:#b56aa3; stroke:none;" d="M497 970L497 971L500 971L497 970M1002 970L1002 971L1005 971L1002 970z"/>
<path style="fill:#cd99c0; stroke:none;" d="M1005 970L1005 971L1008 971L1005 970M407 971L408 972L407 971M485 971L485 972L488 972L485 971z"/>
<path style="fill:#b56aa3; stroke:none;" d="M488 971L488 972L491 972L488 971M1012.67 971.333L1013.33 971.667L1012.67 971.333z"/>
<path style="fill:#cd99c0; stroke:none;" d="M1014 971L1014 972L1018 972L1014 971M1229.33 971.667L1229.67 972.333L1229.33 971.667M476 972L476 973L479 973L476 972z"/>
<path style="fill:#b56aa3; stroke:none;" d="M479.667 972.333L480.333 972.667L479.667 972.333M1021 972L1021 973L1024 973L1021 972z"/>
<path style="fill:#cd99c0; stroke:none;" d="M1024 972L1024 973L1027 973L1024 972z"/>
<path style="fill:#b56aa3; stroke:none;" d="M408 973L409 974L408 973z"/>
<path style="fill:#cd99c0; stroke:none;" d="M467 973L467 974L470 974L467 973z"/>
<path style="fill:#b56aa3; stroke:none;" d="M470.667 973.333L471.333 973.667L470.667 973.333M1030.67 973.333L1031.33 973.667L1030.67 973.333z"/>
<path style="fill:#cd99c0; stroke:none;" d="M1032 973L1032 974L1035 974L1032 973z"/>
<path style="fill:#b56aa3; stroke:none;" d="M1229 973L1230 974L1229 973z"/>
<path style="fill:#cd99c0; stroke:none;" d="M409 974L410 975L409 974M458 974L458 975L461 975L458 974z"/>
<path style="fill:#b56aa3; stroke:none;" d="M461 974L461 975L464 975L461 974M1039.67 974.333L1040.33 974.667L1039.67 974.333z"/>
<path style="fill:#cd99c0; stroke:none;" d="M1041 974L1041 975L1044 975L1041 974M410 975L411 976L410 975M450 975L450 976L453 976L450 975z"/>
<path style="fill:#b56aa3; stroke:none;" d="M453.667 975.333L454.333 975.667L453.667 975.333M1047.67 975.333L1048.33 975.667L1047.67 975.333z"/>
<path style="fill:#cd99c0; stroke:none;" d="M1049 975L1049 976L1052 976L1049 975M1228 975L1229 976L1228 975z"/>
<path style="fill:#b56aa3; stroke:none;" d="M411 976L412 977L411 976z"/>
<path style="fill:#cd99c0; stroke:none;" d="M442 976L442 977L445 977L442 976z"/>
<path style="fill:#b56aa3; stroke:none;" d="M445.667 976.333L446.333 976.667L445.667 976.333M1055.67 976.333L1056.33 976.667L1055.67 976.333z"/>
<path style="fill:#cd99c0; stroke:none;" d="M1057 976L1057 977L1060 977L1057 976z"/>
<path style="fill:#b56aa3; stroke:none;" d="M1228 976L1229 977L1228 976z"/>
<path style="fill:#cd99c0; stroke:none;" d="M413 977L414 978L413 977M435.667 977.333L436.333 977.667L435.667 977.333z"/>
<path style="fill:#b56aa3; stroke:none;" d="M437.667 977.333L438.333 977.667L437.667 977.333M1063.67 977.333L1064.33 977.667L1063.67 977.333z"/>
<path style="fill:#cd99c0; stroke:none;" d="M1065 977L1065 978L1068 978L1065 977M1227 977L1228 978L1227 977M415 978L416 979L415 978M427.667 978.333L428.333 978.667L427.667 978.333z"/>
<path style="fill:#b56aa3; stroke:none;" d="M429 978L429 979L432 979L429 978M1071.67 978.333L1072.33 978.667L1071.67 978.333z"/>
<path style="fill:#cd99c0; stroke:none;" d="M1073 978L1073 979L1076 979L1073 978z"/>
<path style="fill:#b56aa3; stroke:none;" d="M1227 978L1228 979L1227 978M418.667 979.333L419.333 979.667L418.667 979.333z"/>
<path style="fill:#cd99c0; stroke:none;" d="M420 979L421 980L420 979z"/>
<path style="fill:#b56aa3; stroke:none;" d="M421 979L421 980L424 980L421 979M1079.67 979.333L1080.33 979.667L1079.67 979.333z"/>
<path style="fill:#cd99c0; stroke:none;" d="M1081.67 979.333L1082.33 979.667L1081.67 979.333z"/>
<path style="fill:#b56aa3; stroke:none;" d="M1086.67 980.333L1087.33 980.667L1086.67 980.333z"/>
<path style="fill:#cd99c0; stroke:none;" d="M1088.67 980.333L1089.33 980.667L1088.67 980.333z"/>
<path style="fill:#b56aa3; stroke:none;" d="M1226 980L1227 981L1226 980M1093.67 981.333L1094.33 981.667L1093.67 981.333z"/>
<path style="fill:#cd99c0; stroke:none;" d="M1095.67 981.333L1096.33 981.667L1095.67 981.333M1225 981L1226 982L1225 981z"/>
<path style="fill:#b56aa3; stroke:none;" d="M1100.67 982.333L1101.33 982.667L1100.67 982.333z"/>
<path style="fill:#cd99c0; stroke:none;" d="M1102 982L1102 983L1105 983L1102 982M335.333 983.667L335.667 984.333L335.333 983.667z"/>
<path style="fill:#b56aa3; stroke:none;" d="M1107.67 983.333L1108.33 983.667L1107.67 983.333z"/>
<path style="fill:#cd99c0; stroke:none;" d="M1109.67 983.333L1110.33 983.667L1109.67 983.333z"/>
<path style="fill:#b56aa3; stroke:none;" d="M1224 983L1225 984L1224 983M1114.67 984.333L1115.33 984.667L1114.67 984.333z"/>
<path style="fill:#cd99c0; stroke:none;" d="M1116.67 984.333L1117.33 984.667L1116.67 984.333M1223 984L1224 985L1223 984z"/>
<path style="fill:#b56aa3; stroke:none;" d="M1121 985L1122 986L1121 985z"/>
<path style="fill:#cd99c0; stroke:none;" d="M1122 985L1122 986L1125 986L1122 985M334 986L335 987L334 986z"/>
<path style="fill:#b56aa3; stroke:none;" d="M1127.67 986.333L1128.33 986.667L1127.67 986.333z"/>
<path style="fill:#cd99c0; stroke:none;" d="M1129.67 986.333L1130.33 986.667L1129.67 986.333z"/>
<path style="fill:#b56aa3; stroke:none;" d="M334 987L335 988L334 987M1133.67 987.333L1134.33 987.667L1133.67 987.333z"/>
<path style="fill:#cd99c0; stroke:none;" d="M1135.67 987.333L1136.33 987.667L1135.67 987.333z"/>
<path style="fill:#b56aa3; stroke:none;" d="M1221 987L1222 988L1221 987M269.333 988.667L269.667 989.333L269.333 988.667z"/>
<path style="fill:#cd99c0; stroke:none;" d="M333 988L334 989L333 988z"/>
<path style="fill:#b56aa3; stroke:none;" d="M1140 988L1141 989L1140 988z"/>
<path style="fill:#cd99c0; stroke:none;" d="M1141.67 988.333L1142.33 988.667L1141.67 988.333z"/>
<path style="fill:#b56aa3; stroke:none;" d="M1220 988L1221 989L1220 988z"/>
<path style="fill:#cd99c0; stroke:none;" d="M332 989L333 990L332 989z"/>
<path style="fill:#b56aa3; stroke:none;" d="M1146 989L1147 990L1146 989z"/>
<path style="fill:#cd99c0; stroke:none;" d="M1147.67 989.333L1148.33 989.667L1147.67 989.333z"/>
<path style="fill:#b56aa3; stroke:none;" d="M1152 990L1153 991L1152 990z"/>
<path style="fill:#cd99c0; stroke:none;" d="M1153.67 990.333L1154.33 990.667L1153.67 990.333M1217 990L1218 991L1217 990M270 991L271 992L270 991M330 991L331 992L330 991z"/>
<path style="fill:#b56aa3; stroke:none;" d="M1158 991L1159 992L1158 991z"/>
<path style="fill:#cd99c0; stroke:none;" d="M1159.67 991.333L1160.33 991.667L1159.67 991.333M1216 991L1217 992L1216 991z"/>
<path style="fill:#b56aa3; stroke:none;" d="M270 992L271 993L270 992z"/>
<path style="fill:#cd99c0; stroke:none;" d="M329 992L330 993L329 992z"/>
<path style="fill:#b56aa3; stroke:none;" d="M1163.67 992.333L1164.33 992.667L1163.67 992.333z"/>
<path style="fill:#cd99c0; stroke:none;" d="M1165.67 992.333L1166.33 992.667L1165.67 992.333M1214 992L1215 993L1214 992z"/>
<path style="fill:#b56aa3; stroke:none;" d="M1215 992L1216 993L1215 992z"/>
<path style="fill:#cd99c0; stroke:none;" d="M327 993L328 994L327 993z"/>
<path style="fill:#b56aa3; stroke:none;" d="M1169.67 993.333L1170.33 993.667L1169.67 993.333z"/>
<path style="fill:#cd99c0; stroke:none;" d="M1171.67 993.333L1172.33 993.667L1171.67 993.333z"/>
<path style="fill:#b56aa3; stroke:none;" d="M1213 993L1214 994L1213 993z"/>
<path style="fill:#cd99c0; stroke:none;" d="M271 994L272 995L271 994M324 994L325 995L324 994z"/>
<path style="fill:#b56aa3; stroke:none;" d="M325 994L326 995L325 994M1175 994L1176 995L1175 994z"/>
<path style="fill:#cd99c0; stroke:none;" d="M1176.67 994.333L1177.33 994.667L1176.67 994.333z"/>
<path style="fill:#b56aa3; stroke:none;" d="M1211 994L1212 995L1211 994z"/>
<path style="fill:#cd99c0; stroke:none;" d="M319 995L320 996L319 995z"/>
<path style="fill:#b56aa3; stroke:none;" d="M320.667 995.333L321.333 995.667L320.667 995.333M1180.67 995.333L1181.33 995.667L1180.67 995.333z"/>
<path style="fill:#cd99c0; stroke:none;" d="M1182 995L1183 996L1182 995M1208 995L1209 996L1208 995z"/>
<path style="fill:#b56aa3; stroke:none;" d="M1209 995L1210 996L1209 995z"/>
<path style="fill:#cd99c0; stroke:none;" d="M313.667 996.333L314.333 996.667L313.667 996.333z"/>
<path style="fill:#b56aa3; stroke:none;" d="M315.667 996.333L316.333 996.667L315.667 996.333M1186 996L1187 997L1186 996z"/>
<path style="fill:#cd99c0; stroke:none;" d="M1187.67 996.333L1188.33 996.667L1187.67 996.333M1205 996L1206 997L1205 996z"/>
<path style="fill:#b56aa3; stroke:none;" d="M1206 996L1207 997L1206 996M273 997L274 998L273 997z"/>
<path style="fill:#cd99c0; stroke:none;" d="M308.667 997.333L309.333 997.667L308.667 997.333z"/>
<path style="fill:#b56aa3; stroke:none;" d="M310 997L311 998L310 997M1191 997L1191 998L1194 998L1191 997z"/>
<path style="fill:#cd99c0; stroke:none;" d="M1194 997L1194 998L1201 998L1194 997z"/>
<path style="fill:#b56aa3; stroke:none;" d="M1201.67 997.333L1202.33 997.667L1201.67 997.333M274 998L275 999L274 998z"/>
<path style="fill:#cd99c0; stroke:none;" d="M303 998L304 999L303 998z"/>
<path style="fill:#b56aa3; stroke:none;" d="M304.667 998.333L305.333 998.667L304.667 998.333z"/>
<path style="fill:#cd99c0; stroke:none;" d="M276 999L277 1000L276 999M298 999L299 1000L298 999z"/>
<path style="fill:#b56aa3; stroke:none;" d="M299.667 999.333L300.333 999.667L299.667 999.333M277 1000L278 1001L277 1000z"/>
<path style="fill:#cd99c0; stroke:none;" d="M278 1000L279 1001L278 1000M293 1000L294 1001L293 1000z"/>
<path style="fill:#b56aa3; stroke:none;" d="M294.667 1000.33L295.333 1000.67L294.667 1000.33z"/>
<path style="fill:#cd99c0; stroke:none;" d="M280.667 1001.33L281.333 1001.67L280.667 1001.33M287.667 1001.33L288.333 1001.67L287.667 1001.33z"/>
<path style="fill:#b56aa3; stroke:none;" d="M289.667 1001.33L290.333 1001.67L289.667 1001.33z"/>
<path style="fill:#010101; stroke:none;" d="M40 1303L40 1304L1460 1304C1450.6 1298.25 1436.62 1296.73 1426 1293.85C1400.48 1286.94 1374.85 1280.38 1349 1274.79C1264.37 1256.5 1179.14 1241.06 1093 1231.83C838.345 1204.57 579.804 1204.88 326 1242.27C262.616 1251.61 199.349 1263.1 137 1277.88C104.593 1285.57 72.565 1296.26 40 1303M0 1281L0 1304L23 1304L23 1303C10.5897 1299.42 6.61607 1290.84 0 1281M1499 1281C1495.88 1291.83 1487.83 1299.88 1477 1303L1477 1304L1500 1304L1499 1281z"/>
</svg>
