<?xml version="1.0" standalone="no"?>
<!DOCTYPE svg PUBLIC "-//W3C//DTD SVG 20010904//EN"
 "http://www.w3.org/TR/2001/REC-SVG-20010904/DTD/svg10.dtd">
<svg version="1.0" xmlns="http://www.w3.org/2000/svg"
 width="294.000000pt" height="120.000000pt" viewBox="0 0 294.000000 120.000000"
 preserveAspectRatio="xMidYMid meet">

<g transform="translate(0.000000,120.000000) scale(0.100000,-0.100000)"
fill="#000000" stroke="none">
<path d="M0 1036 c0 -179 5 -196 56 -196 19 0 24 5 24 24 0 20 6 24 41 29 23
3 46 11 50 19 16 25 10 107 -10 127 -18 18 -18 18 0 30 15 9 19 24 19 71 l0
60 -90 0 -90 0 0 -164z m110 84 c0 -38 -4 -50 -15 -50 -11 0 -15 12 -15 50 0
38 4 50 15 50 11 0 15 -12 15 -50z m0 -140 c0 -47 -3 -60 -15 -60 -12 0 -15
13 -15 60 0 47 3 60 15 60 12 0 15 -13 15 -60z"/>
<path d="M340 1180 c0 -18 -7 -20 -60 -20 -33 0 -60 -4 -60 -9 0 -14 27 -21
76 -21 40 0 44 -2 44 -25 0 -24 -3 -25 -60 -25 -33 0 -60 -4 -60 -9 0 -12 26
-21 61 -21 l29 0 -32 -30 -33 -29 37 -1 c27 0 46 8 71 30 42 37 55 37 82 3 18
-21 32 -27 78 -31 48 -4 57 -2 57 12 0 11 -9 16 -30 16 -23 0 -30 4 -30 20 0
11 5 20 10 20 6 0 10 5 10 10 0 6 -25 10 -55 10 -52 0 -55 1 -55 25 0 22 4 25
39 25 44 0 71 8 71 21 0 5 -25 9 -55 9 -48 0 -55 2 -55 20 0 17 -7 20 -40 20
-33 0 -40 -3 -40 -20z"/>
<path d="M717 1193 c-10 -3 -38 -35 -62 -71 l-45 -67 41 -3 c25 -2 50 3 64 12
14 9 46 16 75 16 l50 0 0 -35 0 -35 -96 0 c-61 0 -93 -4 -89 -10 3 -5 46 -10
96 -10 l89 0 0 -60 c0 -56 -1 -60 -23 -60 -16 0 -31 12 -48 38 -21 32 -30 37
-67 40 -47 4 -50 -2 -22 -38 28 -35 25 -40 -21 -40 -36 0 -40 -2 -29 -15 18
-22 487 -22 516 0 18 13 15 14 -29 15 l-48 0 26 38 25 37 -26 3 c-45 6 -70 -6
-90 -43 -15 -29 -24 -35 -51 -35 l-33 0 0 60 0 60 89 0 c121 0 129 18 9 22
l-93 3 -3 33 -3 32 56 0 c34 0 65 -6 80 -16 14 -9 39 -14 64 -12 l41 3 -44 66
c-26 39 -54 69 -68 73 -26 7 -303 6 -331 -1z m298 -53 c8 -16 15 -31 15 -35 0
-3 -61 -5 -135 -5 -74 0 -135 3 -135 6 0 3 9 19 21 35 20 29 21 29 119 29 l99
0 16 -30z"/>
<path d="M1200 1036 c0 -179 5 -196 56 -196 22 0 24 4 24 50 l0 50 56 0 c83 0
94 9 94 80 0 71 -11 80 -94 80 l-56 0 0 35 0 35 69 0 c49 0 72 4 81 15 11 13
-2 15 -109 15 l-121 0 0 -164z m170 -16 l0 -50 -45 0 -45 0 0 50 0 50 45 0 45
0 0 -50z"/>
<path d="M1470 1020 c0 -175 1 -180 21 -180 11 0 29 5 40 10 17 10 19 22 19
115 l0 105 50 0 50 0 0 -115 c0 -123 3 -130 51 -105 17 10 19 22 19 110 0 89
2 100 20 110 41 22 18 30 -85 30 l-105 0 0 35 0 34 102 3 c70 2 103 7 106 16
3 9 -30 12 -142 12 l-146 0 0 -180z"/>
<path d="M1870 1170 c0 -23 -4 -30 -20 -30 -11 0 -20 -4 -20 -10 0 -5 9 -10
20 -10 17 0 20 -7 20 -49 0 -40 -3 -50 -20 -54 -11 -3 -20 -11 -20 -17 0 -7 8
-10 20 -7 18 5 20 0 20 -59 0 -57 -2 -64 -20 -64 -11 0 -20 -7 -20 -15 0 -20
59 -20 88 1 19 13 22 24 22 80 0 56 3 69 23 85 l22 20 -22 -6 c-21 -6 -23 -3
-23 39 0 34 4 46 15 46 8 0 15 5 15 10 0 6 -7 10 -15 10 -10 0 -15 10 -15 30
0 28 -3 30 -35 30 -32 0 -35 -2 -35 -30z"/>
<path d="M2130 1185 c0 -12 -14 -15 -63 -15 -72 0 -87 -10 -87 -58 0 -32 1
-33 38 -30 32 3 37 7 40 31 l3 28 112 -3 c109 -3 111 -3 117 -28 5 -20 13 -26
43 -28 35 -3 37 -2 37 27 0 57 -6 61 -86 61 -59 0 -74 3 -74 15 0 11 -11 15
-40 15 -29 0 -40 -4 -40 -15z"/>
<path d="M2438 1043 c-2 -95 -9 -167 -16 -180 -10 -19 -9 -20 8 -16 27 7 60
50 60 79 0 35 11 54 31 54 16 0 19 -8 19 -56 0 -47 -3 -57 -20 -61 -32 -9 -23
-23 15 -23 60 0 75 25 75 127 0 83 1 85 18 70 15 -14 40 -17 123 -17 l104 0
-37 -37 -37 -36 -40 26 c-24 16 -54 27 -73 27 l-33 -1 47 -43 47 -43 -35 -16
c-19 -10 -41 -17 -49 -17 -8 0 -19 -9 -25 -19 -9 -18 -7 -19 27 -14 21 2 59
12 86 20 42 13 52 13 95 0 82 -26 114 -29 110 -11 -2 9 -20 22 -42 29 -63 22
-64 29 -11 80 33 33 46 52 42 66 -3 10 -1 19 4 19 18 0 9 28 -10 33 -16 4 -20
15 -23 58 l-3 54 -120 0 -120 0 -5 -55 c-4 -42 -9 -56 -22 -58 -16 -3 -18 5
-18 57 l0 61 -84 0 -84 0 -4 -157z m382 96 c0 -39 16 -68 43 -79 15 -6 -12 -9
-83 -9 -96 -1 -103 0 -83 14 14 10 24 31 29 60 l6 45 44 0 c42 0 44 -1 44 -31z
m-280 -9 c0 -23 -4 -30 -20 -30 -16 0 -20 7 -20 30 0 23 4 30 20 30 16 0 20
-7 20 -30z m0 -90 c0 -23 -4 -30 -20 -30 -16 0 -20 7 -20 30 0 23 4 30 20 30
16 0 20 -7 20 -30z"/>
<path d="M2048 1050 l-33 -29 37 -1 c28 0 46 8 70 30 l33 29 -37 1 c-28 0 -46
-8 -70 -30z"/>
<path d="M2228 1050 c24 -22 42 -30 70 -30 l37 1 -33 29 c-24 22 -42 30 -70
30 l-37 -1 33 -29z"/>
<path d="M370 975 c0 -12 -13 -15 -60 -15 -33 0 -60 -4 -60 -9 0 -12 26 -21
61 -21 28 0 29 -2 29 -45 l0 -45 -60 0 c-57 0 -78 -11 -44 -24 9 -3 71 -6 139
-6 68 0 130 3 139 6 33 13 14 24 -39 24 l-55 0 0 45 0 45 54 0 c30 0 61 3 70
6 33 13 14 24 -39 24 -42 0 -55 3 -55 15 0 11 -11 15 -40 15 -29 0 -40 -4 -40
-15z"/>
<path d="M1982 978 c3 -8 28 -14 66 -16 l62 -3 0 -49 0 -50 -76 0 c-47 0 -73
-4 -69 -10 8 -13 352 -13 360 0 3 5 -24 10 -67 12 l-73 3 -3 48 -3 47 64 0
c45 0 68 5 77 15 11 13 -8 15 -165 15 -137 0 -176 -3 -173 -12z"/>
<path d="M2 433 c3 -254 3 -259 28 -303 17 -29 41 -53 70 -70 43 -24 54 -25
228 -28 133 -3 182 0 182 8 0 6 -13 25 -29 41 -29 29 -31 29 -144 29 -102 0
-118 2 -148 23 -53 35 -58 64 -58 325 l-1 232 -66 0 -65 0 3 -257z"/>
<path d="M540 447 c0 -239 0 -244 25 -293 43 -85 130 -124 275 -124 145 0 232
39 275 124 25 49 25 54 25 293 l0 243 -65 0 -65 0 0 -240 c0 -161 -4 -247 -12
-265 -21 -47 -74 -70 -158 -70 -84 0 -137 23 -158 70 -8 18 -12 104 -12 265
l0 240 -65 0 -65 0 0 -243z"/>
<path d="M1294 676 c-60 -26 -64 -52 -64 -365 l0 -281 65 0 65 0 0 155 0 155
160 0 c94 0 160 4 160 9 0 6 -11 23 -24 38 -24 28 -25 28 -160 31 l-136 4 0
94 0 94 161 0 161 0 29 29 c16 16 29 34 29 40 0 17 -406 14 -446 -3z"/>
<path d="M1900 675 c-20 -11 -49 -73 -151 -327 l-126 -313 60 -3 c41 -2 63 1
68 10 5 7 50 118 101 245 51 128 95 233 98 233 3 0 24 -47 47 -105 l41 -105
-58 0 c-62 0 -103 -22 -113 -59 -5 -19 1 -20 100 -23 l106 -3 21 -55 c31 -82
97 -145 169 -160 67 -13 152 -1 202 30 18 11 56 56 85 100 l53 81 54 -82 c61
-91 90 -109 173 -109 l50 0 -100 150 c-55 82 -100 152 -100 155 0 13 178 283
210 319 l35 39 -75 -5 c-105 -7 -128 -22 -195 -128 -31 -49 -60 -90 -63 -90
-4 0 -31 37 -60 81 -60 90 -89 109 -172 109 l-50 0 104 -156 104 -156 -60 -97
c-70 -109 -118 -164 -160 -182 -16 -6 -30 -10 -32 -8 -1 2 -56 138 -122 302
-102 257 -122 301 -146 313 -34 17 -66 17 -98 -1z"/>
</g>
</svg>
