<?xml version="1.0" standalone="yes"?>
<svg xmlns="http://www.w3.org/2000/svg" width="1024" height="512">
<path style="fill:#ffffff; stroke:none;" d="M0 0L0 512L1024 512L1024 0L0 0z"/>
<path style="fill:#a8a8cc; stroke:none;" d="M849 137L849 138L854 138L849 137z"/>
<path style="fill:#d4612b; stroke:none;" d="M691 284C706.588 311.093 751.394 313.661 775 295.471C791.115 283.053 800.583 260.708 811.667 244C829.182 217.598 845.57 190.455 863.003 164C869.105 154.741 878.977 146.41 884 137C869.364 137 849.706 133.918 837 142.8C825.749 150.665 819.732 164.846 812.333 176C795.707 201.062 779.537 226.509 763.576 252C752.667 269.422 739.834 290.948 717 292.485C706.875 293.167 700.018 286.855 691 284z"/>
<path style="fill:#a8a8cc; stroke:none;" d="M884 139L888 138L884 139M845.667 138.333L846.333 138.667L845.667 138.333M842.667 139.333L843.333 139.667L842.667 139.333M883 139L884 140L883 139M840 140L841 141L840 140M881 140L882 141L881 140M838 141L839 142L838 141M880 141L881 142L880 141M837 142L838 143L837 142M169 143L169 144L202 144L169 143z"/>
<path style="fill:#7073a3; stroke:none;" d="M295 143L295 144L327 144L295 143z"/>
<path style="fill:#a8a8cc; stroke:none;" d="M408 143L409 144L408 143z"/>
<path style="fill:#7073a3; stroke:none;" d="M408 256L409 256L409 144L440 144C435.341 142.045 412.376 140.376 409.028 144.603C404.873 149.849 408 167.402 408 174L408 256z"/>
<path style="fill:#a8a8cc; stroke:none;" d="M440 143L440 258L441 258L441 178L440 143M491 143L491 144L496 144L491 143z"/>
<path style="fill:#7073a3; stroke:none;" d="M496 143L496 144L558 144L591 145C585.098 140.528 572.228 143 565 143L496 143z"/>
<path style="fill:#a8a8cc; stroke:none;" d="M590 143L591 144L590 143M642 143L642 144L645 144L642 143z"/>
<path style="fill:#7073a3; stroke:none;" d="M645 143L645 144L651 144L645 143z"/>
<path style="fill:#a8a8cc; stroke:none;" d="M651 143L651 144L654 144L651 143z"/>
<path style="fill:#7073a3; stroke:none;" d="M169 144L169 253L170 253L170 177L169 144z"/>
<path style="fill:#20247e; stroke:none;" d="M170 144L170 238C170 259.505 170.841 280.467 191 293.451C203.235 301.332 218.054 301 232 301L290 301C288.848 287.909 278.151 282.148 266 282.004C248.346 281.794 221.261 287.435 208.519 271.96C199.057 260.468 201 244.866 201 231L201 144L170 144z"/>
<path style="fill:#7073a3; stroke:none;" d="M201 144L201 256L202 256L202 178L201 144z"/>
<path style="fill:#20247e; stroke:none;" d="M295 144L295 229C295 244.506 293.263 261.134 301.63 275C307.436 284.621 316.699 291.387 327 295.547C358.141 308.124 417.314 306.298 434.88 273C442.164 259.191 440 243.098 440 228L440 144L409 144L409 227C409 238.851 411.469 254.184 405.583 265C392.652 288.76 342.869 288.482 329.905 265C324.248 254.754 327 239.356 327 228L327 144L295 144z"/>
<path style="fill:#a8a8cc; stroke:none;" d="M486 144L487 145L486 144z"/>
<path style="fill:#7073a3; stroke:none;" d="M487.667 144.333L488.333 144.667L487.667 144.333z"/>
<path style="fill:#20247e; stroke:none;" d="M466 301L497 301L497 248L498.742 228.603L519 227L576 227C572.127 201.258 534.685 209 516 209C511.592 209 503.347 210.57 499.523 208.062C496.544 206.108 498 199.033 498 196L498 162L550 162C558.228 162 567.975 163.417 576 161.467C584.019 159.518 589.291 151.866 590 144L511 144C498.955 144 485.051 142.185 475.093 150.529C463.071 160.604 466 179.127 466 193L466 301z"/>
<path style="fill:#a8a8cc; stroke:none;" d="M638 144L639 145L638 144z"/>
<path style="fill:#7073a3; stroke:none;" d="M639 144L640 145L639 144z"/>
<path style="fill:#20247e; stroke:none;" d="M567 301C574.37 301 591.364 304.181 597.502 299.972C604.561 295.131 609.02 275.865 612.201 268C623.371 240.382 640.127 212.005 647 183L649 183L669 235C653.227 235 628.931 231.05 627 253L662 253C666.112 253 673.003 251.705 676.606 254.028C682.934 258.108 684.981 272.505 688.529 278.985C694.935 290.685 713.083 294.554 725 291C714.56 252.827 693.646 215.709 678.799 179C674.026 167.199 669.599 146.942 655 144.329C631.823 140.182 626.42 157.227 618.85 175C606.826 203.232 594.974 231.582 583.397 260C577.953 273.361 570.33 286.946 567 301z"/>
<path style="fill:#7073a3; stroke:none;" d="M656 144L657 145L656 144z"/>
<path style="fill:#a8a8cc; stroke:none;" d="M657 144L658 145L657 144M834 144L835 145L834 144M483 145L484 146L483 145z"/>
<path style="fill:#7073a3; stroke:none;" d="M484 145L485 146L484 145z"/>
<path style="fill:#a8a8cc; stroke:none;" d="M590.333 145.667L590.667 146.333L590.333 145.667M636 145L637 146L636 145M659 145L660 146L659 145M833 145L834 146L833 145z"/>
<path style="fill:#7073a3; stroke:none;" d="M481 146L482 147L481 146z"/>
<path style="fill:#a8a8cc; stroke:none;" d="M634 146L635 147L634 146M661 146L662 147L661 146M832 146L833 147L832 146z"/>
<path style="fill:#7073a3; stroke:none;" d="M479 147L480 148L479 147M633 147L634 148L633 147M662 147L663 148L662 147z"/>
<path style="fill:#a8a8cc; stroke:none;" d="M831 147L832 148L831 147M874 147L875 148L874 147M477 148L478 149L477 148z"/>
<path style="fill:#7073a3; stroke:none;" d="M589 148L590 149L589 148z"/>
<path style="fill:#a8a8cc; stroke:none;" d="M830 148L831 149L830 148M873 148L874 149L873 148z"/>
<path style="fill:#7073a3; stroke:none;" d="M476 149L477 150L476 149z"/>
<path style="fill:#a8a8cc; stroke:none;" d="M589 149L590 150L589 149M872 149L873 150L872 149M473 151L474 152L473 151M588 151L589 152L588 151z"/>
<path style="fill:#7073a3; stroke:none;" d="M629 151L630 152L629 151M666 151L667 152L666 151M587 152L588 153L587 152M628 152L629 153L628 152M667 152L668 153L667 152z"/>
<path style="fill:#a8a8cc; stroke:none;" d="M733 154L755 153C750.413 151.075 736.41 150.098 733 154M827 152L828 153L827 152M870 152L871 153L870 152M587 153L588 154L587 153z"/>
<path style="fill:#20247e; stroke:none;" d="M734 153C745.547 177.409 765.887 199.598 781 222L783 222L800 196C792.741 182.961 781.193 161.707 767 155.533C757.137 151.243 744.479 153 734 153z"/>
<path style="fill:#7073a3; stroke:none;" d="M758 153L758 154L761 154L758 153z"/>
<path style="fill:#a8a8cc; stroke:none;" d="M761 153L762 154L761 153M869 153L870 154L869 153z"/>
<path style="fill:#7073a3; stroke:none;" d="M471 154L472 155L471 154M586 154L587 155L586 154M627 154L628 155L627 154M668 154L669 155L668 154M734 154L735 155L734 154M764 154L765 155L764 154z"/>
<path style="fill:#a8a8cc; stroke:none;" d="M765 154L766 155L765 154M470 155L471 156L470 155z"/>
<path style="fill:#7073a3; stroke:none;" d="M585 155L586 156L585 155z"/>
<path style="fill:#a8a8cc; stroke:none;" d="M734 155L735 156L734 155M767 155L768 156L767 155M825 155L826 156L825 155M868 155L869 156L868 155z"/>
<path style="fill:#7073a3; stroke:none;" d="M584 156L585 157L584 156M626 156L627 157L626 156M669 156L670 157L669 156z"/>
<path style="fill:#a8a8cc; stroke:none;" d="M735 156L736 157L735 156M769 156L770 157L769 156z"/>
<path style="fill:#7073a3; stroke:none;" d="M469 157L470 158L469 157M583 157L584 158L583 157M736 157L737 158L736 157M770 157L771 158L770 157z"/>
<path style="fill:#a8a8cc; stroke:none;" d="M771 157L772 158L771 157z"/>
<path style="fill:#7073a3; stroke:none;" d="M582 158L583 159L582 158z"/>
<path style="fill:#a8a8cc; stroke:none;" d="M625 158L626 159L625 158M670 158L671 159L670 158M772 158L773 159L772 158M823 158L824 159L823 158M866 158L867 159L866 158z"/>
<path style="fill:#7073a3; stroke:none;" d="M468 159L469 160L468 159z"/>
<path style="fill:#a8a8cc; stroke:none;" d="M581 159L582 160L581 159z"/>
<path style="fill:#7073a3; stroke:none;" d="M625 159L626 160L625 159M670 159L671 160L670 159z"/>
<path style="fill:#a8a8cc; stroke:none;" d="M737 159L738 160L737 159z"/>
<path style="fill:#7073a3; stroke:none;" d="M773 159L774 160L773 159z"/>
<path style="fill:#a8a8cc; stroke:none;" d="M579 160L580 161L579 160M624 160L625 161L624 160M671 160L672 161L671 160z"/>
<path style="fill:#7073a3; stroke:none;" d="M738 160L739 161L738 160M774 160L775 161L774 160z"/>
<path style="fill:#a8a8cc; stroke:none;" d="M467 161L468 162L467 161z"/>
<path style="fill:#7073a3; stroke:none;" d="M576 161L577 162L576 161z"/>
<path style="fill:#a8a8cc; stroke:none;" d="M577 161L578 162L577 161z"/>
<path style="fill:#7073a3; stroke:none;" d="M624 161L625 162L624 161M671 161L672 162L671 161M775 161L776 162L775 161z"/>
<path style="fill:#a8a8cc; stroke:none;" d="M821 161L822 162L821 161M864 161L865 162L864 161z"/>
<path style="fill:#7073a3; stroke:none;" d="M467 162L468 163L467 162M498 162L498 163L570 163L547 162L498 162z"/>
<path style="fill:#a8a8cc; stroke:none;" d="M570 162L570 163L574 163L570 162M739 162L740 163L739 162z"/>
<path style="fill:#7073a3; stroke:none;" d="M776 162L777 163L776 162z"/>
<path style="fill:#a8a8cc; stroke:none;" d="M623 163L624 164L623 163M672 163L673 164L672 163z"/>
<path style="fill:#7073a3; stroke:none;" d="M740 163L741 164L740 163M777 163L778 164L777 163z"/>
<path style="fill:#a8a8cc; stroke:none;" d="M820 163L821 164L820 163M863 163L864 164L863 163M466 164L467 165L466 164z"/>
<path style="fill:#7073a3; stroke:none;" d="M672 164L673 165L672 164M778 164L779 165L778 164z"/>
<path style="fill:#a8a8cc; stroke:none;" d="M819 164L820 165L819 164M862 164L863 165L862 164z"/>
<path style="fill:#7073a3; stroke:none;" d="M466.333 165.667L466.667 166.333L466.333 165.667z"/>
<path style="fill:#a8a8cc; stroke:none;" d="M622 165L623 166L622 165M673 165L674 166L673 165M741 165L742 166L741 165M779 165L780 166L779 165z"/>
<path style="fill:#7073a3; stroke:none;" d="M622 166L623 167L622 166M673 166L674 167L673 166z"/>
<path style="fill:#a8a8cc; stroke:none;" d="M742 166L743 167L742 166M818 166L819 167L818 166M861 166L862 167L861 166z"/>
<path style="fill:#7073a3; stroke:none;" d="M743 167L744 168L743 167M780 167L781 168L780 167z"/>
<path style="fill:#a8a8cc; stroke:none;" d="M860 167L861 168L860 167z"/>
<path style="fill:#7073a3; stroke:none;" d="M621 168L622 169L621 168M674 168L675 169L674 168M781 168L782 169L781 168z"/>
<path style="fill:#a8a8cc; stroke:none;" d="M744 169L745 170L744 169M782 169L783 170L782 169M816 169L817 170L816 169M859 169L860 170L859 169M465 170L465 301L466 301L466 210C466 198.58 469.408 180.504 465 170M620 170L621 171L620 170M675 170L676 171L675 170z"/>
<path style="fill:#7073a3; stroke:none;" d="M745 170L746 171L745 170M620 171L621 172L620 171M675 171L676 172L675 171M783 171L784 172L783 171z"/>
<path style="fill:#a8a8cc; stroke:none;" d="M815 171L816 172L815 171M619 172L620 173L619 172M676 172L677 173L676 172M746 172L747 173L746 172M784 172L785 173L784 172M814 172L815 173L814 172M857 172L858 173L857 172z"/>
<path style="fill:#7073a3; stroke:none;" d="M619 173L620 174L619 173M676 173L677 174L676 173M747 173L748 174L747 173M785 174L786 175L785 174z"/>
<path style="fill:#a8a8cc; stroke:none;" d="M813 174L814 175L813 174M618 175L619 176L618 175M677 175L678 176L677 175M748 175L749 176L748 175M786 175L787 176L786 175M812 175L813 176L812 175M855 175L856 176L855 175z"/>
<path style="fill:#7073a3; stroke:none;" d="M749 176L750 177L749 176z"/>
<path style="fill:#a8a8cc; stroke:none;" d="M617 177L618 178L617 177M678 177L679 178L678 177z"/>
<path style="fill:#7073a3; stroke:none;" d="M750 177L751 178L750 177M787 177L788 178L787 177z"/>
<path style="fill:#a8a8cc; stroke:none;" d="M811 177L812 178L811 177M854 177L855 178L854 177z"/>
<path style="fill:#7073a3; stroke:none;" d="M617 178L618 179L617 178M678 178L679 179L678 178z"/>
<path style="fill:#a8a8cc; stroke:none;" d="M750 178L751 179L750 178M788 178L789 179L788 178M810 178L811 179L810 178M853 178L854 179L853 178M751 179L752 180L751 179M789 179L790 180L789 179z"/>
<path style="fill:#7073a3; stroke:none;" d="M616 180L617 181L616 180M679 180L680 181L679 180M752 180L753 181L752 180M789 180L790 181L789 180z"/>
<path style="fill:#a8a8cc; stroke:none;" d="M809 180L810 181L809 180M852 180L853 181L852 180z"/>
<path style="fill:#7073a3; stroke:none;" d="M790 181L791 182L790 181z"/>
<path style="fill:#a8a8cc; stroke:none;" d="M851 181L852 182L851 181M615 182L616 183L615 182M680 182L681 183L680 182M753 182L754 183L753 182M791 182L792 183L791 182z"/>
<path style="fill:#7073a3; stroke:none;" d="M615 183L616 184L615 183z"/>
<path style="fill:#a8a8cc; stroke:none;" d="M647.667 183.333L648.333 183.667L647.667 183.333z"/>
<path style="fill:#7073a3; stroke:none;" d="M680 183L681 184L680 183M754 183L755 184L754 183z"/>
<path style="fill:#a8a8cc; stroke:none;" d="M807 183L808 184L807 183M850 183L851 184L850 183M614 184L615 185L614 184M681 184L682 185L681 184z"/>
<path style="fill:#7073a3; stroke:none;" d="M792 184L793 185L792 184M614 185L615 186L614 185M646 185L647 186L646 185M649 185L650 186L649 185M681 185L682 186L681 185z"/>
<path style="fill:#a8a8cc; stroke:none;" d="M755 185L756 186L755 185M793 185L794 186L793 185M646 186L647 187L646 186M649 186L650 187L649 186z"/>
<path style="fill:#7073a3; stroke:none;" d="M756 186L757 187L756 186z"/>
<path style="fill:#a8a8cc; stroke:none;" d="M805 186L806 187L805 186M848 186L849 187L848 186M613 187L614 188L613 187M682 187L683 188L682 187z"/>
<path style="fill:#7073a3; stroke:none;" d="M757 187L758 188L757 187M794 187L795 188L794 187z"/>
<path style="fill:#a8a8cc; stroke:none;" d="M645 188L646 189L645 188M650 188L651 189L650 188M757 188L758 189L757 188M795 188L796 189L795 188M804 188L805 189L804 188M612 189L613 190L612 189M683 189L684 190L683 189M758 189L759 190L758 189M803 189L804 190L803 189M846 189L847 190L846 189z"/>
<path style="fill:#7073a3; stroke:none;" d="M612 190L613 191L612 190M644 190L645 191L644 190M651 190L652 191L651 190M683 190L684 191L683 190M759 190L760 191L759 190M796 190L797 191L796 190z"/>
<path style="fill:#a8a8cc; stroke:none;" d="M644 191L645 192L644 191M651 191L652 192L651 191M797 191L798 192L797 191M802 191L803 192L802 191M845 191L846 192L845 191z"/>
<path style="fill:#7073a3; stroke:none;" d="M611 192L612 193L611 192M684 192L685 193L684 192z"/>
<path style="fill:#a8a8cc; stroke:none;" d="M760 192L761 193L760 192M798 192L799 193L798 192M844 192L845 193L844 192M643 193L644 194L643 193z"/>
<path style="fill:#7073a3; stroke:none;" d="M652 193L653 194L652 193M761 193L762 194L761 193M798 193L799 194L798 193z"/>
<path style="fill:#a8a8cc; stroke:none;" d="M610 194L611 195L610 194M685 194L686 195L685 194z"/>
<path style="fill:#7073a3; stroke:none;" d="M799 194L800 195L799 194z"/>
<path style="fill:#a8a8cc; stroke:none;" d="M800 194L801 195L800 194M843 194L844 195L843 194z"/>
<path style="fill:#7073a3; stroke:none;" d="M610 195L611 196L610 195M642 195L643 196L642 195M653 195L654 196L653 195M685 195L686 196L685 195z"/>
<path style="fill:#a8a8cc; stroke:none;" d="M762 195L763 196L762 195M842 195L843 196L842 195M609 196L610 197L609 196M642 196L643 197L642 196M653 196L654 197L653 196M686 196L687 197L686 196z"/>
<path style="fill:#7073a3; stroke:none;" d="M763 196L764 197L763 196M609 197L610 198L609 197M686 197L687 198L686 197M798 197L799 198L798 197z"/>
<path style="fill:#a8a8cc; stroke:none;" d="M841 197L842 198L841 197M641 198L642 199L641 198M654 198L655 199L654 198M764 198L765 199L764 198M608 199L609 200L608 199M687 199L688 200L687 199z"/>
<path style="fill:#7073a3; stroke:none;" d="M765 199L766 200L765 199M797 199L798 200L797 199M640 200L641 201L640 200M655 200L656 201L655 200M766 200L767 201L766 200z"/>
<path style="fill:#a8a8cc; stroke:none;" d="M839 200L840 201L839 200M607 201L608 202L607 201M640 201L641 202L640 201M655 201L656 202L655 201M688 201L689 202L688 201M766 201L767 202L766 201z"/>
<path style="fill:#7073a3; stroke:none;" d="M607 202L608 203L607 202M639 202L640 203L639 202M656 202L657 203L656 202M688 202L689 203L688 202z"/>
<path style="fill:#a8a8cc; stroke:none;" d="M767 202L768 203L767 202z"/>
<path style="fill:#7073a3; stroke:none;" d="M795 202L796 203L795 202z"/>
<path style="fill:#a8a8cc; stroke:none;" d="M606 203L607 204L606 203M639 203L640 204L639 203M656 203L657 204L656 203z"/>
<path style="fill:#7073a3; stroke:none;" d="M768 203L769 204L768 203z"/>
<path style="fill:#a8a8cc; stroke:none;" d="M837 203L838 204L837 203z"/>
<path style="fill:#7073a3; stroke:none;" d="M606 204L607 205L606 204M689 204L690 205L689 204M638 205L639 206L638 205M657 205L658 206L657 205z"/>
<path style="fill:#a8a8cc; stroke:none;" d="M769 205L770 206L769 205z"/>
<path style="fill:#7073a3; stroke:none;" d="M793 205L794 206L793 205z"/>
<path style="fill:#a8a8cc; stroke:none;" d="M836 205L837 206L836 205z"/>
<path style="fill:#7073a3; stroke:none;" d="M497 206L498 207L497 206z"/>
<path style="fill:#a8a8cc; stroke:none;" d="M605 206L606 207L605 206M657 206L658 207L657 206M690 206L691 207L690 206z"/>
<path style="fill:#7073a3; stroke:none;" d="M770 206L771 207L770 206z"/>
<path style="fill:#a8a8cc; stroke:none;" d="M835 206L836 207L835 206z"/>
<path style="fill:#7073a3; stroke:none;" d="M605 207L606 208L605 207M637 207L638 208L637 207M658 207L659 208L658 207M690 207L691 208L690 207z"/>
<path style="fill:#a8a8cc; stroke:none;" d="M498 208L498 209L558 209L539 208L498 208M604 208L605 209L604 208M637 208L638 209L637 208M658 208L659 209L658 208M691 208L692 209L691 208M771 208L772 209L771 208z"/>
<path style="fill:#7073a3; stroke:none;" d="M791 208L792 209L791 208z"/>
<path style="fill:#a8a8cc; stroke:none;" d="M834 208L835 209L834 208z"/>
<path style="fill:#7073a3; stroke:none;" d="M560.667 209.333L561.333 209.667L560.667 209.333z"/>
<path style="fill:#a8a8cc; stroke:none;" d="M562 209L563 210L562 209z"/>
<path style="fill:#7073a3; stroke:none;" d="M604 209L605 210L604 209M691 209L692 210L691 209M772 209L773 210L772 209M564 210L565 211L564 210z"/>
<path style="fill:#a8a8cc; stroke:none;" d="M636 210L637 211L636 210z"/>
<path style="fill:#7073a3; stroke:none;" d="M659 210L660 211L659 210M773 210L774 211L773 210z"/>
<path style="fill:#a8a8cc; stroke:none;" d="M566 211L567 212L566 211M603 211L604 212L603 211M692 211L693 212L692 211M773 211L774 212L773 211z"/>
<path style="fill:#7073a3; stroke:none;" d="M789 211L790 212L789 211z"/>
<path style="fill:#a8a8cc; stroke:none;" d="M832 211L833 212L832 211z"/>
<path style="fill:#7073a3; stroke:none;" d="M567 212L568 213L567 212M635 212L636 213L635 212M660 212L661 213L660 212z"/>
<path style="fill:#a8a8cc; stroke:none;" d="M774 212L775 213L774 212M569 213L570 214L569 213M602 213L603 214L602 213M635 213L636 214L635 213M660 213L661 214L660 213M693 213L694 214L693 213z"/>
<path style="fill:#7073a3; stroke:none;" d="M775 213L776 214L775 213z"/>
<path style="fill:#a8a8cc; stroke:none;" d="M570 214L571 215L570 214z"/>
<path style="fill:#7073a3; stroke:none;" d="M602 214L603 215L602 214M634 214L635 215L634 214M693 214L694 215L693 214z"/>
<path style="fill:#a8a8cc; stroke:none;" d="M830 214L831 215L830 214M571 215L572 216L571 215M601 215L602 216L601 215M634 215L635 216L634 215M661 215L662 216L661 215M776 215L777 216L776 215z"/>
<path style="fill:#7073a3; stroke:none;" d="M601 216L602 217L601 216M694 216L695 217L694 216M777 216L778 217L777 216M786 216L787 217L786 216M572 217L573 218L572 217M633 217L634 218L633 217M662 217L663 218L662 217z"/>
<path style="fill:#a8a8cc; stroke:none;" d="M828 217L829 218L828 217M573 218L574 219L573 218M600 218L601 219L600 218M662 218L663 219L662 218M695 218L696 219L695 218M778 218L779 219L778 218z"/>
<path style="fill:#7073a3; stroke:none;" d="M600 219L601 220L600 219M632 219L633 220L632 219M663 219L664 220L663 219M695 219L696 220L695 219M779 219L780 220L779 219M784 219L785 220L784 219z"/>
<path style="fill:#a8a8cc; stroke:none;" d="M827 219L828 220L827 219M574 220L575 221L574 220M599 220L600 221L599 220M632 220L633 221L632 220M663 220L664 221L663 220M696 220L697 221L696 220M826 220L827 221L826 220z"/>
<path style="fill:#7073a3; stroke:none;" d="M599 221L600 222L599 221M696 221L697 222L696 221z"/>
<path style="fill:#a8a8cc; stroke:none;" d="M780 221L781 222L780 221M575 222L576 223L575 222M631 222L632 223L631 222z"/>
<path style="fill:#7073a3; stroke:none;" d="M664 222L665 223L664 222M781.667 222.333L782.333 222.667L781.667 222.333z"/>
<path style="fill:#a8a8cc; stroke:none;" d="M825 222L826 223L825 222z"/>
<path style="fill:#7073a3; stroke:none;" d="M575 223L576 224L575 223M598 223L599 224L598 223z"/>
<path style="fill:#a8a8cc; stroke:none;" d="M697 223L698 224L697 223z"/>
<path style="fill:#7073a3; stroke:none;" d="M630 224L631 225L630 224M665 224L666 225L665 224z"/>
<path style="fill:#a8a8cc; stroke:none;" d="M597 225L598 226L597 225M630 225L631 226L630 225M665 225L666 226L665 225M698 225L699 226L698 225M780 225L781 226L780 225M823 225L824 226L823 225M576.333 226.667L576.667 227.333L576.333 226.667z"/>
<path style="fill:#7073a3; stroke:none;" d="M597 226L598 227L597 226M629 226L630 227L629 226M698 226L699 227L698 226M498 227L498 228L576 228L552 227L498 227z"/>
<path style="fill:#a8a8cc; stroke:none;" d="M596 227L597 228L596 227M629 227L630 228L629 227M666 227L667 228L666 227M699 227L700 228L699 227M779 227L780 228L779 227M822 227L824 229L822 227z"/>
<path style="fill:#7073a3; stroke:none;" d="M596 228L597 229L596 228M699 228L700 229L699 228z"/>
<path style="fill:#a8a8cc; stroke:none;" d="M778 228L779 229L778 228z"/>
<path style="fill:#7073a3; stroke:none;" d="M821 228L822 229L821 228z"/>
<path style="fill:#20247e; stroke:none;" d="M822 228C817.334 234.115 805.811 247.111 805.837 255C805.857 261.022 813.432 268.262 816.656 273C822.003 280.857 827 289.916 835.015 295.401C845.763 302.757 860.664 301 873 301L846.344 262L822 228z"/>
<path style="fill:#7073a3; stroke:none;" d="M497 229L497 301L498 301L498 252L497 229M628 229L629 230L628 229M667 229L668 230L667 229M823 229L824 230L823 229z"/>
<path style="fill:#a8a8cc; stroke:none;" d="M595 230L596 231L595 230M667 230L668 231L667 230M700 230L701 231L700 230M777 230L778 231L777 230z"/>
<path style="fill:#7073a3; stroke:none;" d="M824 230L825 231L824 230M627 231L628 232L627 231M668 231L669 232L668 231M700 231L701 232L700 231M819 231L820 232L819 231z"/>
<path style="fill:#a8a8cc; stroke:none;" d="M825 231L826 232L825 231M594 232L595 233L594 232M627 232L628 233L627 232M668 232L669 233L668 232M701 232L702 233L701 232z"/>
<path style="fill:#7073a3; stroke:none;" d="M594 233L595 234L594 233M701 233L702 234L701 233z"/>
<path style="fill:#a8a8cc; stroke:none;" d="M775 233L776 234L775 233z"/>
<path style="fill:#7073a3; stroke:none;" d="M826 233L827 234L826 233z"/>
<path style="fill:#a8a8cc; stroke:none;" d="M626 234L627 235L626 234M642 234L642 235L645 235L642 234z"/>
<path style="fill:#7073a3; stroke:none;" d="M645 234L645 235L669 235L645 234z"/>
<path style="fill:#a8a8cc; stroke:none;" d="M827 234L828 235L827 234z"/>
<path style="fill:#7073a3; stroke:none;" d="M593 235L594 236L593 235z"/>
<path style="fill:#a8a8cc; stroke:none;" d="M639 235L640 236L639 235z"/>
<path style="fill:#7073a3; stroke:none;" d="M640 235L641 236L640 235z"/>
<path style="fill:#a8a8cc; stroke:none;" d="M702 235L703 236L702 235z"/>
<path style="fill:#7073a3; stroke:none;" d="M625 236L626 237L625 236M637 236L638 237L637 236z"/>
<path style="fill:#a8a8cc; stroke:none;" d="M773 236L774 237L773 236z"/>
<path style="fill:#7073a3; stroke:none;" d="M816 236L817 237L816 236M828 236L829 237L828 236z"/>
<path style="fill:#a8a8cc; stroke:none;" d="M592 237L593 238L592 237M625 237L626 238L625 237M635 237L636 238L635 237M703 237L704 238L703 237M829 237L830 238L829 237z"/>
<path style="fill:#7073a3; stroke:none;" d="M592 238L593 239L592 238M624 238L625 239L624 238M634 238L635 239L634 238M703 238L704 239L703 238z"/>
<path style="fill:#a8a8cc; stroke:none;" d="M591 239L592 240L591 239M624 239L625 240L624 239z"/>
<path style="fill:#7073a3; stroke:none;" d="M633 239L634 240L633 239z"/>
<path style="fill:#a8a8cc; stroke:none;" d="M704 239L705 240L704 239M771 239L772 240L771 239z"/>
<path style="fill:#7073a3; stroke:none;" d="M814 239L815 240L814 239M830 239L831 240L830 239M591 240L592 241L591 240M632 240L633 241L632 240M704 240L705 241L704 240z"/>
<path style="fill:#a8a8cc; stroke:none;" d="M831 240L832 241L831 240z"/>
<path style="fill:#7073a3; stroke:none;" d="M623 241L624 242L623 241M631 241L632 242L631 241z"/>
<path style="fill:#a8a8cc; stroke:none;" d="M770 241L771 242L770 241M832 241L833 242L832 241M590 242L591 243L590 242z"/>
<path style="fill:#7073a3; stroke:none;" d="M630 242L631 243L630 242z"/>
<path style="fill:#a8a8cc; stroke:none;" d="M705 242L706 243L705 242M769 242L770 243L769 242z"/>
<path style="fill:#7073a3; stroke:none;" d="M812 242L813 243L812 242M622 243L623 244L622 243z"/>
<path style="fill:#a8a8cc; stroke:none;" d="M629 243L630 244L629 243z"/>
<path style="fill:#7073a3; stroke:none;" d="M705 243L706 244L705 243M833 243L834 244L833 243z"/>
<path style="fill:#a8a8cc; stroke:none;" d="M589 244L590 245L589 244M622 244L623 245L622 244M706 244L707 245L706 244M768 244L769 245L768 244M834 244L835 245L834 244z"/>
<path style="fill:#7073a3; stroke:none;" d="M589 245L590 246L589 245z"/>
<path style="fill:#a8a8cc; stroke:none;" d="M628 245L629 246L628 245z"/>
<path style="fill:#7073a3; stroke:none;" d="M706 245L707 246L706 245M810 245L811 246L810 245z"/>
<path style="fill:#a8a8cc; stroke:none;" d="M621 246L622 247L621 246z"/>
<path style="fill:#7073a3; stroke:none;" d="M835 246L836 247L835 246M588 247L589 248L588 247z"/>
<path style="fill:#a8a8cc; stroke:none;" d="M627 247L628 248L627 247M707 247L708 248L707 247M766 247L767 248L766 247M836 247L837 248L836 247z"/>
<path style="fill:#7073a3; stroke:none;" d="M620 248L621 249L620 248M627 248L628 249L627 248M808 248L809 249L808 248z"/>
<path style="fill:#a8a8cc; stroke:none;" d="M587 249L588 250L587 249M708 249L709 250L708 249z"/>
<path style="fill:#7073a3; stroke:none;" d="M837 249L838 250L837 249M587 250L588 251L587 250M619 250L620 251L619 250z"/>
<path style="fill:#a8a8cc; stroke:none;" d="M626.333 250.667L626.667 251.333L626.333 250.667z"/>
<path style="fill:#7073a3; stroke:none;" d="M708 250L709 251L708 250z"/>
<path style="fill:#a8a8cc; stroke:none;" d="M764 250L765 251L764 250z"/>
<path style="fill:#7073a3; stroke:none;" d="M807 250L808 251L807 250z"/>
<path style="fill:#a8a8cc; stroke:none;" d="M838 250L839 251L838 250M586 251L587 252L586 251M619 251L620 252L619 251M709 251L710 252L709 251M839 251L840 252L839 251z"/>
<path style="fill:#7073a3; stroke:none;" d="M586 252L587 253L586 252M626 252L627 253L626 252M709 252L710 253L709 252z"/>
<path style="fill:#a8a8cc; stroke:none;" d="M763 252L764 253L763 252z"/>
<path style="fill:#7073a3; stroke:none;" d="M839 252L840 253L839 252z"/>
<path style="fill:#a8a8cc; stroke:none;" d="M169 253L169 258L170 258L169 253M618 253L619 254L618 253M626 253L626 254L677 254C663.873 248.492 640.311 253 626 253z"/>
<path style="fill:#7073a3; stroke:none;" d="M677 253L678 254L677 253z"/>
<path style="fill:#a8a8cc; stroke:none;" d="M762 253L763 254L762 253z"/>
<path style="fill:#7073a3; stroke:none;" d="M805 253L806 254L805 253M840 253L841 254L840 253z"/>
<path style="fill:#a8a8cc; stroke:none;" d="M585 254L586 255L585 254M710 254L711 255L710 254M841 254L842 255L841 254M327 255L327 258L328 258L327 255z"/>
<path style="fill:#7073a3; stroke:none;" d="M617 255L618 256L617 255M678 255L679 256L678 255z"/>
<path style="fill:#a8a8cc; stroke:none;" d="M761 255L762 256L761 255z"/>
<path style="fill:#7073a3; stroke:none;" d="M804 255L805 256L804 255M295 256L295 259L296 259L295 256z"/>
<path style="fill:#a8a8cc; stroke:none;" d="M584 256L585 257L584 256M617 256L618 257L617 256M678 256L679 257L678 256M711 256L712 257L711 256M760 256L761 257L760 256M803 256L804 257L803 256z"/>
<path style="fill:#7073a3; stroke:none;" d="M805 256L806 257L805 256M842 256L843 257L842 256M584 257L585 258L584 257M616 257L617 258L616 257M679 257L680 258L679 257M711 257L712 258L711 257z"/>
<path style="fill:#a8a8cc; stroke:none;" d="M805 257L806 258L805 257M843 257L844 258L843 257z"/>
<path style="fill:#7073a3; stroke:none;" d="M327.333 258.667L327.667 259.333L327.333 258.667z"/>
<path style="fill:#a8a8cc; stroke:none;" d="M616 258L617 259L616 258M679 258L680 259L679 258M759 258L760 259L759 258M802 258L803 259L802 258M806 258L807 259L806 258M202 259L203 260L202 259M295.333 259.667L295.667 260.333L295.333 259.667M407 259L408 260L407 259z"/>
<path style="fill:#7073a3; stroke:none;" d="M583 259L584 260L583 259M712 259L713 260L712 259z"/>
<path style="fill:#a8a8cc; stroke:none;" d="M801 259L802 260L801 259z"/>
<path style="fill:#7073a3; stroke:none;" d="M807 259L808 260L807 259M844 259L845 260L844 259M202 260L203 261L202 260M407 260L408 261L407 260M439 260L440 261L439 260M615 260L616 261L615 260M680 260L681 261L680 260z"/>
<path style="fill:#a8a8cc; stroke:none;" d="M845 260L846 261L845 260z"/>
<path style="fill:#7073a3; stroke:none;" d="M170 261L171 262L170 261z"/>
<path style="fill:#a8a8cc; stroke:none;" d="M328 261L329 262L328 261M439.333 261.667L439.667 262.333L439.333 261.667M582 261L583 262L582 261M713 261L714 262L713 261M757 261L758 262L757 261M800 261L801 262L800 261M808 261L809 262L808 261M170.333 262.667L170.667 263.333L170.333 262.667M203 262L204 263L203 262z"/>
<path style="fill:#7073a3; stroke:none;" d="M296 262L297 263L296 262M328 262L329 263L328 262z"/>
<path style="fill:#a8a8cc; stroke:none;" d="M406 262L407 263L406 262z"/>
<path style="fill:#7073a3; stroke:none;" d="M582 262L583 263L582 262M614 262L615 263L614 262M681 262L682 263L681 262M713 262L714 263L713 262M809 262L810 263L809 262M846 262L847 263L846 262M203 263L204 264L203 263z"/>
<path style="fill:#a8a8cc; stroke:none;" d="M296 263L297 264L296 263z"/>
<path style="fill:#7073a3; stroke:none;" d="M406 263L407 264L406 263z"/>
<path style="fill:#a8a8cc; stroke:none;" d="M581 263L582 264L581 263M614 263L615 264L614 263M681 263L682 264L681 263M714 263L715 264L714 263M847 263L848 264L847 263M329 264L330 265L329 264z"/>
<path style="fill:#7073a3; stroke:none;" d="M438 264L439 265L438 264M581 264L582 265L581 264M613 264L614 265L613 264M714 264L715 265L714 264z"/>
<path style="fill:#a8a8cc; stroke:none;" d="M755 264L756 265L755 264M798 264L799 265L798 264M810 264L811 265L810 264M848 264L849 265L848 264z"/>
<path style="fill:#7073a3; stroke:none;" d="M171 265L172 266L171 265z"/>
<path style="fill:#a8a8cc; stroke:none;" d="M204 265L205 266L204 265z"/>
<path style="fill:#7073a3; stroke:none;" d="M405 265L406 266L405 265z"/>
<path style="fill:#a8a8cc; stroke:none;" d="M438 265L439 266L438 265M613 265L614 266L613 265M682 265L683 266L682 265z"/>
<path style="fill:#7073a3; stroke:none;" d="M811 265L812 266L811 265M848 265L849 266L848 265z"/>
<path style="fill:#a8a8cc; stroke:none;" d="M171.333 266.667L171.667 267.333L171.333 266.667z"/>
<path style="fill:#7073a3; stroke:none;" d="M204 266L205 267L204 266M297 266L298 267L297 266M330 266L331 267L330 266z"/>
<path style="fill:#a8a8cc; stroke:none;" d="M580 266L581 267L580 266M715 266L716 267L715 266z"/>
<path style="fill:#7073a3; stroke:none;" d="M849 266L850 267L849 266z"/>
<path style="fill:#a8a8cc; stroke:none;" d="M205 267L206 268L205 267M331 267L332 268L331 267z"/>
<path style="fill:#7073a3; stroke:none;" d="M404 267L405 268L404 267M437 267L438 268L437 267M612 267L613 268L612 267M683 267L684 268L683 267z"/>
<path style="fill:#a8a8cc; stroke:none;" d="M753 267L754 268L753 267M796 267L797 268L796 267M812 267L813 268L812 267M850 267L851 268L850 267z"/>
<path style="fill:#7073a3; stroke:none;" d="M298 268L299 269L298 268M403 268L404 269L403 268z"/>
<path style="fill:#a8a8cc; stroke:none;" d="M437 268L438 269L437 268M579 268L580 269L579 268M683 268L684 269L683 268M716 268L717 269L716 268z"/>
<path style="fill:#7073a3; stroke:none;" d="M813 268L814 269L813 268M172 269L173 270L172 269M206 269L207 270L206 269z"/>
<path style="fill:#a8a8cc; stroke:none;" d="M298 269L299 270L298 269z"/>
<path style="fill:#7073a3; stroke:none;" d="M332 269L333 270L332 269z"/>
<path style="fill:#a8a8cc; stroke:none;" d="M402 269L403 270L402 269z"/>
<path style="fill:#7073a3; stroke:none;" d="M436 269L437 270L436 269M579 269L580 270L579 269M611 269L612 270L611 269M684 269L685 270L684 269M716 269L717 270L716 269z"/>
<path style="fill:#a8a8cc; stroke:none;" d="M752 269L753 270L752 269z"/>
<path style="fill:#7073a3; stroke:none;" d="M814 269L815 270L814 269M851 269L852 270L851 269z"/>
<path style="fill:#a8a8cc; stroke:none;" d="M172 270L173 271L172 270M207 270L208 271L207 270z"/>
<path style="fill:#7073a3; stroke:none;" d="M333 270L334 271L333 270z"/>
<path style="fill:#a8a8cc; stroke:none;" d="M401 270L402 271L401 270M436 270L437 271L436 270M611 270L612 271L611 270M684 270L685 271L684 270M751 270L752 271L751 270M794 270L795 271L794 270M814 270L815 271L814 270M852 270L853 271L852 270M299 271L300 272L299 271z"/>
<path style="fill:#7073a3; stroke:none;" d="M334 271L335 272L334 271z"/>
<path style="fill:#a8a8cc; stroke:none;" d="M400 271L401 272L400 271z"/>
<path style="fill:#7073a3; stroke:none;" d="M578 271L579 272L578 271M717 271L718 272L717 271z"/>
<path style="fill:#a8a8cc; stroke:none;" d="M815 271L816 272L815 271M173 272L174 273L173 272z"/>
<path style="fill:#7073a3; stroke:none;" d="M208 272L209 273L208 272M335 272L336 273L335 272z"/>
<path style="fill:#a8a8cc; stroke:none;" d="M399 272L400 273L399 272M435 272L436 273L435 272M610 272L611 273L610 272M685 272L686 273L685 272M750 272L751 273L750 272M793 272L794 273L793 272z"/>
<path style="fill:#7073a3; stroke:none;" d="M816 272L817 273L816 272M853 272L854 273L853 272M209 273L210 274L209 273z"/>
<path style="fill:#a8a8cc; stroke:none;" d="M300 273L301 274L300 273M337 273L338 274L337 273z"/>
<path style="fill:#7073a3; stroke:none;" d="M398 273L399 274L398 273M434 273L435 274L434 273z"/>
<path style="fill:#a8a8cc; stroke:none;" d="M577 273L578 274L577 273M718 273L719 274L718 273M749 273L750 274L749 273M792 273L793 274L792 273M854 273L855 274L854 273z"/>
<path style="fill:#7073a3; stroke:none;" d="M174 274L175 275L174 274M210 274L211 275L210 274M301 274L302 275L301 274z"/>
<path style="fill:#a8a8cc; stroke:none;" d="M338 274L339 275L338 274M396 274L397 275L396 274z"/>
<path style="fill:#7073a3; stroke:none;" d="M397 274L398 275L397 274z"/>
<path style="fill:#a8a8cc; stroke:none;" d="M434 274L435 275L434 274z"/>
<path style="fill:#7073a3; stroke:none;" d="M577 274L578 275L577 274M609 274L610 275L609 274M686 274L687 275L686 274M718 274L719 275L718 274z"/>
<path style="fill:#a8a8cc; stroke:none;" d="M748 274L749 275L748 274M817 274L818 275L817 274M855 274L856 275L855 274M174 275L175 276L174 275z"/>
<path style="fill:#7073a3; stroke:none;" d="M211 275L212 276L211 275z"/>
<path style="fill:#a8a8cc; stroke:none;" d="M301 275L302 276L301 275M340 275L341 276L340 275z"/>
<path style="fill:#7073a3; stroke:none;" d="M395 275L396 276L395 275M433 275L434 276L433 275z"/>
<path style="fill:#a8a8cc; stroke:none;" d="M576 275L577 276L576 275M609 275L610 276L609 275M686 275L687 276L686 275M719 275L720 276L719 275M747 275L748 276L747 275M791 275L792 276L791 275z"/>
<path style="fill:#7073a3; stroke:none;" d="M818 275L819 276L818 275M855 275L856 276L855 275M175 276L176 277L175 276z"/>
<path style="fill:#a8a8cc; stroke:none;" d="M213 276L214 277L213 276z"/>
<path style="fill:#7073a3; stroke:none;" d="M302 276L303 277L302 276M341 276L342 277L341 276z"/>
<path style="fill:#a8a8cc; stroke:none;" d="M342 276L343 277L342 276z"/>
<path style="fill:#7073a3; stroke:none;" d="M393 276L394 277L393 276M576 276L577 277L576 276M608 276L609 277L608 276M687 276L688 277L687 276M719 276L720 277L719 276z"/>
<path style="fill:#a8a8cc; stroke:none;" d="M790 276L791 277L790 276z"/>
<path style="fill:#7073a3; stroke:none;" d="M856 276L857 277L856 276M214 277L215 278L214 277z"/>
<path style="fill:#a8a8cc; stroke:none;" d="M215 277L216 278L215 277z"/>
<path style="fill:#7073a3; stroke:none;" d="M343 277L344 278L343 277z"/>
<path style="fill:#a8a8cc; stroke:none;" d="M344 277L345 278L344 277M390 277L391 278L390 277z"/>
<path style="fill:#7073a3; stroke:none;" d="M391 277L392 278L391 277z"/>
<path style="fill:#a8a8cc; stroke:none;" d="M432 277L433 278L432 277M608 277L609 278L608 277M687 277L688 278L687 277M819 277L820 278L819 277M857 277L858 278L857 277z"/>
<path style="fill:#7073a3; stroke:none;" d="M176 278L177 279L176 278M216 278L217 279L216 278z"/>
<path style="fill:#a8a8cc; stroke:none;" d="M303 278L304 279L303 278z"/>
<path style="fill:#7073a3; stroke:none;" d="M346 278L347 279L346 278z"/>
<path style="fill:#a8a8cc; stroke:none;" d="M347 278L348 279L347 278M388 278L389 279L388 278z"/>
<path style="fill:#7073a3; stroke:none;" d="M389 278L390 279L389 278M431 278L432 279L431 278z"/>
<path style="fill:#a8a8cc; stroke:none;" d="M575 278L576 279L575 278M720 278L721 279L720 278M789 278L790 279L789 278z"/>
<path style="fill:#7073a3; stroke:none;" d="M820 278L821 279L820 278M218 279L219 280L218 279z"/>
<path style="fill:#a8a8cc; stroke:none;" d="M219 279L220 280L219 279M304 279L305 280L304 279z"/>
<path style="fill:#7073a3; stroke:none;" d="M349 279L350 280L349 279z"/>
<path style="fill:#a8a8cc; stroke:none;" d="M350 279L351 280L350 279M384.667 279.333L385.333 279.667L384.667 279.333z"/>
<path style="fill:#7073a3; stroke:none;" d="M386 279L387 280L386 279z"/>
<path style="fill:#a8a8cc; stroke:none;" d="M607 279L608 280L607 279M688 279L689 280L688 279z"/>
<path style="fill:#7073a3; stroke:none;" d="M858 279L859 280L858 279z"/>
<path style="fill:#a8a8cc; stroke:none;" d="M177 280L178 281L177 280z"/>
<path style="fill:#7073a3; stroke:none;" d="M221 280L222 281L221 280z"/>
<path style="fill:#a8a8cc; stroke:none;" d="M222 280L223 281L222 280z"/>
<path style="fill:#7073a3; stroke:none;" d="M305 280L306 281L305 280M353 280L354 281L353 280z"/>
<path style="fill:#a8a8cc; stroke:none;" d="M354.667 280.333L355.333 280.667L354.667 280.333M380 280L381 281L380 280z"/>
<path style="fill:#7073a3; stroke:none;" d="M381.667 280.333L382.333 280.667L381.667 280.333z"/>
<path style="fill:#a8a8cc; stroke:none;" d="M430 280L431 281L430 280M574 280L575 281L574 280M721 280L722 281L721 280M821 280L822 281L821 280M859 280L860 281L859 280z"/>
<path style="fill:#7073a3; stroke:none;" d="M178 281L179 282L178 281M225 281L226 282L225 281z"/>
<path style="fill:#a8a8cc; stroke:none;" d="M226 281L226 282L229 282L226 281z"/>
<path style="fill:#7073a3; stroke:none;" d="M306 281L307 282L306 281M358.667 281.333L359.333 281.667L358.667 281.333z"/>
<path style="fill:#a8a8cc; stroke:none;" d="M360 281L360 282L366 282L360 281M370 281L370 282L375 282L370 281z"/>
<path style="fill:#7073a3; stroke:none;" d="M375 281L375 282L378 282L375 281z"/>
<path style="fill:#a8a8cc; stroke:none;" d="M429 281L430 282L429 281z"/>
<path style="fill:#7073a3; stroke:none;" d="M574 281L575 282L574 281M606 281L607 282L606 281z"/>
<path style="fill:#a8a8cc; stroke:none;" d="M689 281L690 282L689 281z"/>
<path style="fill:#7073a3; stroke:none;" d="M721 281L722 282L721 281z"/>
<path style="fill:#a8a8cc; stroke:none;" d="M741 281L742 282L741 281M787 281L788 282L787 281z"/>
<path style="fill:#7073a3; stroke:none;" d="M822 281L823 282L822 281M272.667 282.333L273.333 282.667L272.667 282.333z"/>
<path style="fill:#a8a8cc; stroke:none;" d="M274.667 282.333L275.333 282.667L274.667 282.333z"/>
<path style="fill:#7073a3; stroke:none;" d="M307 282L308 283L307 282z"/>
<path style="fill:#a8a8cc; stroke:none;" d="M428 282L429 283L428 282M606 282L607 283L606 282z"/>
<path style="fill:#7073a3; stroke:none;" d="M690 282L692 284L690 282z"/>
<path style="fill:#a8a8cc; stroke:none;" d="M740 282L741 283L740 282z"/>
<path style="fill:#7073a3; stroke:none;" d="M860 282L861 283L860 282z"/>
<path style="fill:#a8a8cc; stroke:none;" d="M179 283L180 284L179 283z"/>
<path style="fill:#7073a3; stroke:none;" d="M277 283L278 284L277 283z"/>
<path style="fill:#a8a8cc; stroke:none;" d="M278 283L279 284L278 283M427 283L428 284L427 283z"/>
<path style="fill:#7073a3; stroke:none;" d="M573 283L574 284L573 283M605 283L606 284L605 283z"/>
<path style="fill:#a8a8cc; stroke:none;" d="M690 283L691 284L690 283z"/>
<path style="fill:#7073a3; stroke:none;" d="M722 283L723 284L722 283z"/>
<path style="fill:#a8a8cc; stroke:none;" d="M739 283L740 284L739 283M786 283L787 284L786 283M823 283L824 284L823 283M861 283L862 284L861 283M180 284L181 285L180 284z"/>
<path style="fill:#7073a3; stroke:none;" d="M279 284L280 285L279 284z"/>
<path style="fill:#a8a8cc; stroke:none;" d="M280 284L281 285L280 284z"/>
<path style="fill:#7073a3; stroke:none;" d="M309 284L310 285L309 284z"/>
<path style="fill:#a8a8cc; stroke:none;" d="M426 284L427 285L426 284M605 284L606 285L605 284z"/>
<path style="fill:#7073a3; stroke:none;" d="M693 284L694 285L693 284z"/>
<path style="fill:#a8a8cc; stroke:none;" d="M785 284L786 285L785 284M824 284L825 285L824 284z"/>
<path style="fill:#7073a3; stroke:none;" d="M181 285L182 286L181 285z"/>
<path style="fill:#a8a8cc; stroke:none;" d="M281 285L282 286L281 285z"/>
<path style="fill:#7073a3; stroke:none;" d="M310 285L311 286L310 285z"/>
<path style="fill:#a8a8cc; stroke:none;" d="M425 285L426 286L425 285M572 285L573 286L572 285M691 285L692 286L691 285M723 285L724 286L723 285M736 285L737 286L736 285z"/>
<path style="fill:#7073a3; stroke:none;" d="M825 285L826 286L825 285M862 285L863 286L862 285M182 286L183 287L182 286M282 286L283 287L282 286M311 286L312 287L311 286z"/>
<path style="fill:#a8a8cc; stroke:none;" d="M424 286L425 287L424 286z"/>
<path style="fill:#7073a3; stroke:none;" d="M572 286L573 287L572 286z"/>
<path style="fill:#a8a8cc; stroke:none;" d="M604 286L605 287L604 286M692 286L693 287L692 286z"/>
<path style="fill:#7073a3; stroke:none;" d="M696 286L697 287L696 286M723 286L724 287L723 286z"/>
<path style="fill:#a8a8cc; stroke:none;" d="M863 286L864 287L863 286z"/>
<path style="fill:#7073a3; stroke:none;" d="M183 287L184 288L183 287M312 287L313 288L312 287M422 287L423 288L422 287z"/>
<path style="fill:#a8a8cc; stroke:none;" d="M571 287L572 288L571 287M724 287L725 288L724 287M733 287L734 288L733 287M826 287L827 288L826 287M864 287L865 288L864 287z"/>
<path style="fill:#7073a3; stroke:none;" d="M184 288L185 289L184 288z"/>
<path style="fill:#a8a8cc; stroke:none;" d="M313 288L314 289L313 288z"/>
<path style="fill:#7073a3; stroke:none;" d="M421 288L422 289L421 288M571 288L572 289L571 288M603 288L604 289L603 288M724 288L725 289L724 288z"/>
<path style="fill:#a8a8cc; stroke:none;" d="M731 288L732 289L731 288M782 288L783 289L782 288z"/>
<path style="fill:#7073a3; stroke:none;" d="M827 288L828 289L827 288M864 288L865 289L864 288M185 289L186 290L185 289M285 289L286 290L285 289M315 289L316 290L315 289z"/>
<path style="fill:#a8a8cc; stroke:none;" d="M420 289L421 290L420 289M603 289L604 290L603 289M694 289L695 290L694 289z"/>
<path style="fill:#7073a3; stroke:none;" d="M701 289L702 290L701 289z"/>
<path style="fill:#a8a8cc; stroke:none;" d="M729 289L730 290L729 289M781 289L782 290L781 289z"/>
<path style="fill:#7073a3; stroke:none;" d="M828 289L829 290L828 289M865 289L866 290L865 289z"/>
<path style="fill:#a8a8cc; stroke:none;" d="M186 290L187 291L186 290z"/>
<path style="fill:#7073a3; stroke:none;" d="M286 290L287 291L286 290z"/>
<path style="fill:#a8a8cc; stroke:none;" d="M316 290L317 291L316 290z"/>
<path style="fill:#7073a3; stroke:none;" d="M418 290L419 291L418 290z"/>
<path style="fill:#a8a8cc; stroke:none;" d="M570 290L571 291L570 290z"/>
<path style="fill:#7073a3; stroke:none;" d="M602 290L603 291L602 290z"/>
<path style="fill:#a8a8cc; stroke:none;" d="M695 290L696 291L695 290z"/>
<path style="fill:#7073a3; stroke:none;" d="M704 290L705 291L704 290z"/>
<path style="fill:#a8a8cc; stroke:none;" d="M725 290L725 291L728 291L725 290M780 290L781 291L780 290z"/>
<path style="fill:#7073a3; stroke:none;" d="M829 290L830 291L829 290z"/>
<path style="fill:#a8a8cc; stroke:none;" d="M866 290L867 291L866 290M187 291L188 292L187 291z"/>
<path style="fill:#7073a3; stroke:none;" d="M188 291L189 292L188 291z"/>
<path style="fill:#a8a8cc; stroke:none;" d="M287 291L288 292L287 291z"/>
<path style="fill:#7073a3; stroke:none;" d="M318 291L319 292L318 291z"/>
<path style="fill:#a8a8cc; stroke:none;" d="M417 291L418 292L417 291M602 291L603 292L602 291M696 291L697 292L696 291z"/>
<path style="fill:#7073a3; stroke:none;" d="M707 291L708 292L707 291M724 291L725 292L724 291z"/>
<path style="fill:#a8a8cc; stroke:none;" d="M779 291L780 292L779 291z"/>
<path style="fill:#7073a3; stroke:none;" d="M189 292L190 293L189 292z"/>
<path style="fill:#a8a8cc; stroke:none;" d="M319 292L320 293L319 292z"/>
<path style="fill:#7073a3; stroke:none;" d="M320 292L321 293L320 292z"/>
<path style="fill:#a8a8cc; stroke:none;" d="M415 292L416 293L415 292M569 292L570 293L569 292z"/>
<path style="fill:#7073a3; stroke:none;" d="M713.667 292.333L714.333 292.667L713.667 292.333M716.667 292.333L717.333 292.667L716.667 292.333z"/>
<path style="fill:#a8a8cc; stroke:none;" d="M778 292L779 293L778 292z"/>
<path style="fill:#7073a3; stroke:none;" d="M831 292L832 293L831 292M867 292L868 293L867 292z"/>
<path style="fill:#a8a8cc; stroke:none;" d="M190 293L191 294L190 293M288 293L289 294L288 293M321 293L322 294L321 293z"/>
<path style="fill:#7073a3; stroke:none;" d="M322 293L323 294L322 293z"/>
<path style="fill:#a8a8cc; stroke:none;" d="M413 293L414 294L413 293z"/>
<path style="fill:#7073a3; stroke:none;" d="M569 293L570 294L569 293M601 293L602 294L601 293z"/>
<path style="fill:#a8a8cc; stroke:none;" d="M777 293L778 294L777 293z"/>
<path style="fill:#7073a3; stroke:none;" d="M832 293L833 294L832 293z"/>
<path style="fill:#a8a8cc; stroke:none;" d="M868 293L869 294L868 293M192 294L193 295L192 294M323 294L324 295L323 294z"/>
<path style="fill:#7073a3; stroke:none;" d="M324 294L325 295L324 294z"/>
<path style="fill:#a8a8cc; stroke:none;" d="M411 294L412 295L411 294M699 294L700 295L699 294M776 294L777 295L776 294z"/>
<path style="fill:#7073a3; stroke:none;" d="M833 294L834 295L833 294M194 295L195 296L194 295z"/>
<path style="fill:#a8a8cc; stroke:none;" d="M289 295L290 296L289 295z"/>
<path style="fill:#7073a3; stroke:none;" d="M326 295L327 296L326 295M408 295L409 296L408 295z"/>
<path style="fill:#a8a8cc; stroke:none;" d="M409 295L410 296L409 295z"/>
<path style="fill:#7073a3; stroke:none;" d="M568 295L569 296L568 295M600 295L601 296L600 295z"/>
<path style="fill:#a8a8cc; stroke:none;" d="M700 295L701 296L700 295M834 295L835 296L834 295z"/>
<path style="fill:#7073a3; stroke:none;" d="M869 295L870 296L869 295M196 296L197 297L196 296M289 296L290 297L289 296z"/>
<path style="fill:#a8a8cc; stroke:none;" d="M328 296L329 297L328 296z"/>
<path style="fill:#7073a3; stroke:none;" d="M329 296L330 297L329 296M405 296L406 297L405 296z"/>
<path style="fill:#a8a8cc; stroke:none;" d="M406 296L407 297L406 296M600 296L601 297L600 296M701 296L702 297L701 296M773 296L774 297L773 296z"/>
<path style="fill:#7073a3; stroke:none;" d="M836 296L837 297L836 296z"/>
<path style="fill:#a8a8cc; stroke:none;" d="M870 296L871 297L870 296M198 297L199 298L198 297z"/>
<path style="fill:#7073a3; stroke:none;" d="M199 297L200 298L199 297z"/>
<path style="fill:#a8a8cc; stroke:none;" d="M331 297L332 298L331 297z"/>
<path style="fill:#7073a3; stroke:none;" d="M332 297L333 298L332 297M402 297L403 298L402 297z"/>
<path style="fill:#a8a8cc; stroke:none;" d="M403 297L404 298L403 297M567 297L568 298L567 297z"/>
<path style="fill:#7073a3; stroke:none;" d="M599 297L600 298L599 297z"/>
<path style="fill:#a8a8cc; stroke:none;" d="M702 297L703 298L702 297M837 297L838 298L837 297z"/>
<path style="fill:#7073a3; stroke:none;" d="M838 297L839 298L838 297z"/>
<path style="fill:#a8a8cc; stroke:none;" d="M871 297L872 298L871 297M201 298L202 299L201 298z"/>
<path style="fill:#7073a3; stroke:none;" d="M202 298L203 299L202 298z"/>
<path style="fill:#a8a8cc; stroke:none;" d="M334.667 298.333L335.333 298.667L334.667 298.333z"/>
<path style="fill:#7073a3; stroke:none;" d="M336 298L337 299L336 298M398.667 298.333L399.333 298.667L398.667 298.333z"/>
<path style="fill:#a8a8cc; stroke:none;" d="M400 298L401 299L400 298z"/>
<path style="fill:#7073a3; stroke:none;" d="M567 298L568 299L567 298z"/>
<path style="fill:#a8a8cc; stroke:none;" d="M599 298L600 299L599 298M770 298L771 299L770 298z"/>
<path style="fill:#7073a3; stroke:none;" d="M840 298L841 299L840 298M871 298L872 299L871 298z"/>
<path style="fill:#a8a8cc; stroke:none;" d="M204 299L205 300L204 299z"/>
<path style="fill:#7073a3; stroke:none;" d="M205.667 299.333L206.333 299.667L205.667 299.333z"/>
<path style="fill:#a8a8cc; stroke:none;" d="M290 299L291 300L290 299M338.667 299.333L339.333 299.667L338.667 299.333z"/>
<path style="fill:#7073a3; stroke:none;" d="M340.667 299.333L341.333 299.667L340.667 299.333M394 299L395 300L394 299z"/>
<path style="fill:#a8a8cc; stroke:none;" d="M395.667 299.333L396.333 299.667L395.667 299.333M566 299L567 300L566 299M705 299L706 300L705 299M768 299L769 300L768 299M842.667 299.333L843.333 299.667L842.667 299.333z"/>
<path style="fill:#7073a3; stroke:none;" d="M844 299L845 300L844 299M872 299L873 300L872 299z"/>
<path style="fill:#a8a8cc; stroke:none;" d="M209 300L210 301L209 300z"/>
<path style="fill:#7073a3; stroke:none;" d="M210 300L210 301L213 301L210 300M290 300L291 301L290 300z"/>
<path style="fill:#a8a8cc; stroke:none;" d="M344.667 300.333L345.333 300.667L344.667 300.333z"/>
<path style="fill:#7073a3; stroke:none;" d="M346 300L346 301L349 301L346 300M386 300L386 301L389 301L386 300z"/>
<path style="fill:#a8a8cc; stroke:none;" d="M389.667 300.333L390.333 300.667L389.667 300.333z"/>
<path style="fill:#7073a3; stroke:none;" d="M566 300L567 301L566 300M598 300L599 301L598 300z"/>
<path style="fill:#a8a8cc; stroke:none;" d="M707 300L708 301L707 300M766 300L767 301L766 300M847.667 300.333L848.333 300.667L847.667 300.333z"/>
<path style="fill:#7073a3; stroke:none;" d="M849.667 300.333L850.333 300.667L849.667 300.333z"/>
<path style="fill:#a8a8cc; stroke:none;" d="M873 300L874 301L873 300M220 301L220 302L290 302L268 301L220 301M353 301L353 302L382 302L353 301M764 301L765 302L764 301M710.667 302.333L711.333 302.667L710.667 302.333M762 302L763 303L762 302M713 303L714 304L713 303M759 303L760 304L759 303M716 304L717 305L716 304M755.667 304.333L756.333 304.667L755.667 304.333M720.667 305.333L721.333 305.667L720.667 305.333M750.667 305.333L751.333 305.667L750.667 305.333M728 306L728 307L744 307L728 306M169 338L169 339L173 339L169 338M209 358L210 358C210 352.469 207.876 342.322 213 339C206.723 337.59 209 353.978 209 358M312 338L312 339L323 339L312 338M412 338L412 339L423 339L412 338M514 338L514 339L543 339L514 338M649 345L648 345L648 384L637 384L637 351C637 346.606 635.963 341.617 640 339C635.106 337.901 636.001 344.711 636 348C635.996 357.074 632.598 374.541 636.603 382.682C638.156 385.836 645.871 386.05 647.972 383.397C649.772 381.125 649 376.693 649 374L649 362L649 345M713 338L713 339L717 339L713 338M757 338L757 339L760 339L757 338M860 338L860 339L884 339L860 338z"/>
<path style="fill:#7073a3; stroke:none;" d="M169 339L169 384L170 384C170 371.258 173.91 350.701 169 339z"/>
<path style="fill:#20247e; stroke:none;" d="M170 339L170 384L181 384L181 363L210 363L210 384L221 384C221 371.184 227.522 339.814 210 339L210 359L181 359C181 349.335 182.25 339.637 170 339z"/>
<path style="fill:#7073a3; stroke:none;" d="M175 339L176 340L175 339z"/>
<path style="fill:#a8a8cc; stroke:none;" d="M176 339L177 340L176 339z"/>
<path style="fill:#7073a3; stroke:none;" d="M215 339L216 340L215 339z"/>
<path style="fill:#a8a8cc; stroke:none;" d="M216 339L217 340L216 339M307 339L308 340L307 339z"/>
<path style="fill:#7073a3; stroke:none;" d="M308.667 339.333L309.333 339.667L308.667 339.333z"/>
<path style="fill:#20247e; stroke:none;" d="M310 339.44C293.713 342.057 280.507 360.311 293.34 374.907C300.239 382.753 313.109 384.966 323 383.41C340.378 380.675 356.107 361.546 339.906 346.188C332.283 338.962 319.953 337.841 310 339.44z"/>
<path style="fill:#7073a3; stroke:none;" d="M325.667 339.333L326.333 339.667L325.667 339.333z"/>
<path style="fill:#a8a8cc; stroke:none;" d="M327 339L328 340L327 339z"/>
<path style="fill:#20247e; stroke:none;" d="M412 339C412 349.239 407.8 371.743 415.419 379.606C423.411 387.855 443.543 384 454 384C450.108 373.828 434.736 382.349 427.133 377.142C418.833 371.457 423 347.961 423 339L412 339z"/>
<path style="fill:#7073a3; stroke:none;" d="M423 339L423 373L424 373L423 339M514 339L515 340L514 339z"/>
<path style="fill:#20247e; stroke:none;" d="M515 339C516.67 344.287 521.093 343.992 526 344C535.194 344.015 545.19 343.646 552.907 349.638C565.146 359.143 557.731 373.746 545 377.56C540.362 378.95 535.793 378.999 531 379L531 347L520 347L520 384C533.099 384 549.059 386.214 560.996 379.583C575.537 371.507 572.165 350.667 558.996 343.352C546.265 336.28 529 339 515 339z"/>
<path style="fill:#7073a3; stroke:none;" d="M547 339L548 340L547 339z"/>
<path style="fill:#a8a8cc; stroke:none;" d="M548.667 339.333L549.333 339.667L548.667 339.333z"/>
<path style="fill:#20247e; stroke:none;" d="M637 339L637 384L648 384C648 371.297 654.472 339.812 637 339z"/>
<path style="fill:#7073a3; stroke:none;" d="M642 339L643 340L642 339z"/>
<path style="fill:#a8a8cc; stroke:none;" d="M643 339L644 340L643 339z"/>
<path style="fill:#20247e; stroke:none;" d="M713 339L713 384L724 384L724 352C739.693 363.055 747.212 384 768 384C768 371.328 774.481 339.909 757 339L757 375C742.972 365.091 731.751 339.402 713 339z"/>
<path style="fill:#7073a3; stroke:none;" d="M719 339L720 340L719 339z"/>
<path style="fill:#a8a8cc; stroke:none;" d="M720 339L721 340L720 339z"/>
<path style="fill:#7073a3; stroke:none;" d="M756 339L756 375L757 375C757 364.613 760.011 348.56 756 339M762 339L763 340L762 339z"/>
<path style="fill:#a8a8cc; stroke:none;" d="M763 339L764 340L763 339M855 339L856 340L855 339z"/>
<path style="fill:#7073a3; stroke:none;" d="M856.667 339.333L857.333 339.667L856.667 339.333z"/>
<path style="fill:#20247e; stroke:none;" d="M886 361C878.603 361 868.271 358.683 864 366L875 366L875 379C866.81 379.646 859.38 380.083 852.015 375.521C841.325 368.899 841.902 355.231 852.039 348.388C860.65 342.576 878.241 348.069 883 339C874.811 339 866.103 338.164 858 339.439C853.191 340.196 848.278 341.536 844 343.905C831.816 350.652 828.392 368.33 840.015 377.468C847.418 383.287 857.954 384.042 867 383.999C871.429 383.978 882.037 384.399 884.972 380.436C887.987 376.365 886 365.911 886 361z"/>
<path style="fill:#7073a3; stroke:none;" d="M883 339L884 340L883 339M177 340L178 341L177 340z"/>
<path style="fill:#a8a8cc; stroke:none;" d="M218 340L219 341L218 340M303 340L304 341L303 340z"/>
<path style="fill:#7073a3; stroke:none;" d="M304 340L305 341L304 340M330 340L331 341L330 340z"/>
<path style="fill:#a8a8cc; stroke:none;" d="M331 340L332 341L331 340M514 340L515 341L514 340z"/>
<path style="fill:#7073a3; stroke:none;" d="M551.667 340.333L552.333 340.667L551.667 340.333z"/>
<path style="fill:#a8a8cc; stroke:none;" d="M553 340L554 341L553 340M645 340L646 341L645 340M722 340L723 341L722 340z"/>
<path style="fill:#7073a3; stroke:none;" d="M764 340L765 341L764 340z"/>
<path style="fill:#a8a8cc; stroke:none;" d="M765 340L766 341L765 340M851 340L852 341L851 340z"/>
<path style="fill:#7073a3; stroke:none;" d="M852 340L853 341L852 340z"/>
<path style="fill:#a8a8cc; stroke:none;" d="M883 340L884 341L883 340M179 341L180 342L179 341z"/>
<path style="fill:#7073a3; stroke:none;" d="M219 341L220 342L219 341z"/>
<path style="fill:#a8a8cc; stroke:none;" d="M301 341L302 342L301 341z"/>
<path style="fill:#7073a3; stroke:none;" d="M302 341L303 342L302 341M332 341L333 342L332 341z"/>
<path style="fill:#a8a8cc; stroke:none;" d="M333 341L334 342L333 341z"/>
<path style="fill:#7073a3; stroke:none;" d="M555 341L556 342L555 341M646 341L647 342L646 341M723 341L724 342L723 341z"/>
<path style="fill:#a8a8cc; stroke:none;" d="M766 341L767 342L766 341M848 341L849 342L848 341z"/>
<path style="fill:#7073a3; stroke:none;" d="M849 341L850 342L849 341M882 341L883 342L882 341z"/>
<path style="fill:#a8a8cc; stroke:none;" d="M220 342L221 343L220 342M299 342L300 343L299 342M335 342L336 343L335 342M515 342L516 343L515 342z"/>
<path style="fill:#7073a3; stroke:none;" d="M557 342L558 343L557 342z"/>
<path style="fill:#a8a8cc; stroke:none;" d="M647 342L648 343L647 342z"/>
<path style="fill:#7073a3; stroke:none;" d="M713 342L714 343L713 342M724 342L725 343L724 342z"/>
<path style="fill:#a8a8cc; stroke:none;" d="M846 342L847 343L846 342z"/>
<path style="fill:#7073a3; stroke:none;" d="M881 342L882 343L881 342z"/>
<path style="fill:#a8a8cc; stroke:none;" d="M180 343L181 344L180 343z"/>
<path style="fill:#7073a3; stroke:none;" d="M298 343L299 344L298 343M336 343L337 344L336 343z"/>
<path style="fill:#a8a8cc; stroke:none;" d="M337 343L338 344L337 343M517 343L518 344L517 343z"/>
<path style="fill:#7073a3; stroke:none;" d="M559 343L560 344L559 343M647 343L648 344L647 343M725 343L726 344L725 343M767 343L768 344L767 343M844 343L845 344L844 343M879 343L880 344L879 343z"/>
<path style="fill:#a8a8cc; stroke:none;" d="M880 343L881 344L880 343z"/>
<path style="fill:#7073a3; stroke:none;" d="M180 344L181 345L180 344z"/>
<path style="fill:#a8a8cc; stroke:none;" d="M221 344L221 384L222 384C222 372.566 225.411 354.512 221 344M296 344L297 345L296 344z"/>
<path style="fill:#7073a3; stroke:none;" d="M313 344L314 345L313 344z"/>
<path style="fill:#a8a8cc; stroke:none;" d="M314 344L314 345L320 345L314 344z"/>
<path style="fill:#7073a3; stroke:none;" d="M320.667 344.333L321.333 344.667L320.667 344.333z"/>
<path style="fill:#a8a8cc; stroke:none;" d="M338 344L339 345L338 344M520 344L520 345L538 345L520 344z"/>
<path style="fill:#7073a3; stroke:none;" d="M538 344L538 345L541 345L538 344z"/>
<path style="fill:#a8a8cc; stroke:none;" d="M561 344L562 345L561 344z"/>
<path style="fill:#7073a3; stroke:none;" d="M726 344L727 345L726 344z"/>
<path style="fill:#a8a8cc; stroke:none;" d="M842 344L843 345L842 344z"/>
<path style="fill:#7073a3; stroke:none;" d="M860 344L860 345L863 345L860 344z"/>
<path style="fill:#a8a8cc; stroke:none;" d="M863 344L863 345L878 345L863 344z"/>
<path style="fill:#7073a3; stroke:none;" d="M295 345L296 346L295 345M309 345L310 346L309 345z"/>
<path style="fill:#a8a8cc; stroke:none;" d="M310 345L311 346L310 345z"/>
<path style="fill:#ffffff; stroke:none;" d="M311.001 345.649C289.259 352.239 302.59 383.496 324 377.057C345.523 370.585 332.182 339.229 311.001 345.649z"/>
<path style="fill:#a8a8cc; stroke:none;" d="M323.667 345.333L324.333 345.667L323.667 345.333z"/>
<path style="fill:#7073a3; stroke:none;" d="M339 345L340 346L339 345z"/>
<path style="fill:#a8a8cc; stroke:none;" d="M543 345L544 346L543 345z"/>
<path style="fill:#7073a3; stroke:none;" d="M544 345L545 346L544 345M562 345L563 346L562 345M727 345L728 346L727 345M841 345L842 346L841 345M857 345L858 346L857 345z"/>
<path style="fill:#a8a8cc; stroke:none;" d="M858 345L859 346L858 345z"/>
<path style="fill:#7073a3; stroke:none;" d="M294 346L295 347L294 346M307 346L308 347L307 346z"/>
<path style="fill:#a8a8cc; stroke:none;" d="M308 346L309 347L308 346M326 346L327 347L326 346z"/>
<path style="fill:#7073a3; stroke:none;" d="M327 346L328 347L327 346M340 346L341 347L340 346z"/>
<path style="fill:#a8a8cc; stroke:none;" d="M546.667 346.333L547.333 346.667L546.667 346.333z"/>
<path style="fill:#7073a3; stroke:none;" d="M563 346L564 347L563 346M728 346L729 347L728 346z"/>
<path style="fill:#a8a8cc; stroke:none;" d="M839 346L840 347L839 346z"/>
<path style="fill:#7073a3; stroke:none;" d="M854 346L855 347L854 346z"/>
<path style="fill:#a8a8cc; stroke:none;" d="M855 346L856 347L855 346z"/>
<path style="fill:#7073a3; stroke:none;" d="M293 347L294 348L293 347z"/>
<path style="fill:#a8a8cc; stroke:none;" d="M306 347L307 348L306 347M328 347L329 348L328 347z"/>
<path style="fill:#7073a3; stroke:none;" d="M341 347L342 348L341 347M531 347L531 379L532 379L531 347z"/>
<path style="fill:#a8a8cc; stroke:none;" d="M549 347L550 348L549 347z"/>
<path style="fill:#7073a3; stroke:none;" d="M729 347L730 348L729 347z"/>
<path style="fill:#a8a8cc; stroke:none;" d="M838 347L839 348L838 347M853 347L854 348L853 347z"/>
<path style="fill:#7073a3; stroke:none;" d="M292 348L293 349L292 348z"/>
<path style="fill:#a8a8cc; stroke:none;" d="M305 348L306 349L305 348M329 348L330 349L329 348M342 348L343 349L342 348M551 348L552 349L551 348z"/>
<path style="fill:#7073a3; stroke:none;" d="M565 348L566 349L565 348M730 348L731 349L730 348z"/>
<path style="fill:#a8a8cc; stroke:none;" d="M837 348L838 349L837 348z"/>
<path style="fill:#7073a3; stroke:none;" d="M851 348L852 349L851 348z"/>
<path style="fill:#a8a8cc; stroke:none;" d="M291 349L292 350L291 349M330 349L331 350L330 349M343 349L344 350L343 349z"/>
<path style="fill:#7073a3; stroke:none;" d="M553 349L554 350L553 349M566 349L567 350L566 349z"/>
<path style="fill:#a8a8cc; stroke:none;" d="M731 349L732 350L731 349M836 349L837 350L836 349M850 349L851 350L850 349M303 350L304 351L303 350M331 350L332 351L331 350z"/>
<path style="fill:#7073a3; stroke:none;" d="M343 350L344 351L343 350M554 350L555 351L554 350z"/>
<path style="fill:#a8a8cc; stroke:none;" d="M567 350L568 351L567 350M732 350L733 351L732 350z"/>
<path style="fill:#7073a3; stroke:none;" d="M848 350L849 351L848 350z"/>
<path style="fill:#a8a8cc; stroke:none;" d="M290 351L291 352L290 351M302 351L303 352L302 351z"/>
<path style="fill:#7073a3; stroke:none;" d="M332 351L333 352L332 351z"/>
<path style="fill:#a8a8cc; stroke:none;" d="M344 351L345 352L344 351z"/>
<path style="fill:#7073a3; stroke:none;" d="M555 351L556 352L555 351z"/>
<path style="fill:#a8a8cc; stroke:none;" d="M733 351L734 352L733 351z"/>
<path style="fill:#7073a3; stroke:none;" d="M835 351L836 352L835 351M301 352L302 353L301 352M568 352L569 353L568 352M724 352L724 384L725 384L724 352z"/>
<path style="fill:#a8a8cc; stroke:none;" d="M725 352L726 353L725 352M734 352L735 353L734 352M834 352L835 353L834 352M847 352L848 353L847 352M289 353L290 354L289 353M301 353L302 354L301 353M333 353L334 354L333 353M345 353L346 354L345 353M556 353L557 354L556 353M726 353L727 354L726 353M735 353L736 354L735 353z"/>
<path style="fill:#7073a3; stroke:none;" d="M834 353L835 354L834 353z"/>
<path style="fill:#a8a8cc; stroke:none;" d="M846 353L847 354L846 353z"/>
<path style="fill:#7073a3; stroke:none;" d="M289 354L290 355L289 354M345 354L346 355L345 354M557 354L558 355L557 354z"/>
<path style="fill:#a8a8cc; stroke:none;" d="M569 354L570 355L569 354M727 354L728 355L727 354M736 354L737 355L736 354z"/>
<path style="fill:#7073a3; stroke:none;" d="M845 354L846 355L845 354M300 355L301 356L300 355M334 355L335 356L334 355M569 355L570 356L569 355z"/>
<path style="fill:#a8a8cc; stroke:none;" d="M728 355L729 356L728 355M737 355L738 356L737 355z"/>
<path style="fill:#7073a3; stroke:none;" d="M833 355L834 356L833 355z"/>
<path style="fill:#a8a8cc; stroke:none;" d="M845 355L846 356L845 355M288 356L289 357L288 356M300 356L301 357L300 356M334.333 356.667L334.667 357.333L334.333 356.667M346.333 356.667L346.667 357.333L346.333 356.667z"/>
<path style="fill:#7073a3; stroke:none;" d="M558 356L559 357L558 356z"/>
<path style="fill:#a8a8cc; stroke:none;" d="M729 356L730 357L729 356M738 356L739 357L738 356z"/>
<path style="fill:#7073a3; stroke:none;" d="M288.333 357.667L288.667 358.333L288.333 357.667z"/>
<path style="fill:#a8a8cc; stroke:none;" d="M558 357L559 358L558 357M570 357L571 358L570 357M730 357L731 358L730 357M739 357L740 358L739 357z"/>
<path style="fill:#7073a3; stroke:none;" d="M844 357L845 358L844 357M181 358L181 359L210 359L181 358M346 358L346 365L347 365L346 358M570.333 358.667L570.667 359.333L570.333 358.667z"/>
<path style="fill:#a8a8cc; stroke:none;" d="M731 358L732 359L731 358M740 358L741 359L740 358M832.333 358.667L832.667 359.333L832.333 358.667M844 358L845 359L844 358M732 359L733 360L732 359M741 359L742 360L741 359z"/>
<path style="fill:#7073a3; stroke:none;" d="M299 360L299 363L300 363L299 360M559 360L559 364L560 364L559 360z"/>
<path style="fill:#a8a8cc; stroke:none;" d="M733 360L734 361L733 360M742 360L743 361L742 360z"/>
<path style="fill:#7073a3; stroke:none;" d="M832 360L832 365L833 365L832 360M734 361L735 362L734 361z"/>
<path style="fill:#a8a8cc; stroke:none;" d="M743 361L744 362L743 361z"/>
<path style="fill:#7073a3; stroke:none;" d="M867 361L868 362L867 361z"/>
<path style="fill:#a8a8cc; stroke:none;" d="M886 361L886 381L887 381L886 361z"/>
<path style="fill:#7073a3; stroke:none;" d="M735 362L736 363L735 362z"/>
<path style="fill:#a8a8cc; stroke:none;" d="M744 362L745 363L744 362M865 362L866 363L865 362M181 363L181 364L209 364L209 384C210.095 381.39 209.996 378.838 210 376C210.005 372.882 211.043 367.218 208.972 364.603C205.362 360.045 186.563 363 181 363z"/>
<path style="fill:#7073a3; stroke:none;" d="M209 363L210 364L209 363M288 363L288 366L289 366L288 363M736 363L737 364L736 363z"/>
<path style="fill:#a8a8cc; stroke:none;" d="M745 363L746 364L745 363M864 363L865 364L864 363z"/>
<path style="fill:#7073a3; stroke:none;" d="M570.333 364.667L570.667 365.333L570.333 364.667M737 364L738 365L737 364M864 364L865 365L864 364z"/>
<path style="fill:#a8a8cc; stroke:none;" d="M334 365L335 366L334 365M346 365L347 366L346 365z"/>
<path style="fill:#7073a3; stroke:none;" d="M738 365L739 366L738 365z"/>
<path style="fill:#a8a8cc; stroke:none;" d="M832.333 365.667L832.667 366.333L832.333 365.667M844 365L845 366L844 365M288 366L289 367L288 366M300 366L301 367L300 366z"/>
<path style="fill:#7073a3; stroke:none;" d="M334.333 366.667L334.667 367.333L334.333 366.667z"/>
<path style="fill:#a8a8cc; stroke:none;" d="M558 366L559 367L558 366M570.333 366.667L570.667 367.333L570.333 366.667z"/>
<path style="fill:#7073a3; stroke:none;" d="M739 366L740 367L739 366M844.333 366.667L844.667 367.333L844.333 366.667z"/>
<path style="fill:#a8a8cc; stroke:none;" d="M874 366L874 379L875 379L874 366z"/>
<path style="fill:#7073a3; stroke:none;" d="M300 367L301 368L300 367M558 367L559 368L558 367M740 367L741 368L740 367M289 368L290 369L289 368z"/>
<path style="fill:#a8a8cc; stroke:none;" d="M333 368L334 369L333 368z"/>
<path style="fill:#7073a3; stroke:none;" d="M345 368L346 369L345 368z"/>
<path style="fill:#a8a8cc; stroke:none;" d="M557 368L558 369L557 368z"/>
<path style="fill:#7073a3; stroke:none;" d="M741 368L742 369L741 368M749 368L750 369L749 368M833 368L834 369L833 368z"/>
<path style="fill:#a8a8cc; stroke:none;" d="M845 368L846 369L845 368M289 369L290 370L289 369z"/>
<path style="fill:#7073a3; stroke:none;" d="M301 369L302 370L301 369M333 369L334 370L333 369M557 369L558 370L557 369M569 369L570 370L569 369M742 369L743 370L742 369M750 369L751 370L750 369z"/>
<path style="fill:#a8a8cc; stroke:none;" d="M833 369L834 370L833 369z"/>
<path style="fill:#7073a3; stroke:none;" d="M845 369L846 370L845 369z"/>
<path style="fill:#a8a8cc; stroke:none;" d="M332 370L333 371L332 370z"/>
<path style="fill:#7073a3; stroke:none;" d="M344 370L345 371L344 370z"/>
<path style="fill:#a8a8cc; stroke:none;" d="M556 370L557 371L556 370M569 370L570 371L569 370z"/>
<path style="fill:#7073a3; stroke:none;" d="M743 370L744 371L743 370M751 370L752 371L751 370z"/>
<path style="fill:#a8a8cc; stroke:none;" d="M846 370L847 371L846 370M290 371L291 372L290 371z"/>
<path style="fill:#7073a3; stroke:none;" d="M302 371L303 372L302 371M332 371L333 372L332 371z"/>
<path style="fill:#a8a8cc; stroke:none;" d="M555 371L556 372L555 371z"/>
<path style="fill:#7073a3; stroke:none;" d="M752 371L753 372L752 371M834 371L835 372L834 371M291 372L292 373L291 372z"/>
<path style="fill:#a8a8cc; stroke:none;" d="M303 372L304 373L303 372z"/>
<path style="fill:#7073a3; stroke:none;" d="M331 372L332 373L331 372M343 372L344 373L343 372z"/>
<path style="fill:#a8a8cc; stroke:none;" d="M554 372L555 373L554 372M568 372L569 373L568 372z"/>
<path style="fill:#7073a3; stroke:none;" d="M753 372L754 373L753 372M847 372L848 373L847 372z"/>
<path style="fill:#a8a8cc; stroke:none;" d="M304 373L305 374L304 373M330 373L331 374L330 373z"/>
<path style="fill:#7073a3; stroke:none;" d="M342 373L343 374L342 373z"/>
<path style="fill:#a8a8cc; stroke:none;" d="M553 373L554 374L553 373z"/>
<path style="fill:#7073a3; stroke:none;" d="M567 373L568 374L567 373z"/>
<path style="fill:#a8a8cc; stroke:none;" d="M754 373L755 374L754 373M835 373L836 374L835 373z"/>
<path style="fill:#7073a3; stroke:none;" d="M848 373L849 374L848 373z"/>
<path style="fill:#a8a8cc; stroke:none;" d="M292 374L293 375L292 374M305 374L306 375L305 374z"/>
<path style="fill:#7073a3; stroke:none;" d="M329 374L330 375L329 374M412 374L413 375L412 374M552 374L553 375L552 374z"/>
<path style="fill:#a8a8cc; stroke:none;" d="M567 374L568 375L567 374M755 374L756 375L755 374M836 374L837 375L836 374M850 374L851 375L850 374M293 375L294 376L293 375z"/>
<path style="fill:#7073a3; stroke:none;" d="M306 375L307 376L306 375M328 375L329 376L328 375z"/>
<path style="fill:#a8a8cc; stroke:none;" d="M341 375L342 376L341 375M412 375L413 376L412 375z"/>
<path style="fill:#7073a3; stroke:none;" d="M424 375L425 376L424 375M550 375L551 376L550 375z"/>
<path style="fill:#a8a8cc; stroke:none;" d="M566 375L567 376L566 375z"/>
<path style="fill:#7073a3; stroke:none;" d="M837 375L838 376L837 375z"/>
<path style="fill:#a8a8cc; stroke:none;" d="M851 375L852 376L851 375M294 376L295 377L294 376z"/>
<path style="fill:#7073a3; stroke:none;" d="M308 376L309 377L308 376M326 376L327 377L326 376z"/>
<path style="fill:#a8a8cc; stroke:none;" d="M340 376L341 377L340 376z"/>
<path style="fill:#7073a3; stroke:none;" d="M425 376L426 377L425 376z"/>
<path style="fill:#a8a8cc; stroke:none;" d="M547 376L548 377L547 376z"/>
<path style="fill:#7073a3; stroke:none;" d="M548 376L549 377L548 376z"/>
<path style="fill:#a8a8cc; stroke:none;" d="M565 376L566 377L565 376z"/>
<path style="fill:#7073a3; stroke:none;" d="M838 376L839 377L838 376z"/>
<path style="fill:#a8a8cc; stroke:none;" d="M853 376L854 377L853 376M295 377L296 378L295 377z"/>
<path style="fill:#7073a3; stroke:none;" d="M310 377L311 378L310 377z"/>
<path style="fill:#a8a8cc; stroke:none;" d="M311.667 377.333L312.333 377.667L311.667 377.333M322.667 377.333L323.333 377.667L322.667 377.333z"/>
<path style="fill:#7073a3; stroke:none;" d="M324 377L325 378L324 377M413 377L414 378L413 377M426 377L427 378L426 377z"/>
<path style="fill:#a8a8cc; stroke:none;" d="M427 377L428 378L427 377M544 377L545 378L544 377z"/>
<path style="fill:#7073a3; stroke:none;" d="M545 377L546 378L545 377z"/>
<path style="fill:#a8a8cc; stroke:none;" d="M564 377L565 378L564 377M749 377L750 378L749 377M839 377L840 378L839 377z"/>
<path style="fill:#7073a3; stroke:none;" d="M855 377L856 378L855 377M297 378L298 379L297 378M315 378L315 379L320 379L315 378M337 378L338 379L337 378M429 378L429 379L448 379L429 378z"/>
<path style="fill:#a8a8cc; stroke:none;" d="M448.667 378.333L449.333 378.667L448.667 378.333M538 378L538 379L541 379L538 378z"/>
<path style="fill:#7073a3; stroke:none;" d="M541 378L542 379L541 378z"/>
<path style="fill:#a8a8cc; stroke:none;" d="M563 378L564 379L563 378M750 378L751 379L750 378z"/>
<path style="fill:#7073a3; stroke:none;" d="M841 378L842 379L841 378M858 378L859 379L858 378z"/>
<path style="fill:#a8a8cc; stroke:none;" d="M859 378L860 379L859 378M298 379L299 380L298 379M336 379L337 380L336 379M414 379L415 380L414 379z"/>
<path style="fill:#7073a3; stroke:none;" d="M451 379L452 380L451 379z"/>
<path style="fill:#a8a8cc; stroke:none;" d="M561 379L562 380L561 379M751 379L752 380L751 379M842 379L843 380L842 379z"/>
<path style="fill:#7073a3; stroke:none;" d="M863 379L863 380L871 380L863 379M300 380L301 381L300 380z"/>
<path style="fill:#a8a8cc; stroke:none;" d="M334 380L335 381L334 380M415 380L416 381L415 380M559 380L560 381L559 380M752 380L753 381L752 380M844 380L845 381L844 380M302 381L303 382L302 381z"/>
<path style="fill:#7073a3; stroke:none;" d="M303 381L304 382L303 381M331 381L332 382L331 381z"/>
<path style="fill:#a8a8cc; stroke:none;" d="M332 381L333 382L332 381z"/>
<path style="fill:#7073a3; stroke:none;" d="M417 381L418 382L417 381M453 381L454 382L453 381M556 381L557 382L556 381z"/>
<path style="fill:#a8a8cc; stroke:none;" d="M557 381L558 382L557 381M753 381L754 382L753 381M846 381L847 382L846 381z"/>
<path style="fill:#7073a3; stroke:none;" d="M847 381L848 382L847 381M885 381L886 382L885 381z"/>
<path style="fill:#a8a8cc; stroke:none;" d="M305 382L306 383L305 382z"/>
<path style="fill:#7073a3; stroke:none;" d="M306 382L307 383L306 382M328 382L329 383L328 382z"/>
<path style="fill:#a8a8cc; stroke:none;" d="M329 382L330 383L329 382M418 382L419 383L418 382z"/>
<path style="fill:#7073a3; stroke:none;" d="M419 382L420 383L419 382M553 382L554 383L553 382z"/>
<path style="fill:#a8a8cc; stroke:none;" d="M554 382L555 383L554 382M754 382L755 383L754 382M849 382L850 383L849 382z"/>
<path style="fill:#7073a3; stroke:none;" d="M850.667 382.333L851.333 382.667L850.667 382.333M881 382L882 383L881 382z"/>
<path style="fill:#a8a8cc; stroke:none;" d="M882 382L883 383L882 382M308.667 383.333L309.333 383.667L308.667 383.333z"/>
<path style="fill:#7073a3; stroke:none;" d="M310 383L310 384L313 384L310 383M322 383L322 384L325 384L322 383z"/>
<path style="fill:#a8a8cc; stroke:none;" d="M325 383L326 384L325 383M421 383L422 384L421 383z"/>
<path style="fill:#7073a3; stroke:none;" d="M422 383L423 384L422 383z"/>
<path style="fill:#a8a8cc; stroke:none;" d="M454 383L455 384L454 383z"/>
<path style="fill:#7073a3; stroke:none;" d="M547.667 383.333L548.333 383.667L547.667 383.333z"/>
<path style="fill:#a8a8cc; stroke:none;" d="M549.667 383.333L550.333 383.667L549.667 383.333M755 383L756 384L755 383M853.667 383.333L854.333 383.667L853.667 383.333z"/>
<path style="fill:#7073a3; stroke:none;" d="M855.667 383.333L856.333 383.667L855.667 383.333M874 383L874 384L877 384L874 383z"/>
<path style="fill:#a8a8cc; stroke:none;" d="M877.667 383.333L878.333 383.667L877.667 383.333M427 384L427 385L450 385L427 384M520 384L520 385L542 385L520 384M714 384L714 385L724 385L714 384M756 384L756 385L768 385L756 384M861 384L861 385L870 385L861 384z"/>
</svg>
