<?xml version="1.0" standalone="no"?>
<!DOCTYPE svg PUBLIC "-//W3C//DTD SVG 20010904//EN"
 "http://www.w3.org/TR/2001/REC-SVG-20010904/DTD/svg10.dtd">
<svg version="1.0" xmlns="http://www.w3.org/2000/svg"
 width="894.000000pt" height="892.000000pt" viewBox="0 0 894.000000 892.000000"
 preserveAspectRatio="xMidYMid meet">

<g transform="translate(0.000000,892.000000) scale(0.100000,-0.100000)"
fill="#000000" stroke="none">
<path d="M6735 8064 c-474 -169 -745 -273 -1145 -437 l-85 -35 -30 19 c-133
86 -317 165 -473 205 -231 59 -172 57 -1504 61 l-1228 4 0 -1285 0 -1285 -60
-108 c-159 -290 -244 -599 -243 -893 0 -238 60 -388 218 -545 50 -49 111 -101
135 -114 25 -12 86 -45 135 -71 275 -149 668 -250 1200 -309 442 -50 814 -64
1500 -58 477 4 1161 23 1173 33 4 3 -22 49 -579 1036 -192 340 -349 621 -349
625 0 5 48 42 107 83 59 41 157 123 218 182 l111 107 245 30 c134 17 290 36
347 42 56 7 102 15 102 18 -1 3 -57 128 -125 276 l-124 270 -60 -2 c-34 -2
-61 1 -61 5 0 4 7 54 15 112 8 58 17 135 20 171 l6 65 282 68 c155 38 303 73
328 80 l47 11 -132 277 c-72 153 -136 278 -143 278 -10 0 -186 -47 -436 -115
-46 -13 -48 -13 -57 8 -19 50 -71 156 -100 205 l-31 52 28 11 c108 41 646 229
1048 366 94 32 170 61 170 64 0 3 -58 130 -129 282 -92 199 -133 277 -145 276
-9 0 -97 -29 -196 -65z"/>
<path d="M4390 779 c-40 -16 -79 -60 -86 -95 -19 -100 75 -181 171 -148 47 16
59 28 51 49 -5 14 -9 15 -20 6 -45 -38 -131 -28 -155 17 -45 83 45 171 130
128 20 -10 36 -13 42 -7 14 14 -1 31 -39 47 -38 16 -59 17 -94 3z"/>
<path d="M5735 776 c-114 -52 -103 -219 17 -245 110 -24 199 79 152 175 -34
68 -107 99 -169 70z m95 -41 c102 -53 37 -195 -75 -164 -72 20 -86 120 -22
159 39 24 59 25 97 5z"/>
<path d="M6060 779 c-40 -16 -79 -60 -86 -95 -19 -100 75 -181 171 -148 47 16
59 28 51 49 -5 14 -9 15 -20 6 -45 -38 -131 -28 -155 17 -45 83 45 171 130
128 20 -10 36 -13 42 -7 14 14 -1 31 -39 47 -38 16 -59 17 -94 3z"/>
<path d="M6528 775 c-15 -9 -31 -27 -34 -41 -11 -42 9 -69 70 -94 62 -25 74
-52 32 -71 -19 -9 -31 -8 -56 5 -34 17 -50 14 -50 -9 0 -32 94 -50 138 -26 26
14 38 55 26 89 -7 19 -24 32 -64 47 -39 15 -55 26 -55 39 0 30 29 43 67 28 39
-14 61 -1 37 23 -23 23 -79 28 -111 10z"/>
<path d="M6760 783 c-31 -12 -50 -37 -50 -68 0 -38 21 -59 74 -77 46 -15 67
-41 48 -60 -15 -15 -78 -14 -96 1 -10 8 -16 8 -25 -3 -10 -12 -8 -18 13 -31
53 -35 137 -13 150 40 10 38 -10 64 -69 90 -62 28 -71 38 -49 59 18 19 38 20
66 5 16 -8 24 -8 35 4 14 14 12 17 -15 31 -32 16 -55 19 -82 9z"/>
<path d="M2310 760 c0 -16 7 -20 35 -20 l35 0 0 -105 c0 -98 1 -105 20 -105
19 0 20 7 20 105 l0 105 35 0 c28 0 35 4 35 20 0 19 -7 20 -90 20 -83 0 -90
-1 -90 -20z"/>
<path d="M2550 655 c0 -118 1 -125 20 -125 18 0 20 7 20 55 l0 55 60 0 60 0 0
-55 c0 -48 2 -55 20 -55 19 0 20 7 20 125 0 118 -1 125 -20 125 -17 0 -20 -7
-20 -50 l0 -50 -60 0 -60 0 0 50 c0 43 -3 50 -20 50 -19 0 -20 -7 -20 -125z"/>
<path d="M2840 655 l0 -125 85 0 c78 0 85 2 85 20 0 18 -7 20 -70 20 l-70 0 0
35 0 35 55 0 c48 0 55 2 55 20 0 18 -7 20 -55 20 -54 0 -55 0 -55 30 l0 30 70
0 c63 0 70 2 70 20 0 18 -7 20 -85 20 l-85 0 0 -125z"/>
<path d="M3170 655 c0 -104 2 -125 15 -125 11 0 15 12 15 45 0 44 1 45 33 45
28 0 36 -6 57 -45 17 -32 31 -45 46 -45 22 0 22 0 -5 50 -18 34 -22 53 -15 58
16 10 34 48 34 70 0 11 -9 31 -21 46 -19 24 -27 26 -90 26 l-69 0 0 -125z
m138 57 c5 -35 -15 -52 -64 -52 l-44 0 0 41 0 40 53 -3 c46 -3 52 -6 55 -26z"/>
<path d="M3481 758 c-5 -13 -18 -45 -29 -73 -67 -167 -64 -155 -43 -155 11 0
23 12 31 30 12 29 15 30 72 30 57 0 59 -1 69 -30 7 -19 18 -30 30 -30 10 0 19
1 19 3 0 2 -22 57 -48 123 -39 96 -52 120 -70 122 -15 2 -25 -4 -31 -20z m53
-78 c9 -22 16 -43 16 -45 0 -7 -65 -6 -72 1 -7 7 23 84 32 84 4 0 15 -18 24
-40z"/>
<path d="M3690 655 l0 -125 75 0 c68 0 75 2 75 20 0 18 -7 20 -60 20 l-60 0 0
105 c0 87 -3 105 -15 105 -13 0 -15 -21 -15 -125z"/>
<path d="M3900 655 l0 -125 80 0 c73 0 80 2 80 20 0 18 -7 20 -60 20 l-60 0 0
105 c0 98 -1 105 -20 105 -19 0 -20 -7 -20 -125z"/>
<path d="M4060 774 c0 -4 20 -40 45 -81 36 -58 45 -83 45 -118 0 -38 3 -45 20
-45 17 0 20 7 20 50 0 41 8 62 41 117 23 38 43 71 46 76 2 4 -6 7 -19 7 -18 0
-30 -13 -53 -55 -16 -30 -33 -55 -37 -55 -4 0 -22 25 -39 55 -20 37 -37 55
-50 55 -10 0 -19 -3 -19 -6z"/>
<path d="M4600 655 c0 -104 2 -125 15 -125 11 0 15 12 15 45 0 44 1 45 33 45
28 0 36 -6 57 -45 17 -32 31 -45 46 -45 22 0 22 0 -5 50 -18 34 -22 53 -15 58
16 10 34 48 34 70 0 11 -9 31 -21 46 -19 24 -27 26 -90 26 l-69 0 0 -125z
m138 57 c5 -35 -15 -52 -64 -52 l-44 0 0 41 0 40 53 -3 c46 -3 52 -6 55 -26z"/>
<path d="M4860 698 c39 -65 50 -92 50 -125 0 -32 4 -43 15 -43 11 0 15 11 15
43 0 32 11 60 45 117 50 85 52 90 27 90 -11 0 -29 -20 -47 -52 -17 -28 -34
-51 -40 -51 -5 0 -23 23 -40 51 -22 37 -36 52 -52 52 -21 0 -19 -6 27 -82z"/>
<path d="M5170 655 c0 -104 2 -125 15 -125 11 0 15 12 15 45 l0 45 48 0 c78 0
120 56 88 118 -19 37 -32 42 -107 42 l-59 0 0 -125z m138 57 c5 -35 -15 -52
-64 -52 l-44 0 0 41 0 40 53 -3 c46 -3 52 -6 55 -26z"/>
<path d="M5410 655 c0 -118 1 -125 20 -125 17 0 20 7 20 45 0 44 1 45 33 45
29 0 36 -5 55 -45 15 -31 28 -45 42 -45 25 0 25 6 -5 55 l-24 39 21 23 c30 32
30 89 -1 114 -18 15 -40 19 -92 19 l-69 0 0 -125z m148 57 c5 -35 -15 -52 -64
-52 l-44 0 0 41 0 40 53 -3 c46 -3 52 -6 55 -26z"/>
<path d="M6270 655 l0 -125 85 0 c78 0 85 2 85 20 0 18 -7 20 -70 20 l-70 0 0
35 0 35 55 0 c48 0 55 2 55 20 0 18 -7 20 -55 20 -54 0 -55 0 -55 30 l0 30 70
0 c63 0 70 2 70 20 0 18 -7 20 -85 20 l-85 0 0 -125z"/>
</g>
</svg>
