<?xml version="1.0" standalone="yes"?>
<svg xmlns="http://www.w3.org/2000/svg" width="894" height="892">
<path style="fill:#f9fbff; stroke:none;" d="M0 0L0 892L894 892L894 0L0 0z"/>
<path style="fill:#e97871; stroke:none;" d="M693 78L693 79L696 83L697 83L693 78M684 81L684 82L692 80L684 81z"/>
<path style="fill:#d42f23; stroke:none;" d="M617 568L617 567C524.792 567 426.204 561.424 337 536.14C304.253 526.859 247.055 503.513 274.066 460C294.352 427.32 339.46 414.596 374 403.975C434.388 385.407 498.47 375.504 561 367.282C581.014 364.65 600.981 361.89 621 359.282C631.465 357.918 642.894 358.071 653 355L634.86 315L626.725 300.618L606 302.92L550 313.2L405 347.427L337 370L337 369C350.751 363.994 363.85 354.822 377 348.247C397.43 338.032 418.751 329.553 440 321.203C518.161 290.491 602.548 265.99 685 250C682.5 235.977 672.311 220.898 666.219 208C664.497 204.354 662.028 196.086 657.787 194.777C651.567 192.857 640.11 198.647 634 200.265C613.55 205.682 593.302 211.631 573 217.576C514.49 234.709 455.892 256.699 401 283.258C373.402 296.612 347.563 313.964 320 327C394.425 258.448 491.629 218.795 585 183.576C629.316 166.861 674.241 148.485 720 136C718.079 117.244 702.25 96.436 695 79C680.81 81.0956 666.431 88.0344 653 92.9468C625.484 103.01 598.138 113.349 571 124.397C458.711 170.108 343.668 225.803 260.089 316C228.559 350.026 204.361 393.686 198 440C194.717 463.9 196.003 488.083 211.236 508C236.627 541.199 287.929 552.859 327 559.414C399.385 571.557 473.692 572.782 547 570.985C570.306 570.414 593.677 568 617 568z"/>
<path style="fill:#e97871; stroke:none;" d="M681.667 82.3333L682.333 82.6667L681.667 82.3333M678.667 83.3333L679.333 83.6667L678.667 83.3333M675.667 84.3333L676.333 84.6667L675.667 84.3333M697 84L698 85L697 84M672.667 85.3333L673.333 85.6667L672.667 85.3333M669.667 86.3333L670.333 86.6667L669.667 86.3333M698 86L699 87L698 86M667.667 87.3333L668.333 87.6667L667.667 87.3333M664.667 88.3333L665.333 88.6667L664.667 88.3333M699.333 88.6667L699.667 89.3333L699.333 88.6667M661.667 89.3333L662.333 89.6667L661.667 89.3333M658.667 90.3333L659.333 90.6667L658.667 90.3333M700.333 90.6667L700.667 91.3333L700.333 90.6667M655.667 91.3333L656.333 91.6667L655.667 91.3333M652 92L652 93L655 93L652 92M701.333 92.6667L701.667 93.3333L701.333 92.6667M650.667 93.3333L651.333 93.6667L650.667 93.3333M647.667 94.3333L648.333 94.6667L647.667 94.3333M702.333 94.6667L702.667 95.3333L702.333 94.6667M644.667 95.3333L645.333 95.6667L644.667 95.3333M641 96L641 97L644 97L641 96M703.333 96.6667L703.667 97.3333L703.333 96.6667M639.667 97.3333L640.333 97.6667L639.667 97.3333M636.667 98.3333L637.333 98.6667L636.667 98.3333M633.667 99.3333L634.333 99.6667L633.667 99.3333M704 99L705 100L704 99M631.667 100.333L632.333 100.667L631.667 100.333M628.667 101.333L629.333 101.667L628.667 101.333M705 101L706 102L705 101M625.667 102.333L626.333 102.667L625.667 102.333M623 103L624 104L623 103M706 103L707 104L706 103z"/>
<path style="fill:#535c69; stroke:none;" d="M227 104L227 360L228 360L228 105L463 105L441 104L393 104L227 104z"/>
<path style="fill:#e97871; stroke:none;" d="M463 104L463 105L467 105L463 104M620.667 104.333L621.333 104.667L620.667 104.333z"/>
<path style="fill:#182335; stroke:none;" d="M228 105L228 358L229 358C243.452 332.042 265.75 310.246 287 289.961C345.177 234.424 417.541 195.725 489 160.248C508.629 150.503 529.682 143.299 549 133C522.353 107.501 475.472 105 441 105L228 105z"/>
<path style="fill:#535c69; stroke:none;" d="M468 105L468 106L475 106L468 105z"/>
<path style="fill:#e97871; stroke:none;" d="M475.667 105.333L476.333 105.667L475.667 105.333M617 105L617 106L620 106L617 105M707.333 105.667L707.667 106.333L707.333 105.667z"/>
<path style="fill:#535c69; stroke:none;" d="M478 106L478 107L482 107L478 106z"/>
<path style="fill:#e97871; stroke:none;" d="M482.667 106.333L483.333 106.667L482.667 106.333M615.667 106.333L616.333 106.667L615.667 106.333z"/>
<path style="fill:#535c69; stroke:none;" d="M485 107L485 108L488 108L485 107z"/>
<path style="fill:#e97871; stroke:none;" d="M488 107L489 108L488 107M612.667 107.333L613.333 107.667L612.667 107.333M708.333 107.667L708.667 108.333L708.333 107.667z"/>
<path style="fill:#535c69; stroke:none;" d="M490 108L490 109L493 109L490 108z"/>
<path style="fill:#e97871; stroke:none;" d="M493 108L494 109L493 108M610 108L611 109L610 108z"/>
<path style="fill:#535c69; stroke:none;" d="M495.667 109.333L496.333 109.667L495.667 109.333z"/>
<path style="fill:#e97871; stroke:none;" d="M497 109L498 110L497 109M607.667 109.333L608.333 109.667L607.667 109.333M709.333 109.667L709.667 110.333L709.333 109.667z"/>
<path style="fill:#535c69; stroke:none;" d="M499.667 110.333L500.333 110.667L499.667 110.333z"/>
<path style="fill:#e97871; stroke:none;" d="M501 110L502 111L501 110M604 110L604 111L607 111L604 110z"/>
<path style="fill:#535c69; stroke:none;" d="M503.667 111.333L504.333 111.667L503.667 111.333z"/>
<path style="fill:#e97871; stroke:none;" d="M505 111L506 112L505 111M602.667 111.333L603.333 111.667L602.667 111.333z"/>
<path style="fill:#535c69; stroke:none;" d="M506.667 112.333L507.333 112.667L506.667 112.333z"/>
<path style="fill:#e97871; stroke:none;" d="M508 112L509 113L508 112M599.667 112.333L600.333 112.667L599.667 112.333M710 112L711 113L710 112z"/>
<path style="fill:#535c69; stroke:none;" d="M509.667 113.333L510.333 113.667L509.667 113.333z"/>
<path style="fill:#e97871; stroke:none;" d="M511 113L512 114L511 113M597.667 113.333L598.333 113.667L597.667 113.333z"/>
<path style="fill:#535c69; stroke:none;" d="M512.667 114.333L513.333 114.667L512.667 114.333z"/>
<path style="fill:#e97871; stroke:none;" d="M514 114L515 115L514 114M594.667 114.333L595.333 114.667L594.667 114.333M711 114L712 115L711 114z"/>
<path style="fill:#535c69; stroke:none;" d="M515.667 115.333L516.333 115.667L515.667 115.333z"/>
<path style="fill:#e97871; stroke:none;" d="M517 115L518 116L517 115M591.667 115.333L592.333 115.667L591.667 115.333z"/>
<path style="fill:#535c69; stroke:none;" d="M518 116L519 117L518 116z"/>
<path style="fill:#e97871; stroke:none;" d="M519 116L520 117L519 116M589.667 116.333L590.333 116.667L589.667 116.333M712.333 116.667L712.667 117.333L712.333 116.667z"/>
<path style="fill:#535c69; stroke:none;" d="M520.667 117.333L521.333 117.667L520.667 117.333z"/>
<path style="fill:#e97871; stroke:none;" d="M522 117L523 118L522 117M587 117L588 118L587 117z"/>
<path style="fill:#535c69; stroke:none;" d="M523 118L524 119L523 118z"/>
<path style="fill:#e97871; stroke:none;" d="M524 118L525 119L524 118M584.667 118.333L585.333 118.667L584.667 118.333M713.333 118.667L713.667 119.333L713.333 118.667z"/>
<path style="fill:#535c69; stroke:none;" d="M525.667 119.333L526.333 119.667L525.667 119.333z"/>
<path style="fill:#e97871; stroke:none;" d="M581 119L581 120L584 120L581 119z"/>
<path style="fill:#535c69; stroke:none;" d="M528 120L529 121L528 120z"/>
<path style="fill:#e97871; stroke:none;" d="M579.667 120.333L580.333 120.667L579.667 120.333M714.333 120.667L714.667 121.333L714.333 120.667z"/>
<path style="fill:#535c69; stroke:none;" d="M530 121L531 122L530 121z"/>
<path style="fill:#e97871; stroke:none;" d="M577 121L578 122L577 121z"/>
<path style="fill:#535c69; stroke:none;" d="M532 122L533 123L532 122z"/>
<path style="fill:#e97871; stroke:none;" d="M574.667 122.333L575.333 122.667L574.667 122.333M715.333 122.667L715.667 123.333L715.333 122.667z"/>
<path style="fill:#535c69; stroke:none;" d="M534 123L535 124L534 123z"/>
<path style="fill:#e97871; stroke:none;" d="M571 123L571 124L574 124L571 123z"/>
<path style="fill:#535c69; stroke:none;" d="M536 124L537 125L536 124z"/>
<path style="fill:#e97871; stroke:none;" d="M569.667 124.333L570.333 124.667L569.667 124.333M716.333 124.667L716.667 125.333L716.333 124.667z"/>
<path style="fill:#535c69; stroke:none;" d="M538 125L539 126L538 125z"/>
<path style="fill:#e97871; stroke:none;" d="M567.667 125.333L568.333 125.667L567.667 125.333z"/>
<path style="fill:#535c69; stroke:none;" d="M539 126L540 127L539 126z"/>
<path style="fill:#e97871; stroke:none;" d="M540 126L541 127L540 126M564.667 126.333L565.333 126.667L564.667 126.333z"/>
<path style="fill:#535c69; stroke:none;" d="M541 127L542 128L541 127z"/>
<path style="fill:#e97871; stroke:none;" d="M542 127L543 128L542 127M562.667 127.333L563.333 127.667L562.667 127.333M717 127L718 128L717 127z"/>
<path style="fill:#535c69; stroke:none;" d="M543 128L544 129L543 128z"/>
<path style="fill:#e97871; stroke:none;" d="M559.667 128.333L560.333 128.667L559.667 128.333z"/>
<path style="fill:#535c69; stroke:none;" d="M544 129L545 130L544 129z"/>
<path style="fill:#e97871; stroke:none;" d="M545 129L546 130L545 129M557.667 129.333L558.333 129.667L557.667 129.333M718 129L719 130L718 129z"/>
<path style="fill:#535c69; stroke:none;" d="M546 130L547 131L546 130z"/>
<path style="fill:#e97871; stroke:none;" d="M555.667 130.333L556.333 130.667L555.667 130.333z"/>
<path style="fill:#535c69; stroke:none;" d="M547 131L548 132L547 131z"/>
<path style="fill:#e97871; stroke:none;" d="M548 131L549 132L548 131M552.667 131.333L553.333 131.667L552.667 131.333M719 131L720 132L719 131z"/>
<path style="fill:#535c69; stroke:none;" d="M549 132L550 133L549 132z"/>
<path style="fill:#e97871; stroke:none;" d="M550.667 132.333L551.333 132.667L550.667 132.333M720 133L720 136L721 136L720 133M717 136L717 137L720 137L717 136M715.667 137.333L716.333 137.667L715.667 137.333M712.667 138.333L713.333 138.667L712.667 138.333M708 139L708 140L711 140L708 139M705 140L705 141L708 141L705 140M703.667 141.333L704.333 141.667L703.667 141.333M700.667 142.333L701.333 142.667L700.667 142.333M697.667 143.333L698.333 143.667L697.667 143.333M694.667 144.333L695.333 144.667L694.667 144.333M691.667 145.333L692.333 145.667L691.667 145.333M688.667 146.333L689.333 146.667L688.667 146.333M685.667 147.333L686.333 147.667L685.667 147.333M682.667 148.333L683.333 148.667L682.667 148.333M679.667 149.333L680.333 149.667L679.667 149.333M676.667 150.333L677.333 150.667L676.667 150.333M673.667 151.333L674.333 151.667L673.667 151.333M670 152L670 153L673 153L670 152M667 153L667 154L670 154L667 153M665.667 154.333L666.333 154.667L665.667 154.333M662.667 155.333L663.333 155.667L662.667 155.333M658 156L658 157L661 157L658 156z"/>
<path style="fill:#535c69; stroke:none;" d="M494 157L495 158L494 157z"/>
<path style="fill:#e97871; stroke:none;" d="M656.667 157.333L657.333 157.667L656.667 157.333M653.667 158.333L654.333 158.667L653.667 158.333M650.667 159.333L651.333 159.667L650.667 159.333M647.667 160.333L648.333 160.667L647.667 160.333M644 161L644 162L647 162L644 161M641 162L641 163L644 163L641 162M639.667 163.333L640.333 163.667L639.667 163.333M636.667 164.333L637.333 164.667L636.667 164.333M633.667 165.333L634.333 165.667L633.667 165.333M630.667 166.333L631.333 166.667L630.667 166.333M627.667 167.333L628.333 167.667L627.667 167.333M625.667 168.333L626.333 168.667L625.667 168.333M621 169L621 170L624 170L621 169M619.667 170.333L620.333 170.667L619.667 170.333M616.667 171.333L617.333 171.667L616.667 171.333M613.667 172.333L614.333 172.667L613.667 172.333M610 173L610 174L613 174L610 173M607 174L607 175L610 175L607 174M605.667 175.333L606.333 175.667L605.667 175.333M602.667 176.333L603.333 176.667L602.667 176.333M599 177L599 178L602 178L599 177M596 180L599 179L596 180z"/>
<path style="fill:#535c69; stroke:none;" d="M595 179L598 182L595 179z"/>
<path style="fill:#182335; stroke:none;" d="M320 327C331.82 323.234 343.11 313.902 354 307.861C373.867 296.842 394.349 286.764 415 277.309C477.913 248.502 543.262 228.02 609 207C607.401 200.268 602.414 184.395 595.787 181.121C591.044 178.778 581.512 184.476 577 186.192C560.62 192.421 544.255 198.646 528 205.201C474.916 226.605 422.701 251.869 375 283.667C356.684 295.877 333.504 309.343 320 327z"/>
<path style="fill:#535c69; stroke:none;" d="M598 183L599 184L598 183z"/>
<path style="fill:#e97871; stroke:none;" d="M599 184L600 185L599 184z"/>
<path style="fill:#535c69; stroke:none;" d="M599 185L600 186L599 185M600.333 186.667L600.667 187.333L600.333 186.667M601 188L602 189L601 188M602 190L603 191L602 190M603 192L604 193L603 192z"/>
<path style="fill:#e97871; stroke:none;" d="M604 193L605 194L604 193M657 193L657 194L660 195L657 193z"/>
<path style="fill:#535c69; stroke:none;" d="M604.333 194.667L604.667 195.333L604.333 194.667z"/>
<path style="fill:#e97871; stroke:none;" d="M653 194L653 195L656 195L653 194M649 195L649 196L652 196L649 195M660.333 195.667L660.667 196.333L660.333 195.667z"/>
<path style="fill:#535c69; stroke:none;" d="M605.333 196.667L605.667 197.333L605.333 196.667z"/>
<path style="fill:#e97871; stroke:none;" d="M645 196L645 197L648 197L645 196M642.667 197.333L643.333 197.667L642.667 197.333M661.333 197.667L661.667 198.333L661.333 197.667z"/>
<path style="fill:#535c69; stroke:none;" d="M606.333 198.667L606.667 199.333L606.333 198.667z"/>
<path style="fill:#e97871; stroke:none;" d="M638 198L638 199L641 199L638 198M634 199L634 200L637 200L634 199M662.333 199.667L662.667 200.333L662.333 199.667M607 200L608 201L607 200M631 200L631 201L634 201L631 200z"/>
<path style="fill:#535c69; stroke:none;" d="M607 201L608 202L607 201z"/>
<path style="fill:#e97871; stroke:none;" d="M627.667 201.333L628.333 201.667L627.667 201.333M663.333 201.667L663.667 202.333L663.333 201.667M608 202L609 203L608 202M624.667 202.333L625.333 202.667L624.667 202.333z"/>
<path style="fill:#535c69; stroke:none;" d="M608.333 203.667L608.667 204.333L608.333 203.667z"/>
<path style="fill:#e97871; stroke:none;" d="M620 203L620 204L623 204L620 203M664.333 203.667L664.667 204.333L664.333 203.667M616 204L616 205L619 205L616 204M609 205L612 207L612 206L609 205M613.667 205.333L614.333 205.667L613.667 205.333z"/>
<path style="fill:#535c69; stroke:none;" d="M609 206L610 207L609 206z"/>
<path style="fill:#e97871; stroke:none;" d="M665 206L666 207L665 206M666 208L667 209L666 208M667 210L668 211L667 210M668.333 212.667L668.667 213.333L668.333 212.667M669.333 214.667L669.667 215.333L669.333 214.667M670.333 216.667L670.667 217.333L670.333 216.667M671.333 218.667L671.667 219.333L671.333 218.667M672.333 220.667L672.667 221.333L672.333 220.667M673.333 222.667L673.667 223.333L673.333 222.667z"/>
<path style="fill:#535c69; stroke:none;" d="M481 225L482 226L481 225z"/>
<path style="fill:#e97871; stroke:none;" d="M674 225L675 226L674 225M675 227L676 228L675 227M676 229L677 230L676 229M677.333 231.667L677.667 232.333L677.333 231.667M678.333 233.667L678.667 234.333L678.333 233.667M679.333 235.667L679.667 236.333L679.333 235.667M680.333 237.667L680.667 238.333L680.333 237.667M681.333 239.667L681.667 240.333L681.333 239.667M682.333 241.667L682.667 242.333L682.333 241.667M683 244L684 245L683 244M684 246L685 247L684 246M685.333 248.667L685.667 249.333L685.333 248.667M682 250L682 251L685 251L682 250M677 251L677 252L680 252L677 251M673 252L673 253L676 253L673 252M669.667 253.333L670.333 253.667L669.667 253.333M664 254L664 255L667 255L664 254M660 255L660 256L663 256L660 255M656 256L656 257L659 257L656 256M652.667 257.333L653.333 257.667L652.667 257.333M648.667 258.333L649.333 258.667L648.667 258.333M643 259L643 260L646 260L643 259M639 260L639 261L642 261L639 260M635 261L635 262L638 262L635 261M632.667 262.333L633.333 262.667L632.667 262.333M627 263L627 264L630 264L627 263M623 264L623 265L626 265L623 264M620.667 265.333L621.333 265.667L620.667 265.333z"/>
<path style="fill:#182335; stroke:none;" d="M337 369L337 370C359.668 366.099 382.793 354.31 405 347.721C450.329 334.27 496.653 324.012 543 314.8C566.365 310.156 591.171 303.023 615 302L619 266C521.242 286.178 425.004 322.647 337 369z"/>
<path style="fill:#535c69; stroke:none;" d="M619 266L619 272L620 272L619 266z"/>
<path style="fill:#e97871; stroke:none;" d="M619 272L619 275L620 275L619 272z"/>
<path style="fill:#535c69; stroke:none;" d="M618 278L618 284L619 284L618 278z"/>
<path style="fill:#e97871; stroke:none;" d="M618.333 284.667L618.667 285.333L618.333 284.667z"/>
<path style="fill:#535c69; stroke:none;" d="M617 286L617 291L618 291L617 286z"/>
<path style="fill:#e97871; stroke:none;" d="M617.333 291.667L617.667 292.333L617.333 291.667z"/>
<path style="fill:#535c69; stroke:none;" d="M616 293L616 297L617 297L616 293z"/>
<path style="fill:#e97871; stroke:none;" d="M616 297L617 298L616 297z"/>
<path style="fill:#535c69; stroke:none;" d="M615.333 299.667L615.667 300.333L615.333 299.667z"/>
<path style="fill:#e97871; stroke:none;" d="M624 299L624 300L628 300L624 299M619 300L619 301L622 301L619 300M628 300L629 301L628 300M629.333 302.667L629.667 303.333L629.333 302.667M630.333 304.667L630.667 305.333L630.333 304.667M631 307L632 308L631 307M632 309L633 310L632 309M633 311L634 312L633 311M634.333 313.667L634.667 314.333L634.333 313.667M635.333 315.667L635.667 316.333L635.333 315.667M636 318L637 319L636 318M637 320L638 321L637 320M638.333 322.667L638.667 323.333L638.333 322.667M639.333 324.667L639.667 325.333L639.333 324.667M640.333 326.667L640.667 327.333L640.333 326.667z"/>
<path style="fill:#182335; stroke:none;" d="M319 327L320 328L319 327z"/>
<path style="fill:#e97871; stroke:none;" d="M641 329L642 330L641 329M642 331L643 332L642 331M643.333 333.667L643.667 334.333L643.333 333.667M644.333 335.667L644.667 336.333L644.333 335.667M645 338L646 339L645 338M646 340L647 341L646 340M647 342L648 343L647 342M648.333 344.667L648.667 345.333L648.333 344.667M649.333 346.667L649.667 347.333L649.333 346.667M650.333 348.667L650.667 349.333L650.333 348.667M651.333 350.667L651.667 351.333L651.333 350.667M652 353L653 354L652 353M652 355L653 356L652 355M645 356L645 357L650 357L645 356M636 357L636 358L642 358L636 357M627 358L627 359L634 359L627 358M619 359L619 360L624 360L619 359M611 360L611 361L616 361L611 360M226 361L227 362L226 361M604 361L604 362L608 362L604 361M225.333 362.667L225.667 363.333L225.333 362.667M595 362L595 363L601 363L595 362M587 363L587 364L592 364L587 363M224.333 364.667L224.667 365.333L224.333 364.667z"/>
<path style="fill:#535c69; stroke:none;" d="M582 364L583 365L582 364z"/>
<path style="fill:#e97871; stroke:none;" d="M583 364L584 365L583 364z"/>
<path style="fill:#182335; stroke:none;" d="M633 568C607.728 509.353 564.265 458.632 539 400C553.551 393.959 573.112 378.645 581 365C553.386 365.229 524.221 372.411 497 376.92C437.637 386.752 377.405 398.471 322 422.576C294.207 434.667 247.376 469.313 274.239 503.985C295.196 531.034 341.442 538.689 373 545C429.727 556.344 487.467 560.971 545 564.911C574.1 566.903 604.097 564.347 633 568z"/>
<path style="fill:#535c69; stroke:none;" d="M581 365L579 368L581 365z"/>
<path style="fill:#e97871; stroke:none;" d="M223 366L224 367L223 366M581 366L582 367L581 366M580 367L581 368L580 367M222 368L223 369L222 368M579 368L580 369L579 368M221.333 369.667L221.667 370.333L221.333 369.667M578 369L579 370L578 369z"/>
<path style="fill:#182335; stroke:none;" d="M336 370L337 371L336 370z"/>
<path style="fill:#535c69; stroke:none;" d="M577 370L578 371L577 370z"/>
<path style="fill:#e97871; stroke:none;" d="M220.333 371.667L220.667 372.333L220.333 371.667z"/>
<path style="fill:#535c69; stroke:none;" d="M576 371L577 372L576 371M575 372L576 373L575 372z"/>
<path style="fill:#e97871; stroke:none;" d="M219.333 373.667L219.667 374.333L219.333 373.667z"/>
<path style="fill:#535c69; stroke:none;" d="M574 373L575 374L574 373M573 374L574 375L573 374z"/>
<path style="fill:#e97871; stroke:none;" d="M218 375L219 376L218 375z"/>
<path style="fill:#535c69; stroke:none;" d="M572 375L573 376L572 375z"/>
<path style="fill:#e97871; stroke:none;" d="M571 376L572 377L571 376M217 377L218 378L217 377M570 377L571 378L570 377M569 378L570 379L569 378M216.333 379.667L216.667 380.333L216.333 379.667z"/>
<path style="fill:#535c69; stroke:none;" d="M567 379L566 381L567 379z"/>
<path style="fill:#e97871; stroke:none;" d="M568 379L569 380L568 379M567 380L568 381L567 380M215.333 381.667L215.667 382.333L215.333 381.667z"/>
<path style="fill:#535c69; stroke:none;" d="M565 381L566 382L565 381M564 382L565 383L564 382z"/>
<path style="fill:#e97871; stroke:none;" d="M214.333 383.667L214.667 384.333L214.333 383.667z"/>
<path style="fill:#535c69; stroke:none;" d="M563 383L564 384L563 383M561 384L562 385L561 384z"/>
<path style="fill:#e97871; stroke:none;" d="M562 384L563 385L562 384M213.333 385.667L213.667 386.333L213.333 385.667z"/>
<path style="fill:#535c69; stroke:none;" d="M560 385L561 386L560 385M559 386L560 387L559 386z"/>
<path style="fill:#e97871; stroke:none;" d="M212.333 387.667L212.667 388.333L212.333 387.667z"/>
<path style="fill:#535c69; stroke:none;" d="M557 387L556 389L557 387z"/>
<path style="fill:#e97871; stroke:none;" d="M558 387L559 388L558 387M557 388L558 389L557 388z"/>
<path style="fill:#535c69; stroke:none;" d="M555 389L556 390L555 389z"/>
<path style="fill:#e97871; stroke:none;" d="M211.333 390.667L211.667 391.333L211.333 390.667z"/>
<path style="fill:#535c69; stroke:none;" d="M553 390L554 391L553 390z"/>
<path style="fill:#e97871; stroke:none;" d="M554 390L555 391L554 390z"/>
<path style="fill:#535c69; stroke:none;" d="M552 391L553 392L552 391z"/>
<path style="fill:#e97871; stroke:none;" d="M210.333 392.667L210.667 393.333L210.333 392.667z"/>
<path style="fill:#535c69; stroke:none;" d="M551 392L552 393L551 392M549 393L550 394L549 393z"/>
<path style="fill:#e97871; stroke:none;" d="M550 393L551 394L550 393z"/>
<path style="fill:#535c69; stroke:none;" d="M548 394L549 395L548 394z"/>
<path style="fill:#e97871; stroke:none;" d="M209 395L210 396L209 395M547 395L548 396L547 395z"/>
<path style="fill:#535c69; stroke:none;" d="M545 396L546 397L545 396z"/>
<path style="fill:#e97871; stroke:none;" d="M208.333 397.667L208.667 398.333L208.333 397.667z"/>
<path style="fill:#535c69; stroke:none;" d="M542 399L545 398L542 399z"/>
<path style="fill:#e97871; stroke:none;" d="M543 398L544 399L543 398M207 399L207 402L208 402L207 399z"/>
<path style="fill:#535c69; stroke:none;" d="M541 399L542 400L541 399M539.333 400.667L539.667 401.333L539.333 400.667z"/>
<path style="fill:#e97871; stroke:none;" d="M540 400L541 401L540 400M206 402L206 405L207 405L206 402M540 402L541 403L540 402z"/>
<path style="fill:#535c69; stroke:none;" d="M540 403L541 404L540 403z"/>
<path style="fill:#e97871; stroke:none;" d="M541 404L542 405L541 404M205.333 405.667L205.667 406.333L205.333 405.667z"/>
<path style="fill:#535c69; stroke:none;" d="M541 405L542 406L541 405M542 406L543 407L542 406z"/>
<path style="fill:#e97871; stroke:none;" d="M543 407L544 408L543 407M204 408L204 411L205 411L204 408z"/>
<path style="fill:#535c69; stroke:none;" d="M543 408L544 409L543 408z"/>
<path style="fill:#e97871; stroke:none;" d="M544 409L545 410L544 409z"/>
<path style="fill:#535c69; stroke:none;" d="M544 410L545 411L544 410z"/>
<path style="fill:#e97871; stroke:none;" d="M203 411L203 414L204 414L203 411M545 411L546 412L545 411z"/>
<path style="fill:#535c69; stroke:none;" d="M545 412L546 413L545 412M546 413L547 414L546 413z"/>
<path style="fill:#e97871; stroke:none;" d="M202 415L202 418L203 418L202 415z"/>
<path style="fill:#535c69; stroke:none;" d="M547 415L548 416L547 415z"/>
<path style="fill:#e97871; stroke:none;" d="M548 416L549 417L548 416z"/>
<path style="fill:#535c69; stroke:none;" d="M548 417L549 418L548 417z"/>
<path style="fill:#e97871; stroke:none;" d="M549 418L550 419L549 418M201.333 419.667L201.667 420.333L201.333 419.667z"/>
<path style="fill:#535c69; stroke:none;" d="M549 419L550 420L549 419M550 420L551 421L550 420M551 422L552 423L551 422z"/>
<path style="fill:#e97871; stroke:none;" d="M200.333 423.667L200.667 424.333L200.333 423.667M552 423L553 424L552 423z"/>
<path style="fill:#535c69; stroke:none;" d="M552 424L553 425L552 424z"/>
<path style="fill:#e97871; stroke:none;" d="M553 425L554 426L553 425z"/>
<path style="fill:#535c69; stroke:none;" d="M553 426L554 427L553 426z"/>
<path style="fill:#e97871; stroke:none;" d="M199 427L199 431L200 431L199 427M554 427L555 428L554 427z"/>
<path style="fill:#535c69; stroke:none;" d="M554 428L555 429L554 428M555 429L556 430L555 429M556 431L557 432L556 431z"/>
<path style="fill:#e97871; stroke:none;" d="M198 432L198 437L199 437L198 432M557 432L558 433L557 432z"/>
<path style="fill:#535c69; stroke:none;" d="M557 433L558 434L557 433z"/>
<path style="fill:#e97871; stroke:none;" d="M558 434L559 435L558 434z"/>
<path style="fill:#535c69; stroke:none;" d="M558 435L559 436L558 435M559 436L560 437L559 436M560 438L561 439L560 438z"/>
<path style="fill:#e97871; stroke:none;" d="M197 439L197 444L198 444L197 439M561 439L562 440L561 439z"/>
<path style="fill:#535c69; stroke:none;" d="M561 440L562 441L561 440z"/>
<path style="fill:#e97871; stroke:none;" d="M562 441L563 442L562 441z"/>
<path style="fill:#535c69; stroke:none;" d="M562 442L563 443L562 442z"/>
<path style="fill:#e97871; stroke:none;" d="M563 443L564 444L563 443z"/>
<path style="fill:#535c69; stroke:none;" d="M564 445L565 446L564 445z"/>
<path style="fill:#e97871; stroke:none;" d="M565 446L566 447L565 446z"/>
<path style="fill:#535c69; stroke:none;" d="M565 447L566 448L565 447z"/>
<path style="fill:#e97871; stroke:none;" d="M196 448L196 456L197 456L196 448M566 448L567 449L566 448z"/>
<path style="fill:#535c69; stroke:none;" d="M566 449L567 450L566 449z"/>
<path style="fill:#e97871; stroke:none;" d="M567 450L568 451L567 450z"/>
<path style="fill:#535c69; stroke:none;" d="M567 451L568 452L567 451M568 452L569 453L568 452M569 454L570 455L569 454z"/>
<path style="fill:#e97871; stroke:none;" d="M570 455L571 456L570 455z"/>
<path style="fill:#535c69; stroke:none;" d="M570 456L571 457L570 456z"/>
<path style="fill:#e97871; stroke:none;" d="M571 457L572 458L571 457z"/>
<path style="fill:#535c69; stroke:none;" d="M571 458L572 459L571 458M572 459L573 460L572 459M573 461L574 462L573 461z"/>
<path style="fill:#e97871; stroke:none;" d="M574 462L575 463L574 462z"/>
<path style="fill:#535c69; stroke:none;" d="M574 463L575 464L574 463z"/>
<path style="fill:#e97871; stroke:none;" d="M575 464L576 465L575 464z"/>
<path style="fill:#535c69; stroke:none;" d="M575 465L576 466L575 465z"/>
<path style="fill:#e97871; stroke:none;" d="M576 466L577 467L576 466M196 467L196 473L197 473L196 467z"/>
<path style="fill:#535c69; stroke:none;" d="M577 468L578 469L577 468z"/>
<path style="fill:#e97871; stroke:none;" d="M578 469L579 470L578 469z"/>
<path style="fill:#535c69; stroke:none;" d="M578 470L579 471L578 470z"/>
<path style="fill:#e97871; stroke:none;" d="M579 471L580 472L579 471z"/>
<path style="fill:#535c69; stroke:none;" d="M579 472L580 473L579 472z"/>
<path style="fill:#e97871; stroke:none;" d="M580 473L581 474L580 473z"/>
<path style="fill:#535c69; stroke:none;" d="M580 474L581 475L580 474M581 475L582 476L581 475z"/>
<path style="fill:#e97871; stroke:none;" d="M197 476L197 479L198 479L197 476z"/>
<path style="fill:#535c69; stroke:none;" d="M582 477L583 478L582 477z"/>
<path style="fill:#e97871; stroke:none;" d="M583 478L584 479L583 478z"/>
<path style="fill:#535c69; stroke:none;" d="M583 479L584 480L583 479z"/>
<path style="fill:#e97871; stroke:none;" d="M198 480L198 484L199 484L198 480M584 480L585 481L584 480z"/>
<path style="fill:#535c69; stroke:none;" d="M584 481L585 482L584 481M585 482L586 483L585 482z"/>
<path style="fill:#e97871; stroke:none;" d="M199 484L199 487L200 487L199 484z"/>
<path style="fill:#535c69; stroke:none;" d="M586 484L587 485L586 484z"/>
<path style="fill:#e97871; stroke:none;" d="M587 485L588 486L587 485z"/>
<path style="fill:#535c69; stroke:none;" d="M587 486L588 487L587 486z"/>
<path style="fill:#e97871; stroke:none;" d="M588 487L589 488L588 487M200.333 488.667L200.667 489.333L200.333 488.667z"/>
<path style="fill:#535c69; stroke:none;" d="M588 488L589 489L588 488z"/>
<path style="fill:#e97871; stroke:none;" d="M589 489L590 490L589 489M201 491L202 492L201 491z"/>
<path style="fill:#535c69; stroke:none;" d="M590.333 491.667L590.667 492.333L590.333 491.667z"/>
<path style="fill:#e97871; stroke:none;" d="M202.333 493.667L202.667 494.333L202.333 493.667z"/>
<path style="fill:#535c69; stroke:none;" d="M591 493L592 494L591 493z"/>
<path style="fill:#e97871; stroke:none;" d="M592 494L593 495L592 494M203.333 495.667L203.667 496.333L203.333 495.667z"/>
<path style="fill:#535c69; stroke:none;" d="M592 495L593 496L592 495z"/>
<path style="fill:#e97871; stroke:none;" d="M593 496L594 497L593 496M204.333 497.667L204.667 498.333L204.333 497.667z"/>
<path style="fill:#535c69; stroke:none;" d="M593 497L594 498L593 497M594 498L595 499L594 498z"/>
<path style="fill:#e97871; stroke:none;" d="M205 499L206 500L205 499z"/>
<path style="fill:#535c69; stroke:none;" d="M595 500L596 501L595 500z"/>
<path style="fill:#e97871; stroke:none;" d="M206 501L207 502L206 501M596 501L597 502L596 501M207.333 502.667L207.667 503.333L207.333 502.667z"/>
<path style="fill:#535c69; stroke:none;" d="M596 502L597 503L596 502z"/>
<path style="fill:#e97871; stroke:none;" d="M597 503L598 504L597 503M208 504L209 505L208 504z"/>
<path style="fill:#535c69; stroke:none;" d="M597 504L598 505L597 504z"/>
<path style="fill:#e97871; stroke:none;" d="M209 505L210 506L209 505z"/>
<path style="fill:#535c69; stroke:none;" d="M598 505L599 506L598 505z"/>
<path style="fill:#e97871; stroke:none;" d="M210 507L211 508L210 507z"/>
<path style="fill:#535c69; stroke:none;" d="M599 507L601 510L599 507z"/>
<path style="fill:#e97871; stroke:none;" d="M211 508L212 509L211 508M600 508L601 509L600 508M212 509L213 510L212 509M213 510L214 511L213 510M601 510L602 511L601 510z"/>
<path style="fill:#535c69; stroke:none;" d="M601 511L602 512L601 511z"/>
<path style="fill:#e97871; stroke:none;" d="M214 512L215 513L214 512M602 512L603 513L602 512M215 513L216 514L215 513z"/>
<path style="fill:#535c69; stroke:none;" d="M602 513L603 514L602 513z"/>
<path style="fill:#e97871; stroke:none;" d="M216 514L217 515L216 514z"/>
<path style="fill:#535c69; stroke:none;" d="M603 514L604 515L603 514z"/>
<path style="fill:#e97871; stroke:none;" d="M217 515L218 516L217 515M218 516L219 517L218 516z"/>
<path style="fill:#535c69; stroke:none;" d="M604 516L605 517L604 516z"/>
<path style="fill:#e97871; stroke:none;" d="M219.667 517.333L220.333 517.667L219.667 517.333M605 517L606 518L605 517M221 518L222 519L221 518z"/>
<path style="fill:#535c69; stroke:none;" d="M605 518L606 519L605 518z"/>
<path style="fill:#e97871; stroke:none;" d="M222 519L223 520L222 519M606 519L607 520L606 519M223 520L224 521L223 520z"/>
<path style="fill:#535c69; stroke:none;" d="M606 520L607 521L606 520z"/>
<path style="fill:#e97871; stroke:none;" d="M224 521L225 522L224 521z"/>
<path style="fill:#535c69; stroke:none;" d="M607.333 521.667L607.667 522.333L607.333 521.667z"/>
<path style="fill:#e97871; stroke:none;" d="M225.667 522.333L226.333 522.667L225.667 522.333z"/>
<path style="fill:#535c69; stroke:none;" d="M608 523L609 524L608 523M227 524L228 525L227 524z"/>
<path style="fill:#e97871; stroke:none;" d="M609 524L610 525L609 524M228 525L228 526L231 526L228 525z"/>
<path style="fill:#535c69; stroke:none;" d="M609 525L610 526L609 525z"/>
<path style="fill:#e97871; stroke:none;" d="M231 526L232 527L231 526M610 526L611 527L610 526M233 527L234 528L233 527z"/>
<path style="fill:#535c69; stroke:none;" d="M610 527L611 528L610 527z"/>
<path style="fill:#e97871; stroke:none;" d="M234 528L235 529L234 528M611 528L612 529L611 528M236 529L237 530L236 529z"/>
<path style="fill:#535c69; stroke:none;" d="M611 529L612 530L611 529z"/>
<path style="fill:#e97871; stroke:none;" d="M238 530L239 531L238 530z"/>
<path style="fill:#535c69; stroke:none;" d="M612.333 530.667L612.667 531.333L612.333 530.667z"/>
<path style="fill:#e97871; stroke:none;" d="M240 531L241 532L240 531M241.667 532.333L242.333 532.667L241.667 532.333z"/>
<path style="fill:#535c69; stroke:none;" d="M613 532L614 533L613 532z"/>
<path style="fill:#e97871; stroke:none;" d="M243.667 533.333L244.333 533.667L243.667 533.333M614 533L615 534L614 533M245.667 534.333L246.333 534.667L245.667 534.333z"/>
<path style="fill:#535c69; stroke:none;" d="M614 534L615 535L614 534z"/>
<path style="fill:#e97871; stroke:none;" d="M247 535L248 536L247 535M615 535L616 536L615 535M249 536L250 537L249 536z"/>
<path style="fill:#535c69; stroke:none;" d="M615 536L616 537L615 536z"/>
<path style="fill:#e97871; stroke:none;" d="M251 537L252 538L251 537z"/>
<path style="fill:#535c69; stroke:none;" d="M616.333 537.667L616.667 538.333L616.333 537.667z"/>
<path style="fill:#e97871; stroke:none;" d="M253.667 538.333L254.333 538.667L253.667 538.333M255.667 539.333L256.333 539.667L255.667 539.333z"/>
<path style="fill:#535c69; stroke:none;" d="M617 539L618 540L617 539z"/>
<path style="fill:#e97871; stroke:none;" d="M257.667 540.333L258.333 540.667L257.667 540.333M618 540L619 541L618 540M260 541L261 542L260 541z"/>
<path style="fill:#535c69; stroke:none;" d="M618 541L619 542L618 541z"/>
<path style="fill:#e97871; stroke:none;" d="M262.667 542.333L263.333 542.667L262.667 542.333M619 542L620 543L619 542M264.667 543.333L265.333 543.667L264.667 543.333z"/>
<path style="fill:#535c69; stroke:none;" d="M619 543L620 544L619 543z"/>
<path style="fill:#e97871; stroke:none;" d="M267.667 544.333L268.333 544.667L267.667 544.333z"/>
<path style="fill:#535c69; stroke:none;" d="M620.333 544.667L620.667 545.333L620.333 544.667z"/>
<path style="fill:#e97871; stroke:none;" d="M270 545L271 546L270 545M273.667 546.333L274.333 546.667L273.667 546.333z"/>
<path style="fill:#535c69; stroke:none;" d="M621 546L623 549L621 546z"/>
<path style="fill:#e97871; stroke:none;" d="M275 547L275 548L278 548L275 547M622 547L623 548L622 547M279.667 548.333L280.333 548.667L279.667 548.333M282.667 549.333L283.333 549.667L282.667 549.333M623 549L624 550L623 549M285.667 550.333L286.333 550.667L285.667 550.333z"/>
<path style="fill:#535c69; stroke:none;" d="M623 550L624 551L623 550z"/>
<path style="fill:#e97871; stroke:none;" d="M288 551L288 552L291 552L288 551M624 551L625 552L624 551M292 552L292 553L295 553L292 552z"/>
<path style="fill:#535c69; stroke:none;" d="M624 552L625 553L624 552z"/>
<path style="fill:#e97871; stroke:none;" d="M296 553L296 554L299 554L296 553z"/>
<path style="fill:#535c69; stroke:none;" d="M625.333 553.667L625.667 554.333L625.333 553.667z"/>
<path style="fill:#e97871; stroke:none;" d="M300 554L300 555L303 555L300 554M304 555L304 556L308 556L304 555z"/>
<path style="fill:#535c69; stroke:none;" d="M626 555L627 556L626 555z"/>
<path style="fill:#e97871; stroke:none;" d="M309 556L309 557L312 557L309 556M627 556L628 557L627 556M314 557L314 558L317 558L314 557z"/>
<path style="fill:#535c69; stroke:none;" d="M627 557L628 558L627 557z"/>
<path style="fill:#e97871; stroke:none;" d="M319 558L319 559L322 559L319 558M628 558L629 559L628 558M324 559L324 560L328 560L324 559z"/>
<path style="fill:#535c69; stroke:none;" d="M628 559L629 560L628 559z"/>
<path style="fill:#e97871; stroke:none;" d="M329 560L329 561L334 561L329 560z"/>
<path style="fill:#535c69; stroke:none;" d="M629.333 560.667L629.667 561.333L629.333 560.667z"/>
<path style="fill:#e97871; stroke:none;" d="M336 561L336 562L340 562L336 561M343 562L343 563L346 563L343 562z"/>
<path style="fill:#535c69; stroke:none;" d="M630 562L631 563L630 562z"/>
<path style="fill:#e97871; stroke:none;" d="M349 563L349 564L354 564L349 563M357 564L357 565L363 565L357 564z"/>
<path style="fill:#535c69; stroke:none;" d="M631 564L632 565L631 564z"/>
<path style="fill:#e97871; stroke:none;" d="M365 565L365 566L372 566L365 565M632 565L633 566L632 565M376 566L376 567L381 567L376 566z"/>
<path style="fill:#535c69; stroke:none;" d="M632 566L633 567L632 566z"/>
<path style="fill:#e97871; stroke:none;" d="M386 567L386 568L392 568L386 567z"/>
<path style="fill:#535c69; stroke:none;" d="M617 567L617 568L630 568L617 567z"/>
<path style="fill:#e97871; stroke:none;" d="M633 567L634 568L633 567M397 568L397 569L408 569L397 568M604 568L604 569L623 569L604 568M412 569L412 570L425 570L412 569M580 569L580 570L597 570L580 569M432 570L432 571L447 571L432 570M552 570L552 571L571 571L552 570M463 571L463 572L536 572L513 571L463 571M230 813L230 818L231 818L231 814L249 814L249 818L250 818L250 813L230 813M254 839L255 839L255 814L259 814C251.185 811.439 254 834.12 254 839M271 813L271 823L272 823L272 814L275 814L275 839C277.474 833.105 278.656 814.278 271 813M283 813L283 839L284 839L284 814L301 814L301 818C303.446 810.536 287.347 813 283 813M316 813L316 839L317 839L317 814L329 814L316 813M347 818L348 818L354 815C350.447 812.439 348.38 814.248 347 818M368 813L368 839L369 839L369 814L372 814L372 835L373 835L373 813L368 813M389 839L390 839L390 814L394 814C386.184 811.439 389 834.12 389 839M405 815L411 817C410.75 813.451 407.308 812.401 405 815M422 816L429 814L422 816M439.667 813.333L440.333 813.667L439.667 813.333z"/>
<path style="fill:#d42f23; stroke:none;" d="M453 836L452 832C448.251 833.892 444.274 836.111 440.015 834.337C431.289 830.703 433.768 818.212 443 817.532C446.075 817.306 449.154 819.054 452 820L453 819L453 817C449.936 815.113 446.729 813.306 443 813.36C426.122 813.602 426.851 840.271 444 839.242C447.293 839.045 450.121 837.455 453 836z"/>
<path style="fill:#e97871; stroke:none;" d="M445.667 813.333L446.333 813.667L445.667 813.333M459 813L459 839L460 839L460 814L472 814L459 813M481 813L482 817L483 817L482 814L486 814L481 813M499 813L499 814L503 814L502 817L503 817L504 813L499 813M516 813L516 839L517 839L517 814L528 814L516 813M541 813L541 814L554 814L541 813M575 813L576 814L575 813z"/>
<path style="fill:#d42f23; stroke:none;" d="M576 813.548C559.385 817.153 565.108 842.847 582 838.902C597.862 835.198 591.706 810.14 576 813.548z"/>
<path style="fill:#e97871; stroke:none;" d="M581 813L582 814L581 813M606.667 813.333L607.333 813.667L606.667 813.333z"/>
<path style="fill:#d42f23; stroke:none;" d="M620 836L619 832C615.251 833.892 611.274 836.111 607.015 834.337C598.289 830.703 600.768 818.212 610 817.532C613.075 817.306 616.154 819.054 619 820L620 819L620 817C616.936 815.113 613.729 813.306 610 813.36C593.122 813.602 593.851 840.271 611 839.242C614.293 839.045 617.121 837.455 620 836z"/>
<path style="fill:#e97871; stroke:none;" d="M612.667 813.333L613.333 813.667L612.667 813.333M626 813L626 839L627 839L627 814L644 814L644 818C646.446 810.536 630.347 813 626 813M654.667 813.333L655.333 813.667L654.667 813.333z"/>
<path style="fill:#d42f23; stroke:none;" d="M649 835L649 837C654.717 839.795 669.696 839.785 665.253 829.188C664.473 827.328 645.563 815.327 659.956 817.906C661.287 818.144 662.695 818.658 664 819L665 818C661.697 811.864 650.634 811.742 649.647 820.001C649.126 824.364 669.467 836.393 655.005 834.905C652.7 834.668 651.274 834.525 649 835z"/>
<path style="fill:#e97871; stroke:none;" d="M660 813L661 814L660 813M676 813L677 814L676 813z"/>
<path style="fill:#d42f23; stroke:none;" d="M673 833L672 833L670 835L670 836C675.75 839.795 690.901 840.224 686.396 829.108C684.493 824.412 677.164 823.191 674 819L687 816C681.482 813.108 667.79 812.449 671.619 822.945C673.4 827.829 679.935 826.943 682.079 831.169C684.917 836.762 674.802 834 673 833z"/>
<path style="fill:#e97871; stroke:none;" d="M681.667 813.333L682.333 813.667L681.667 813.333z"/>
<path style="fill:#d42f23; stroke:none;" d="M231 814L231 818L238 818L238 839L242 839L242 818L249 818L249 814L231 814M255 814L255 839L259 839L259 828C268.517 828 271.992 828.805 272 839L275 839L275 814L272 814C271.966 823.727 267.728 824 259 824L259 814L255 814M284 814L284 839L301 839L301 835L287 835L287 828L298 828L298 824L287 824L287 818L301 818L301 814L284 814M317 814L317 839L320 839L320 830L335 839C334.165 836.161 331.3 832.368 331.683 829.424C332.311 824.602 337.148 821.285 332.486 816.434C328.888 812.689 321.7 814 317 814z"/>
<path style="fill:#e97871; stroke:none;" d="M330 814L331 815L330 814z"/>
<path style="fill:#d42f23; stroke:none;" d="M339 839L351.995 833.063L363 839C361.536 834.672 356.326 814.636 351.081 814.636C345.918 814.636 340.657 834.729 339 839M369 814L369 839L384 839L384 835L372 835L372 814L369 814M390 814L390 839L406 839L406 835L394 835L394 814L390 814M406 814L415 839L418 839C418.028 829.137 423.515 822.428 428 814C422.109 814.931 419.906 819.763 418 825L406 814z"/>
<path style="fill:#e97871; stroke:none;" d="M437 814L438 815L437 814M449 814L450 815L449 814z"/>
<path style="fill:#d42f23; stroke:none;" d="M460 814L460 839L463 839L463 830L478 839C477.165 836.161 474.3 832.367 474.683 829.424C475.311 824.602 480.148 821.285 475.486 816.434C471.888 812.689 464.7 814 460 814z"/>
<path style="fill:#e97871; stroke:none;" d="M473 814L474 815L473 814z"/>
<path style="fill:#d42f23; stroke:none;" d="M482 814L491 839L494 839L503 814C497.553 814.934 495.447 820.082 494 825L491 825C489.479 820.192 487.353 814.92 482 814M517 814L517 839L520 839L520 830C526.952 829.999 542.967 822.53 530.775 815.179C527.089 812.956 521.137 814 517 814z"/>
<path style="fill:#e97871; stroke:none;" d="M530 814L531 815L530 814z"/>
<path style="fill:#d42f23; stroke:none;" d="M541 814L541 839L545 839L545 830L560 839C559.127 836.241 556.729 833.151 556.578 830.286C556.312 825.237 561.894 821.578 557.293 816.434C553.759 812.483 545.759 814 541 814z"/>
<path style="fill:#e97871; stroke:none;" d="M555 814L556 815L555 814M572 814L573 815L572 814M584 814L585 815L584 814M604 814L605 815L604 814M616 814L617 815L616 814z"/>
<path style="fill:#d42f23; stroke:none;" d="M627 814L627 839L644 839L644 835L630 835L630 828L641 828L641 824L630 824L630 818L644 818L644 814L627 814z"/>
<path style="fill:#e97871; stroke:none;" d="M652 814L653 815L652 814M663 814L664 815L663 814M673 814L674 815L673 814M684 814L685 815L684 814M332 815L333 816L332 815M427 815L428 816L427 815M435 815L436 816L435 815M450 815L451 816L450 815M475 815L476 816L475 815M486 815L487 816L486 815M498 815L499 816L498 815M557 815L558 816L557 815M570 815L571 816L570 815M586 815L587 816L586 815M602 815L603 816L602 815M617 815L618 816L617 815M651 815L652 816L651 815M664 815L665 816L664 815M672 815L673 816L672 815M686 815L687 816L686 815M333 816L334 817L333 816M354.333 816.667L354.667 817.333L354.333 816.667M406 816L407 817L406 816M426.333 816.667L426.667 817.333L426.333 816.667M434 816L435 817L434 816M452 816L453 817L452 816M476 816L477 817L476 816M487.333 816.667L487.667 817.333L487.333 816.667M497.333 816.667L497.667 817.333L497.333 816.667M558.333 816.667L558.667 817.333L558.333 816.667M569 816L570 817L569 816M587 816L588 817L587 816M601 816L602 817L601 816M619 816L620 817L619 816M650 816L651 817L650 816M665 816L666 817L665 816M671.333 816.667L671.667 817.333L671.333 816.667M687 816L688 817L687 816M407.333 817.667L407.667 818.333L407.333 817.667M421 817L422 818L421 817M433 817L434 818L433 817M441 817L441 818L446 818L441 817M453.333 817.667L453.667 818.333L453.333 817.667M533 817L534 818L533 817M568 817L569 818L568 817M576 817L576 818L581 818L576 817M588 817L589 818L588 817M600 817L601 818L600 817M608 817L608 818L613 818L608 817M620.333 817.667L620.667 818.333L620.333 817.667M649.333 817.667L649.667 818.333L649.333 817.667M655 817L655 818L660 818L655 817M677 817L677 818L681 818L677 817M686 817L687 818L686 817M237 818L238 819L237 818M242 818L243 819L242 818M287 818L287 824L288 824L287 818M320 818L320 826L321 826L320 818z"/>
<path style="fill:#f9fbff; stroke:none;" d="M321 818L321 826C331.91 825.766 331.978 818.039 321 818z"/>
<path style="fill:#e97871; stroke:none;" d="M329 818L330 819L329 818M334.333 818.667L334.667 819.333L334.333 818.667M355.333 818.667L355.667 819.333L355.333 818.667M412 818L413 819L412 818M420.333 818.667L420.667 819.333L420.333 818.667M425 818L426 819L425 818M432 818L433 819L432 818M438 818L439 819L438 818M448 818L449 819L448 818M463 818L463 826L464 826L463 818z"/>
<path style="fill:#f9fbff; stroke:none;" d="M464 818L464 826C474.91 825.766 474.978 818.039 464 818z"/>
<path style="fill:#e97871; stroke:none;" d="M472 818L473 819L472 818M477.333 818.667L477.667 819.333L477.333 818.667M483 818L484 819L483 818M488.333 818.667L488.667 819.333L488.333 818.667M496 818L497 819L496 818M501 818L502 819L501 818M520 818L520 826L521 826L520 818z"/>
<path style="fill:#f9fbff; stroke:none;" d="M521 818L521 826C531.284 825.878 531.495 818.037 521 818z"/>
<path style="fill:#e97871; stroke:none;" d="M529 818L530 819L529 818M534 818L534 821L535 821L534 818M545 818L545 826L546 826L545 818z"/>
<path style="fill:#f9fbff; stroke:none;" d="M546 818L546 826C556.242 825.752 556.482 818.037 546 818z"/>
<path style="fill:#e97871; stroke:none;" d="M554 818L555 819L554 818M559 818L559 821L560 821L559 818M567 818L568 819L567 818M573 834C569.951 827.934 569.261 823.55 575 819C566.773 818.82 568.818 830.31 573 834z"/>
<path style="fill:#f9fbff; stroke:none;" d="M575.044 818.742C565.024 822.803 571.713 838.374 581.956 834.257C592.024 830.211 585.497 814.505 575.044 818.742z"/>
<path style="fill:#e97871; stroke:none;" d="M583 818L584 819L583 818M589 818L590 819L589 818M599 818L600 819L599 818M605 818L606 819L605 818M615 818L616 819L615 818M630 818L630 824L631 824L630 818M653 818L653 822L654 822L653 818M661 818L662 819L661 818M670 818L670 823L671 823L670 818M675 818L676 819L675 818M683 818L684 819L683 818M685 818L686 819L685 818M330.333 819.667L330.667 820.333L330.333 819.667M346.333 819.667L346.667 820.333L346.333 819.667M408 819L409 820L408 819M413.333 819.667L413.667 820.333L413.333 819.667M431.333 819.667L431.667 820.333L431.333 819.667M437 819L438 820L437 819M449 819L450 820L449 819M452 819L453 820L452 819M473.333 819.667L473.667 820.333L473.333 819.667M484.333 819.667L484.667 820.333L484.333 819.667M500.333 819.667L500.667 820.333L500.333 819.667M530 819L530 824L531 824L530 819M555 819L555 824L556 824L555 819M584 819L585 820L584 819M598.333 819.667L598.667 820.333L598.333 819.667M604 819L605 820L604 819M616 819L617 820L616 819M619 819L620 820L619 819M662 819L663 820L662 819M674.333 819.667L674.667 820.333L674.333 819.667M684 819L685 820L684 819M350 820L350 821L352 823L353 823L350 820M419.333 820.667L419.667 821.333L419.333 820.667M424 820L425 821L424 820M436 820L437 821L436 820M450.667 820.333L451.333 820.667L450.667 820.333M489 820L490 821L489 820M495 820L496 821L495 820M566 820L567 821L566 820M585 820L586 821L585 820M590 820L591 821L590 820M603 820L604 821L603 820M617.667 820.333L618.333 820.667L617.667 820.333M335 821L336 822L335 821M345.333 821.667L345.667 822.333L345.333 821.667z"/>
<path style="fill:#f9fbff; stroke:none;" d="M350 821L348 828L354 828L350 821z"/>
<path style="fill:#e97871; stroke:none;" d="M356.333 821.667L356.667 822.333L356.333 821.667M409 821L410 822L409 821M414.333 821.667L414.667 822.333L414.333 821.667M423.333 821.667L423.667 822.333L423.333 821.667M430 821L430 824L431 824L430 821M435 821L436 822L435 821M478 821L479 822L478 821M485.333 821.667L485.667 822.333L485.333 821.667M494.333 821.667L494.667 822.333L494.333 821.667M499 821L500 822L499 821M586 821L587 822L586 821M597 821L597 824L598 824L597 821M602 821L603 822L602 821M349.333 822.667L349.667 823.333L349.333 822.667M410.333 822.667L410.667 823.333L410.333 822.667M418 822L419 823L418 822M490 822L491 823L490 822M559 822L559 825L560 825L559 822M565 822L565 831L566 831L565 822M591 822L591 825L592 825L591 822M649.333 822.667L649.667 823.333L649.333 822.667M654 822L655 823L654 822M676 822L677 823L676 822M330.333 823.667L330.667 824.333L330.333 823.667M357.333 823.667L357.667 824.333L357.333 823.667M415 823L416 824L415 823M422 823L423 824L422 823M434 823L434 826L435 826L434 823M473.333 823.667L473.667 824.333L473.333 823.667M486 823L487 824L486 823M491 823C492.127 825.006 492.873 825.006 494 823L491 823M498 823L499 824L498 823M534 823L534 826L535 826L534 823M587 823L587 830L588 830L587 823M601 823L601 826L602 826L601 823M656 823L657 824L656 823M677.667 823.333L678.333 823.667L677.667 823.333M298 824L298 828L299 828L298 824M334.333 824.667L334.667 825.333L334.333 824.667M344.333 824.667L344.667 825.333L344.333 824.667M348.333 824.667L348.667 825.333L348.333 824.667M353.333 824.667L353.667 825.333L353.333 824.667M411.333 824.667L411.667 825.333L411.333 824.667M416.667 824.333L417.333 824.667L416.667 824.333M477.333 824.667L477.667 825.333L477.333 824.667M497.333 824.667L497.667 825.333L497.333 824.667M529 824L530 825L529 824M554 824L555 825L554 824M641 824L641 828L642 828L641 824M650 824L651 825L650 824M659 824L660 825L659 824M671 824L672 825L671 824M680.667 824.333L681.333 824.667L680.667 824.333M327.667 825.333L328.333 825.667L327.667 825.333M421 825L422 826L421 825M470.667 825.333L471.333 825.667L470.667 825.333M487 825L488 826L487 825M528 825L529 826L528 825M552.667 825.333L553.333 825.667L552.667 825.333M662 825L663 826L662 825M672 825L673 826L672 825M683 825L684 826L683 825M333 826L334 827L333 826M343.333 826.667L343.667 827.333L343.333 826.667M354 826L347 827C348.708 829.34 355.578 830.187 354 826M358.333 826.667L358.667 827.333L358.333 826.667M412 826L413 827L412 826M476 826L477 827L476 826M488.333 826.667L488.667 827.333L488.333 826.667M496 826L497 827L496 826M533 826L534 827L533 826M558 826L559 827L558 826M652 826L653 827L652 826M663 826L664 827L663 826M673 826L674 827L673 826M685 826L686 827L685 826M332 827L333 828L332 827M420 827L421 828L420 827M434 827L434 830L435 830L434 827M475 827L476 828L475 827M532 827L533 828L532 827M557 827L558 828L557 827M601 827L601 830L602 830L601 827M654 827L655 828L654 827M675.667 827.333L676.333 827.667L675.667 827.333M686 827L687 828L686 827M259 828L260 829L259 828M270 828L271 829L270 828M287 828L287 835L288 835L287 828M331 828L332 829L331 828M359.333 828.667L359.667 829.333L359.333 828.667M413 828L414 829L413 828M419.333 828.667L419.667 829.333L419.333 828.667M474 828L475 829L474 828M489 828L490 829L489 828M495 828L496 829L495 828M531 828L532 829L531 828M556 828L557 829L556 828M591 828L591 831L592 831L591 828M630 828L630 835L631 835L630 828M657 828L658 829L657 828M665 828L666 829L665 828M678.667 828.333L679.333 828.667L678.667 828.333M271 829L271 839L272 839L271 829M330 829L331 830L330 829M342.333 829.667L342.667 830.333L342.333 829.667M414 829L414 839L415 839L414 829M430 829L430 832L431 832L430 829M473 829L474 830L473 829M494 829L494 839L495 839L494 829M530 829L531 830L530 829M555 829L556 830L555 829M597 829L597 832L598 832L597 829M660 829L661 830L660 829M681 829L682 830L681 829M687 829L687 835L688 835L687 829M320 830L320 839L321 839L320 830M326 830L327 831L326 830M331.333 830.667L331.667 831.333L331.333 830.667M418 830L418 839L419 839L418 830M463 830L463 839L464 839L463 830M469 830L470 831L469 830M474.333 830.667L474.667 831.333L474.333 830.667M490 830L490 839L491 839L490 830M520 830L520 839L521 839L520 830M545 830L545 839L546 839L545 830M551.333 830.667L551.667 831.333L551.333 830.667M586.333 830.667L586.667 831.333L586.333 830.667M661 830L662 831L661 830M666 830L666 834L667 834L666 830M327.333 831.667L327.667 832.333L327.333 831.667M341.333 831.667L341.667 832.333L341.333 831.667M360.333 831.667L360.667 832.333L360.333 831.667M435 831L436 832L435 831M470.333 831.667L470.667 832.333L470.333 831.667M556 831L557 832L556 831M602 831L603 832L602 831M662.333 831.667L662.667 832.333L662.333 831.667M683 831L683 834L684 834L683 831M332 832L333 833L332 832M431.333 832.667L431.667 833.333L431.333 832.667M436 832L437 833L436 832M450 832L451 833L450 832M452 832L453 833L452 832M475 832L476 833L475 832M552 832L553 833L552 832M557.333 832.667L557.667 833.333L557.333 832.667M566 832L567 833L566 832M585 832L586 833L585 832M590 832L591 833L590 832M598.333 832.667L598.667 833.333L598.333 832.667M603 832L604 833L603 832M617 832L618 833L617 832M619 832L620 833L619 832M328.333 833.667L328.667 834.333L328.333 833.667M345 833L346 834L345 833M361.333 833.667L361.667 834.333L361.333 833.667M437 833L438 834L437 833M449 833L450 834L449 833M453.333 833.667L453.667 834.333L453.333 833.667M471.333 833.667L471.667 834.333L471.333 833.667M567.333 833.667L567.667 834.333L567.333 833.667M584 833L585 834L584 833M604 833L605 834L604 833M616 833L617 834L616 833M620.333 833.667L620.667 834.333L620.333 833.667M650.667 833.333L651.333 833.667L650.667 833.333M661 833L662 834L661 833M671 833L672 834L671 833M673 833L674 834L673 833M333 834L334 835L333 834M340.333 834.667L340.667 835.333L340.333 834.667M344 834L344 837L345 837L344 834M357.333 834.667L357.667 835.333L357.333 834.667M432 834L433 835L432 834M439 834L440 835L439 834M447 834L448 835L447 834M476 834L477 835L476 834M553 834L554 835L553 834M558 834L559 835L558 834M574 834L575 835L574 834M582 834L583 835L582 834M589 834L590 835L589 834M599 834L600 835L599 834M606 834L607 835L606 834M614 834L615 835L614 834M649 834L650 835L649 834M653 834L654 835L653 834M660 834L661 835L660 834M670 834L671 835L670 834M674 834L675 835L674 834M682 834L683 835L682 834M301 835L301 839L302 839L301 835M329 835L330 836L329 835M334.333 835.667L334.667 836.333L334.333 835.667M384 835L384 839L385 839L384 835M406 835L406 839L407 839L406 835M433 835L434 836L433 835M442.667 835.333L443.333 835.667L442.667 835.333M472 835L473 836L472 835M477.333 835.667L477.667 836.333L477.333 835.667M568 835L569 836L568 835M577 835L577 836L580 836L577 835M588 835L589 836L588 835M600 835L601 836L600 835M609.667 835.333L610.333 835.667L609.667 835.333M644 835L644 839L645 839L644 835M648 835L649 836L648 835M656 835L656 836L659 836L656 835M665 835L666 836L665 835M669 835L670 836L669 835M678.667 835.333L679.333 835.667L678.667 835.333M339.333 836.667L339.667 837.333L339.333 836.667M362.333 836.667L362.667 837.333L362.333 836.667M434 836L435 837L434 836M451 836L452 837L451 836M554 836L555 837L554 836M559 836L560 837L559 836M569 836L570 837L569 836M587 836L588 837L587 836M601 836L602 837L601 836M618 836L619 837L618 836M664 836L665 837L664 836M670 836L671 837L670 836M686 836L687 837L686 836M330 837L331 838L330 837M335.333 837.667L335.667 838.333L335.333 837.667M343.333 837.667L343.667 838.333L343.333 837.667M358.333 837.667L358.667 838.333L358.333 837.667M435 837L436 838L435 837M450 837L451 838L450 837M473 837L474 838L473 837M478.333 837.667L478.667 838.333L478.333 837.667M555.333 837.667L555.667 838.333L555.333 837.667M571 837L572 838L571 837M602 837L603 838L602 837M617 837L618 838L617 837M663 837L664 838L663 837M671 837L672 838L671 837M685 837L686 838L685 837M363 838L364 839L363 838M437 838L438 839L437 838M448 838L449 839L448 838M560 838L561 839L560 838M572 838L573 839L572 838M584 838L585 839L584 838M604 838L605 839L604 838M615 838L616 839L615 838M651 838L652 839L651 838M662 838L663 839L662 838M673 838L674 839L673 838M683 838L684 839L683 838M440 839L440 840L443 840L440 839M444.667 839.333L445.333 839.667L444.667 839.333M575 839L575 840L578 840L575 839M579 839L579 840L582 840L579 839M607 839L607 840L610 840L607 839M611.667 839.333L612.333 839.667L611.667 839.333M654 839L654 840L657 840L654 839M658.667 839.333L659.333 839.667L658.667 839.333M675 839L675 840L682 840L675 839z"/>
</svg>
